<svg width="450" height="288" viewBox="0 0 450 288" fill="none" xmlns="http://www.w3.org/2000/svg">
<path d="M225 287.829C345.975 287.829 444.044 280.111 444.044 270.589C444.044 261.068 345.975 253.349 225 253.349C104.026 253.349 5.9563 261.068 5.9563 270.589C5.9563 280.111 104.026 287.829 225 287.829Z" fill="#EBEBEB"/>
<path d="M118.648 179.194H96.5481V226.941H118.648V179.194Z" fill="#35B6FA"/>
<g opacity="0.1">
<path opacity="0.1" d="M118.655 179.194H113.593V226.941H118.655V179.194Z" fill="black"/>
</g>
<path d="M147.765 161.144H125.666V226.941H147.765V161.144Z" fill="#35B6FA"/>
<g opacity="0.1">
<path opacity="0.1" d="M147.773 161.144H142.71V226.941H147.773V161.144Z" fill="black"/>
</g>
<path d="M89.5936 189.947H67.4937V226.941H89.5936V189.947Z" fill="#35B6FA"/>
<g opacity="0.1">
<path opacity="0.1" d="M89.5934 189.947H84.531V226.941H89.5934V189.947Z" fill="black"/>
</g>
<path d="M176.89 137.117H154.79V226.941H176.89V137.117Z" fill="#35B6FA"/>
<g opacity="0.1">
<path opacity="0.1" d="M176.89 137.117H171.828V226.941H176.89V137.117Z" fill="black"/>
</g>
<path d="M59.6592 212.599V203.389C59.6592 203.389 140.161 198.089 172.693 129.436L175.926 130.079C175.926 130.079 154.329 200.47 59.6592 212.599Z" fill="#37474F"/>
<path d="M178.943 132.39L168.776 129.793L177.204 123.327L178.943 132.39Z" fill="#37474F"/>
<path d="M0 226.795L56.2517 226.627L112.503 226.564L225 226.445L337.497 226.564L393.748 226.627L450 226.795L393.748 226.969L337.497 227.025L225 227.144L112.503 227.025L56.2517 226.969L0 226.795Z" fill="#263238"/>
<path d="M421.434 184.913C421.434 184.913 427.963 161.493 433.172 153.54C438.381 145.587 448.094 136.852 448.094 136.852C448.094 136.852 447.863 172.952 421.434 184.913Z" fill="#35B6FA"/>
<path d="M421.909 184.508C424.106 180.842 426.093 177.054 427.858 173.161C428.607 168.978 429.69 164.861 431.098 160.851C431.098 160.774 431.231 160.816 431.217 160.893C430.351 164.587 429.338 168.26 428.424 171.946C431.063 166.249 433.563 160.474 436.698 155.083C437.424 152.481 438.438 149.969 439.721 147.591C439.721 147.521 439.875 147.591 439.84 147.633C439.046 149.463 438.365 151.34 437.801 153.254C439.283 150.852 440.94 148.563 442.759 146.404C442.878 146.271 443.101 146.404 442.989 146.565C438.8 151.92 435.902 158.009 433.144 164.175C436.11 160.958 438.846 157.537 441.334 153.938C441.334 153.938 441.411 153.938 441.39 153.98C438.798 158.013 435.863 161.817 432.62 165.348C430.616 169.866 428.64 174.425 426.245 178.699C431.028 174.656 434.708 169.419 438.353 164.37C438.371 164.351 438.396 164.339 438.422 164.336C438.449 164.333 438.476 164.34 438.497 164.355C438.519 164.371 438.535 164.393 438.542 164.419C438.549 164.445 438.546 164.472 438.534 164.496C434.889 170.033 431.119 175.249 425.875 179.355C424.815 181.242 423.649 183.067 422.384 184.822C422.342 184.885 422.277 184.929 422.203 184.944C422.129 184.959 422.052 184.944 421.989 184.903C421.926 184.861 421.882 184.796 421.867 184.722C421.852 184.648 421.867 184.571 421.909 184.508Z" fill="#263238"/>
<path d="M417.929 184.941C417.929 184.941 429.66 163.351 426.252 142.417C422.845 121.483 419.2 114.026 419.2 114.026C419.2 114.026 400.759 146.586 417.929 184.941Z" fill="#35B6FA"/>
<path d="M413.118 150.999C414.11 156.939 415.624 162.781 417.643 168.455C417.678 160.774 417.824 153.093 418.027 145.413C416.708 140.735 415.965 135.914 415.813 131.056C415.813 130.917 416.023 130.924 416.03 131.056C416.399 135.209 417.088 139.327 418.09 143.374C418.266 137.033 418.471 130.696 418.704 124.36C418.704 124.338 418.713 124.317 418.729 124.301C418.744 124.285 418.766 124.276 418.788 124.276C418.81 124.276 418.831 124.285 418.847 124.301C418.863 124.317 418.872 124.338 418.872 124.36C418.872 134.254 418.872 144.156 418.802 154.057C420.231 150.23 421.363 146.299 422.188 142.298C422.188 142.256 422.258 142.298 422.251 142.298C421.902 146.928 420.498 151.376 418.76 155.684C418.711 162.017 418.641 168.343 418.501 174.67C420.485 167.945 422.607 161.403 423.18 154.315C423.185 154.3 423.194 154.286 423.208 154.276C423.221 154.267 423.237 154.261 423.253 154.261C423.27 154.261 423.285 154.267 423.299 154.276C423.312 154.286 423.322 154.3 423.326 154.315C423.173 162.15 421.155 170.11 418.564 177.484C418.539 177.558 418.493 177.623 418.432 177.672C418.376 179.983 418.313 182.295 418.229 184.606C418.219 184.666 418.188 184.721 418.141 184.761C418.095 184.8 418.035 184.822 417.974 184.822C417.913 184.822 417.854 184.8 417.807 184.761C417.761 184.721 417.729 184.666 417.719 184.606C417.631 179.872 417.591 175.14 417.601 170.41C415.046 164.217 413.486 157.658 412.978 150.978C412.981 150.959 412.991 150.943 413.006 150.931C413.021 150.92 413.04 150.916 413.059 150.918C413.077 150.921 413.094 150.931 413.105 150.946C413.116 150.961 413.121 150.98 413.118 150.999Z" fill="#263238"/>
<path d="M413.921 147.661C414.329 149.541 414.602 151.447 414.738 153.366C414.738 153.429 414.64 153.436 414.626 153.366C414.172 151.496 413.85 149.597 413.662 147.682C413.648 147.542 413.893 147.514 413.921 147.661Z" fill="#263238"/>
<path d="M420.778 131.873C420.778 131.81 420.889 131.831 420.889 131.873C420.872 133.204 420.675 134.527 420.303 135.804C420.296 135.826 420.282 135.844 420.262 135.854C420.242 135.865 420.219 135.867 420.198 135.86C420.177 135.854 420.159 135.839 420.149 135.82C420.138 135.8 420.136 135.777 420.142 135.756C420.394 134.478 420.554 133.151 420.778 131.873Z" fill="#263238"/>
<path d="M414.926 186.156C414.926 186.156 412.455 163.749 404.578 153.484C396.702 143.22 385.327 138.968 385.327 138.968C385.327 138.968 394.796 177.791 414.926 186.156Z" fill="#35B6FA"/>
<path d="M400.717 168.588C403.807 172.153 407.194 175.449 410.842 178.44C408.98 174.041 406.908 169.745 404.627 165.55C400.619 162.869 396.625 160.076 393.853 156.054C393.845 156.041 393.843 156.026 393.846 156.011C393.849 155.996 393.857 155.983 393.869 155.973C393.881 155.964 393.895 155.959 393.91 155.96C393.925 155.961 393.94 155.967 393.951 155.977C396.821 159.469 400.396 162.122 404.117 164.622C400.668 158.304 396.832 152.206 392.631 146.362C392.615 146.331 392.61 146.296 392.618 146.262C392.626 146.229 392.645 146.199 392.673 146.178C392.7 146.157 392.734 146.146 392.769 146.148C392.803 146.15 392.836 146.164 392.861 146.188C395.344 149.212 397.659 152.37 399.795 155.649C398.88 153.345 398.084 150.964 397.156 148.666C397.155 148.655 397.157 148.643 397.163 148.633C397.169 148.623 397.178 148.615 397.189 148.61C397.2 148.605 397.212 148.604 397.224 148.607C397.235 148.609 397.246 148.616 397.253 148.625C398.912 151.5 400.214 154.567 401.129 157.758C404.034 162.416 406.601 167.277 408.81 172.303C408.202 168.979 407.553 165.669 406.771 162.373C406.771 162.31 406.862 162.283 406.882 162.373C408.082 165.979 408.906 169.7 409.34 173.476C410.7 176.688 411.919 179.946 412.999 183.251C412.999 183.342 412.894 183.398 412.86 183.307C412.324 181.911 411.768 180.547 411.191 179.215C411.191 179.215 411.142 179.215 411.114 179.215C407.218 176.227 403.433 172.728 400.71 168.616C400.668 168.588 400.696 168.567 400.717 168.588Z" fill="#263238"/>
<path d="M390.892 151.383C391.709 152.081 392.47 152.779 393.266 153.477C394.014 154.059 394.715 154.699 395.361 155.391C395.361 155.391 395.361 155.46 395.319 155.446C394.436 154.953 393.625 154.34 392.91 153.624C392.136 152.965 391.419 152.24 390.767 151.459C390.753 151.418 390.837 151.306 390.892 151.383Z" fill="#263238"/>
<path d="M432.865 183.845L432.048 194.521L429.59 226.795H408.174L405.716 194.521L404.899 183.845H432.865Z" fill="#455A64"/>
<path d="M432.865 183.845L432.048 194.521H405.716L404.899 183.845H432.865Z" fill="#37474F"/>
<path d="M402.993 186.791H434.764V178.608H402.993V186.791Z" fill="#455A64"/>
<path d="M129.848 258.621C128.452 259.082 87.457 258.726 85.8999 257.721C85.3134 257.344 85.0131 251.38 84.8665 244.153C84.8316 242.596 81.7383 217.466 81.7383 217.466L109.124 217.627L111.275 244.314C111.275 244.314 126.895 251.464 128.48 252.742C130.065 254.02 131.287 258.14 129.848 258.621Z" fill="#EB9481"/>
<path d="M129.848 258.621C128.452 259.082 87.4571 258.726 85.9 257.721C85.4391 257.42 85.1528 253.65 84.9783 248.517C91.9609 249.572 115.702 253.091 120.967 252.574C124.535 252.225 122.237 250.026 119.675 248.231C123.662 250.13 127.719 252.127 128.48 252.742C130.037 254.027 131.287 258.14 129.848 258.621Z" fill="#263238"/>
<path d="M42.7546 115.988C42.7546 115.988 73.883 170.452 74.686 174.278C75.9289 180.13 83.1419 243.909 83.1419 243.909L113.782 243.72C113.782 243.72 107.693 186.777 102.512 169.97C99.6767 160.795 84.7619 135.923 77.7723 123.641C77.1509 122.544 77.3324 117.524 77.3324 117.524L42.7546 115.988Z" fill="#455A64"/>
<path d="M110.828 238.588C106.073 238.497 91.6956 238.099 85.3623 238.588C85.3135 238.588 85.3135 238.672 85.3623 238.679C87.5339 239.014 106.073 238.791 110.828 238.679C110.837 238.69 110.85 238.697 110.863 238.701C110.877 238.705 110.892 238.704 110.905 238.699C110.918 238.694 110.93 238.685 110.938 238.673C110.946 238.662 110.951 238.648 110.951 238.633C110.951 238.619 110.946 238.605 110.938 238.594C110.93 238.582 110.918 238.573 110.905 238.568C110.892 238.563 110.877 238.562 110.863 238.566C110.85 238.57 110.837 238.577 110.828 238.588Z" fill="#263238"/>
<path d="M48.1098 121.015C50.1557 124.311 52.2994 127.537 54.3941 130.791C56.4889 134.045 58.5837 137.327 60.6226 140.616C64.7284 147.193 68.7387 153.827 72.6536 160.516C74.554 163.6 76.1735 166.848 77.4926 170.222C78.6997 173.603 79.5949 177.088 80.1669 180.633C80.7744 184.194 81.1584 187.783 81.5145 191.372C81.9009 195.198 82.2803 199.02 82.6527 202.837C83.4278 210.658 85.1874 224.539 85.9694 232.36C86.0602 233.316 86.151 234.28 86.2348 235.237C86.2348 235.376 85.9974 235.404 85.9834 235.237C85.1036 227.465 83.4068 213.591 82.6178 205.826C82.2221 201.958 81.8287 198.085 81.4377 194.207C81.0746 190.604 80.7395 187.001 80.2158 183.412C79.7443 179.87 79.0067 176.369 78.0093 172.938C76.9114 169.389 75.4195 165.974 73.5614 162.757C69.8117 156.096 65.8316 149.546 61.8516 143.011C57.8715 136.475 53.7936 129.855 49.5901 123.376C49.0734 122.573 48.5497 121.784 48.0051 120.994C47.9702 121.008 48.0749 120.953 48.1098 121.015Z" fill="#263238"/>
<path d="M55.0649 260.842C53.5566 260.73 14.8033 244.475 13.7349 242.959C13.6903 242.871 13.6709 242.772 13.6791 242.673C13.6791 241.332 16.4721 236.682 18.7903 230.558C18.9369 230.167 32.2388 207.697 32.2388 207.697L57.5716 218.122L43.2084 240.606C43.2084 240.606 55.009 253.098 55.9936 254.879C56.9781 256.659 56.5661 260.933 55.0649 260.842Z" fill="#EB9481"/>
<path d="M55.0649 260.842C53.5566 260.73 14.8033 244.475 13.7349 242.959C13.6903 242.871 13.6709 242.772 13.6791 242.673C13.6791 241.598 15.4875 238.372 17.4008 233.966C24.3834 239.112 46.2668 252.714 50.3865 253.007C52.5581 253.161 50.7566 249.572 49.3252 247.177C52.3696 250.494 55.5118 253.999 55.9936 254.858C56.9711 256.659 56.5661 260.933 55.0649 260.842Z" fill="#263238"/>
<path d="M45.4914 241.172L17.1421 229.301C17.1421 229.301 54.7573 171.828 55.0645 167.966C55.3369 164.545 40.1846 134.547 39.7028 125.854C39.1582 116.47 43.7597 109.271 48.7802 104.83L77.36 117.51C77.36 117.51 74.8602 122.614 69.9444 125.317C69.9444 125.317 84.6079 159.95 83.6094 170.536C82.6109 181.121 45.4914 241.172 45.4914 241.172Z" fill="#455A64"/>
<path d="M46.8252 235.795C42.7265 233.973 43.9275 234.441 39.8427 232.66C37.8317 231.794 24.5787 226.089 22.5538 225.615C22.5119 225.615 22.4839 225.67 22.5538 225.698C24.3134 226.802 37.6641 232.269 39.696 233.1C43.8856 234.797 42.6776 234.266 46.8462 235.893C46.8514 235.885 46.8549 235.877 46.8566 235.867C46.8584 235.858 46.8583 235.849 46.8563 235.84C46.8544 235.831 46.8506 235.822 46.8453 235.814C46.8399 235.807 46.8331 235.8 46.8252 235.795Z" fill="#263238"/>
<path d="M74.7629 124.772C71.7012 125.45 68.7021 126.384 65.7972 127.565C65.7775 127.576 65.7623 127.594 65.7543 127.616C65.7463 127.637 65.746 127.66 65.7534 127.682C65.7609 127.703 65.7756 127.722 65.7951 127.733C65.8146 127.745 65.8375 127.75 65.8601 127.747C68.8766 126.902 71.9419 126.12 74.9025 125.121C74.9488 125.103 74.9859 125.066 75.0055 125.021C75.0252 124.975 75.0258 124.923 75.0073 124.877C74.9888 124.83 74.9526 124.793 74.9068 124.774C74.8609 124.754 74.8092 124.753 74.7629 124.772Z" fill="#263238"/>
<path d="M71.2854 123.508C70.9932 124.011 70.7366 124.534 70.5173 125.072C70.2949 125.478 70.1572 125.925 70.1123 126.385C70.1123 126.476 70.231 126.497 70.2869 126.448C70.5972 126.075 70.8513 125.659 71.041 125.212C71.2924 124.73 71.5647 124.248 71.8021 123.76C71.9627 123.438 71.4739 123.194 71.2854 123.508Z" fill="#263238"/>
<path d="M71.6762 120.743C71.8648 120.296 72.0533 119.849 72.2488 119.402C72.4443 118.955 72.6817 118.481 72.8493 118.006C72.8493 117.936 72.996 118.006 72.961 118.062C72.7795 118.516 72.6538 118.997 72.5072 119.458C72.3605 119.919 72.1999 120.387 72.0393 120.855C71.7391 121.721 71.376 122.572 70.992 123.403C71.4689 123.433 71.9463 123.354 72.3885 123.173C72.8394 122.893 73.193 122.481 73.4009 121.993C73.6663 121.49 73.9107 120.973 74.183 120.478C74.5108 119.937 74.7911 119.37 75.0209 118.781C75.0209 118.704 75.1606 118.781 75.1326 118.83C74.7164 120.084 74.176 121.293 73.5196 122.44C73.2473 122.887 73.0169 123.348 72.5211 123.515C71.9729 123.664 71.3994 123.695 70.8383 123.606C70.7685 123.606 70.6847 123.606 70.7057 123.501C71.0059 122.572 71.3131 121.637 71.6762 120.743Z" fill="#263238"/>
<path d="M70.3566 126.455C71.3761 128.682 72.2698 130.903 73.2195 133.123C74.1691 135.344 75.014 137.48 75.8519 139.687C77.5487 144.135 79.0639 148.666 80.3906 153.247C81.0423 155.509 81.6381 157.79 82.1781 160.09C82.7712 162.384 83.1983 164.717 83.4559 167.072C83.6726 169.423 83.4356 171.794 82.7577 174.055C82.0594 176.366 78.2888 184.201 77.2205 186.358C76.5641 187.678 76.3477 187.497 76.6619 186.826C77.5626 184.941 82.7577 174.055 83.03 169.544C83.1696 167.212 82.1851 163.909 81.6893 161.633C81.1936 159.357 80.6001 157.011 79.9646 154.713C78.7148 150.203 77.2205 145.776 75.6773 141.356C74.8115 138.877 73.8828 136.426 73.003 133.954C72.1232 131.482 71.2085 129.22 70.21 126.497C70.2072 126.487 70.2064 126.477 70.2075 126.467C70.2087 126.457 70.2118 126.447 70.2166 126.439C70.2215 126.43 70.228 126.422 70.2359 126.416C70.2437 126.41 70.2527 126.405 70.2623 126.402C70.272 126.4 70.282 126.399 70.292 126.4C70.3019 126.401 70.3116 126.404 70.3203 126.409C70.3291 126.414 70.3368 126.42 70.343 126.428C70.3492 126.436 70.3538 126.445 70.3566 126.455Z" fill="#263238"/>
<path d="M48.8083 118.872C49.325 118.69 50.0302 119.011 50.5469 119.109C51.2138 119.229 51.888 119.303 52.5649 119.333C53.2331 119.364 53.9026 119.35 54.5689 119.291C55.2396 119.279 55.8988 119.114 56.4961 118.809C57.4729 118.114 58.3113 117.242 58.9679 116.239C59.7613 115.219 60.4142 114.096 60.9091 112.902C60.9091 112.832 61.0418 112.902 61.0208 112.951C60.7974 113.649 60.6298 114.347 60.3226 114.982C60.0524 115.608 59.7325 116.21 59.3659 116.784C58.7542 117.929 57.8691 118.905 56.7894 119.626C55.5953 120.289 54.0731 120.226 52.7604 120.136C51.9965 120.086 51.2377 119.976 50.4911 119.807C49.9534 119.689 49.0457 119.591 48.7105 119.109C48.6992 119.088 48.6927 119.064 48.6916 119.039C48.6905 119.015 48.6947 118.99 48.704 118.968C48.7133 118.945 48.7275 118.925 48.7455 118.908C48.7635 118.892 48.7849 118.879 48.8083 118.872Z" fill="#263238"/>
<path d="M25.3399 223.981C30.109 216.956 50.1909 182.392 54.6667 175.137C55.8478 173.447 56.8538 171.641 57.6693 169.747C58.4304 167.652 58.0324 165.606 57.3969 163.539C56.1949 159.757 54.7798 156.046 53.1585 152.423C51.5595 148.785 49.8348 145.196 48.138 141.6C46.3509 138.063 44.7679 134.426 43.3968 130.707C42.084 127.206 41.8624 123.388 42.7614 119.758C43.7599 116.107 45.8617 112.839 48.0542 109.794C48.6338 108.991 49.2203 108.202 49.7999 107.399C49.8418 107.336 49.9325 107.399 49.8907 107.476C47.4817 110.646 45.1215 114.005 43.6901 117.74C42.9558 119.585 42.5334 121.539 42.4402 123.522C42.405 125.536 42.6926 127.542 43.2921 129.464C44.4023 133.207 46.1759 136.754 47.8308 140.28C49.4857 143.806 51.2523 147.458 52.8862 151.089C54.5495 154.734 56.0202 158.463 57.2922 162.261C57.8508 163.951 58.4723 165.753 58.4094 167.533C58.3396 169.516 57.376 171.283 56.3775 172.945C52.0273 180.158 32.0501 214.47 27.302 221.474C26.7108 222.358 26.1126 223.24 25.5075 224.12C25.4237 224.225 25.298 224.092 25.3399 223.981Z" fill="#263238"/>
<path d="M51.5247 50.1211C45.5057 55.2812 47.1816 62.8015 44.6678 66.8793C43.1317 69.3721 38.1251 72.0115 37.1336 74.8884C35.4927 79.6156 39.5007 81.3123 38.6069 83.8749C37.3361 87.5199 32.4623 87.2336 31.6244 93.1897C30.7864 99.1459 37.2942 105.472 52.8375 107.19C68.3807 108.908 76.9274 103.21 77.486 98.1613C78.0446 93.1129 72.8705 91.4301 72.5144 87.6874C72.291 85.2715 75.482 83.5956 75.6496 79.1617C75.8172 74.7278 71.46 73.2824 70.8665 69.5187C70.273 65.7551 72.263 56.594 66.677 51.9226C61.0909 47.2513 54.4993 47.5725 51.5247 50.1211Z" fill="#263238"/>
<path d="M52.2227 50.2538C50.5423 51.4488 49.1727 53.0291 48.2287 54.8623C47.2544 56.8061 46.5092 58.8564 46.0082 60.9721C45.7452 62.2335 45.3399 63.461 44.8002 64.631C44.2602 65.6072 43.5509 66.4796 42.7054 67.2076C41.0226 68.7298 39.0186 69.8889 37.5034 71.5926C35.9882 73.2964 34.9618 75.3772 35.5343 77.5837C35.8416 78.7847 36.6376 79.7623 37.1264 80.8864C37.6151 82.0106 37.7827 83.2605 36.868 84.1403C36.0929 84.8945 34.9687 85.2436 34.075 85.8581C33.2049 86.4642 32.4386 87.2069 31.8056 88.0576C31.1722 88.9031 30.721 89.8709 30.4806 90.8997C30.2402 91.9285 30.2159 92.996 30.4091 94.0347C31.3238 98.8736 35.8625 101.625 40.0521 103.356L41.8117 104.055C41.9024 104.09 41.9793 103.957 41.8885 103.915C37.6989 102.037 32.8111 99.8232 31.1912 95.1239C30.8227 94.1005 30.694 93.0061 30.8151 91.925C30.9361 90.844 31.3037 89.8051 31.8894 88.8885C32.4845 87.9806 33.2392 87.1881 34.1169 86.5493C34.9617 85.9279 35.9323 85.5438 36.7982 84.9503C37.2236 84.6781 37.5696 84.2985 37.8013 83.8498C38.033 83.401 38.1422 82.8991 38.1179 82.3947C37.9832 81.2861 37.5858 80.2256 36.9588 79.3014C36.3063 78.3423 35.9605 77.2075 35.9672 76.0475C36.0931 74.9185 36.5226 73.8446 37.2101 72.9403C38.5229 71.0899 40.457 69.8749 42.1957 68.4714C43.9729 67.1635 45.2962 65.3323 45.9803 63.2345C46.3015 62.1242 46.497 60.9861 46.7763 59.8689C47.0295 58.8286 47.3396 57.8029 47.705 56.7965C48.3931 54.7722 49.5156 52.9228 50.9938 51.378C51.3846 50.9833 51.8151 50.6299 52.2786 50.3237C52.3274 50.3027 52.2786 50.2189 52.2227 50.2538Z" fill="#263238"/>
<path d="M78.1423 94.4605C77.9492 93.637 77.58 92.8652 77.06 92.1982C76.5223 91.4999 75.866 90.9343 75.2724 90.3059C74.6569 89.7438 74.2158 89.0167 74.0016 88.2111C73.8971 87.2268 74.1445 86.2374 74.6999 85.4181C75.2315 84.5506 75.6983 83.6451 76.0964 82.7088C76.6234 81.2868 76.8102 79.7611 76.6416 78.2539C76.4731 76.7467 75.9539 75.3 75.1258 74.0295C74.5951 73.1636 73.9946 72.3397 73.457 71.4738C72.8594 70.5324 72.3898 69.5157 72.0604 68.4504C71.3622 66.1112 71.2086 63.6464 70.6639 61.2723C70.0629 58.8427 69.2184 56.4799 68.1432 54.2199C68.1432 54.164 68.0315 54.2199 68.0594 54.2757C69.0142 56.316 69.7536 58.4502 70.2659 60.6438C70.7617 62.7386 70.9642 64.8334 71.3203 66.9282C71.4686 67.9619 71.7237 68.9775 72.0814 69.9586C72.4492 70.8643 72.9004 71.7339 73.429 72.5561C74.4764 74.2669 75.5657 75.9636 75.852 77.9886C76.1425 79.9865 75.7929 82.0251 74.8535 83.8121C74.0365 85.3552 72.8914 87.059 73.6036 88.8675C74.2111 90.4036 75.6984 91.3184 76.641 92.5892C77.1499 93.2842 77.5063 94.0789 77.6868 94.9212C77.8673 95.7635 77.8678 96.6345 77.6884 97.477C76.8575 101.827 72.4934 103.985 68.4085 104.201C68.3862 104.207 68.3664 104.22 68.3524 104.239C68.3383 104.257 68.3306 104.279 68.3306 104.302C68.3306 104.326 68.3383 104.348 68.3524 104.366C68.3664 104.385 68.3862 104.398 68.4085 104.404C71.9557 104.362 75.8171 102.798 77.4859 99.474C78.2713 97.927 78.5029 96.1576 78.1423 94.4605Z" fill="#263238"/>
<path d="M68.8274 82.8066C78.603 91.6675 91.3602 101.003 98.0426 99.1528C104.09 97.484 112.455 89.7822 121.595 81.4659C123.41 79.818 109.829 66.3766 108.077 68.3247C104.585 72.1721 97.6027 81.8779 94.8655 83.065C93.6854 83.5747 79.7622 77.6395 70.6848 74.7976C59.7221 71.3412 64.9451 79.2804 68.8274 82.8066Z" fill="#EB9481"/>
<path d="M128.941 78.3029C125.757 80.6421 120.562 83.7912 118.208 84.1613C115.995 84.5104 106.576 70.245 107.986 68.4295C112.364 62.7666 121.134 58.6539 125.163 58.8215C129.192 58.9891 132.237 75.8939 128.941 78.3029Z" fill="#EB9481"/>
<path d="M25.298 204.171C21.1823 204.129 17.1372 203.096 13.5044 201.161L13.8396 200.547C18.0291 202.816 24.7184 204.569 30.898 202.642C33.0233 201.982 34.989 200.89 36.6714 199.433C38.3538 197.977 39.7165 196.188 40.6737 194.179C44.9051 185.946 54.3875 151.899 60.0504 131.559C63.2554 120.045 64.8125 114.487 65.1686 113.984C66.3486 112.294 129.82 56.4124 131.105 55.9306C132.39 55.4488 319.014 6.01204 326.953 3.91028L327.134 4.60854C325.193 5.12525 133.102 56.0004 131.35 56.6079C129.611 57.5226 67.0469 112.636 65.7132 114.41C65.385 114.954 63.2135 122.747 60.6997 131.769C54.6249 153.442 45.5475 186.219 41.2462 194.514C38.949 198.983 35.5275 201.951 31.0726 203.326C29.2006 203.894 27.2542 204.179 25.298 204.171Z" fill="#263238"/>
<path d="M118.913 59.8338C118.117 61.761 120.855 61.6004 120.855 61.6004C120.855 61.6004 116.965 62.7875 116.909 65.0917C116.854 67.396 120.163 67.005 120.401 66.991C120.191 67.0538 116.651 68.2339 116.84 70.5661C117.028 72.8983 120.289 72.1023 120.498 72.0464C120.324 72.1651 118.048 73.813 118.585 75.5377C119.521 78.5262 125.463 74.4763 127.928 75.0559C127.928 75.0559 128.689 78.3587 128.703 78.4844C128.703 78.4844 133.172 75.7402 133.765 72.3676C133.86 71.8795 133.785 71.3738 133.552 70.9343C133.32 70.4948 132.944 70.1481 132.488 69.9516C132.488 69.9516 134.464 68.9531 134.38 67.1097C134.331 66.1671 132.781 65.4059 132.781 65.4059C133.221 65.1582 133.585 64.7937 133.831 64.3527C134.077 63.9116 134.197 63.411 134.177 62.9062C134.038 61.6004 132.501 61.0418 132.501 61.0418C132.501 61.0418 133.612 59.5126 133.039 58.2488C131.866 55.6443 120.638 55.6443 118.913 59.8338Z" fill="#EB9481"/>
<path d="M132.83 65.3781C132.872 65.3781 132.879 65.3083 132.83 65.3013C128.587 64.3092 124.129 64.8664 120.261 66.8724C120.129 66.9422 120.087 67.1447 120.261 67.0679C122.943 65.832 129.22 65.0779 132.83 65.3781Z" fill="#263238"/>
<path d="M120.261 72.2769C124.06 70.3497 128.089 69.833 132.306 69.9028C132.362 69.9028 132.362 69.826 132.306 69.812C130.253 69.2185 127.558 69.4559 125.477 69.812C123.539 70.1071 121.713 70.9092 120.184 72.1372C120.149 72.1931 120.198 72.3188 120.261 72.2769Z" fill="#263238"/>
<path d="M120.855 61.5796C120.124 61.8736 119.423 62.236 118.76 62.6619C118.108 63.0465 117.569 63.5955 117.196 64.2539C117.039 64.5651 117.004 64.9238 117.098 65.2594C117.202 65.5967 117.387 65.9035 117.636 66.1532C117.909 66.3753 118.224 66.5383 118.563 66.6321C118.902 66.7258 119.257 66.7482 119.605 66.6978L121.309 66.5093L119.773 67.2774C119.086 67.6105 118.458 68.054 117.915 68.5901C117.649 68.8238 117.435 69.1115 117.288 69.4341C117.141 69.7568 117.065 70.107 117.063 70.4614C117.058 70.7921 117.17 71.114 117.38 71.3697C117.589 71.6255 117.883 71.7985 118.208 71.858C118.931 71.993 119.676 71.9425 120.373 71.7113L122.321 71.1318L120.68 72.3118C120.218 72.6355 119.802 73.0207 119.444 73.457C119.078 73.8424 118.834 74.3288 118.746 74.8535C118.72 75.0916 118.762 75.3322 118.865 75.5481C118.969 75.764 119.131 75.9467 119.333 76.0754C119.83 76.296 120.38 76.3711 120.918 76.2919C122.086 76.1391 123.239 75.8915 124.367 75.5518C124.94 75.4051 125.519 75.2515 126.106 75.1258C126.686 74.9703 127.293 74.9394 127.886 75.035C127.296 75.0032 126.705 75.0886 126.148 75.2864C125.575 75.454 125.017 75.6495 124.451 75.838C123.32 76.2647 122.151 76.5804 120.96 76.7807C120.317 76.9051 119.651 76.8371 119.046 76.5852C118.735 76.4105 118.48 76.1496 118.313 75.8338C118.145 75.518 118.073 75.1606 118.104 74.8046C118.186 74.1465 118.461 73.5273 118.893 73.0241C119.286 72.5363 119.742 72.102 120.247 71.7323L120.555 72.3328C119.732 72.6209 118.849 72.6907 117.992 72.5353C117.52 72.4315 117.098 72.1675 116.798 71.7881C116.513 71.4085 116.352 70.95 116.337 70.4754C116.338 70.0272 116.435 69.5844 116.62 69.1763C116.806 68.7682 117.076 68.4042 117.412 68.1083C118.019 67.5339 118.714 67.0622 119.472 66.7118L119.64 67.2913C119.208 67.3428 118.77 67.2981 118.357 67.1605C117.944 67.0229 117.567 66.7957 117.252 66.4953C116.955 66.177 116.746 65.7873 116.644 65.3642C116.543 64.932 116.603 64.4778 116.812 64.0863C117.252 63.3924 117.875 62.834 118.613 62.4734C119.324 62.0916 120.076 61.7918 120.855 61.5796Z" fill="#263238"/>
<path d="M109.145 67.0679C109.145 67.0679 118.704 51.5945 122.712 57.6903C123.906 59.4988 126.643 68.3597 124.877 68.9392C122.593 69.6934 120.764 66.2091 119.989 63.842C119.989 63.842 117.782 69.1627 113.621 68.7298C112.014 68.5543 110.477 67.9833 109.145 67.0679Z" fill="#EB9481"/>
<path d="M122.356 57.2015C122.908 57.8561 123.362 58.5877 123.704 59.3731C124.059 60.152 124.367 60.9519 124.625 61.7681C125.153 63.4009 125.541 65.0758 125.784 66.7746C125.847 67.2263 125.847 67.6845 125.784 68.1362C125.741 68.3871 125.644 68.6255 125.498 68.8345C125.422 68.9572 125.322 69.0639 125.205 69.1487C125.09 69.2327 124.963 69.2986 124.828 69.3442C124.336 69.4952 123.807 69.468 123.334 69.2674C122.905 69.0729 122.513 68.806 122.174 68.4784C121.551 67.8473 121.039 67.1155 120.659 66.3138C120.278 65.5368 119.951 64.7342 119.682 63.9117H120.24C119.968 64.51 119.638 65.0806 119.256 65.6155C118.886 66.1527 118.46 66.6489 117.985 67.0958C117.505 67.5369 116.964 67.9061 116.379 68.1921C115.798 68.4782 115.167 68.6489 114.521 68.6948C115.143 68.5612 115.737 68.3252 116.281 67.9966C116.812 67.6679 117.296 67.2686 117.72 66.8095C118.147 66.3858 118.53 65.9203 118.865 65.42C119.191 64.8947 119.469 64.3408 119.696 63.7651L119.968 63.0669L120.254 63.7651C120.539 64.5473 120.875 65.31 121.26 66.0484C121.618 66.7725 122.089 67.4348 122.656 68.0105C122.891 68.2834 123.193 68.491 123.532 68.6133C123.871 68.7356 124.235 68.7685 124.59 68.7088C125.149 68.5691 125.177 67.6404 125.107 66.8444C125.037 66.0484 124.884 65.1965 124.73 64.3726C124.576 63.5487 124.402 62.7177 124.185 61.9008C123.824 60.2487 123.207 58.6632 122.356 57.2015Z" fill="#263238"/>
<path d="M84.992 96.4994L90.236 81.3263C90.236 81.3263 77.395 75.4539 70.0423 73.8758C62.6897 72.2978 60.9091 75.398 67.4657 82.1781C74.0224 88.9582 84.992 96.4994 84.992 96.4994Z" fill="#35B6FA"/>
<path d="M87.5685 80.9632C86.6328 82.9253 85.8717 84.9852 85.1106 87.0241C84.3495 89.063 83.6582 91.0879 83.0647 93.1618C83.0647 93.1967 83.1206 93.2246 83.1345 93.1618C83.9724 91.1508 84.7475 89.1119 85.4946 87.066C86.2418 85.0201 87.0168 83.03 87.6453 80.9702C87.6592 80.9492 87.5894 80.9213 87.5685 80.9632Z" fill="#263238"/>
<path opacity="0.1" d="M87.6944 88.7138L84.9921 96.4994C84.9921 96.4994 74.0434 88.9023 67.4658 82.1502C65.1965 79.825 63.9326 77.9606 63.5486 76.5152L87.6944 88.7138Z" fill="black"/>
<path d="M77.8561 117.971L40.9321 111.568C40.9321 111.568 49.8698 85.4042 57.6903 76.0266C61.5168 71.425 67.1518 73.2964 69.456 75.2934C70.1892 75.9288 77.3882 85.872 78.1005 90.0057C78.7149 93.6646 76.2221 97.5679 76.2221 97.5679L77.8561 117.971Z" fill="#35B6FA"/>
<path d="M74.4483 97.5889C73.0682 97.4459 71.681 97.383 70.2937 97.4003C69.5954 97.4003 68.8972 97.4562 68.1989 97.526L67.2074 97.6377C66.8443 97.6866 66.5091 97.7844 66.1251 97.8193C66.0901 97.8193 66.0901 97.8891 66.1251 97.8821C66.4672 97.8821 66.8233 97.8821 67.1585 97.8821H68.1919L70.2867 97.8332C71.6832 97.7844 73.0797 97.7495 74.4343 97.7425C74.5251 97.7006 74.5181 97.5958 74.4483 97.5889Z" fill="#263238"/>
<path d="M53.5146 78.3656C39.4168 90.236 25.9543 116.679 31.7289 119.954C37.0008 122.943 54.8064 122.747 62.2219 121.825C64.4005 121.553 61.9775 104.641 59.6453 104.927C56.8523 105.27 49.7091 105.486 49.4298 105.437C48.8293 105.325 57.7461 86.7797 60.6019 79.9577C64.5681 70.4544 58.8144 73.9107 53.5146 78.3656Z" fill="#EB9481"/>
<path d="M81.9198 103.608C82.1385 104.094 82.2028 104.636 82.1042 105.161C82.0056 105.685 81.7487 106.166 81.3682 106.54C82.1437 107.025 82.7244 107.766 83.0091 108.635C83.442 110.171 81.2216 111.526 81.2216 111.526C81.9244 112.186 82.4113 113.042 82.6181 113.984C82.8834 115.499 80.8375 117.182 80.8375 117.182C81.1423 118.143 81.0903 119.182 80.6909 120.108C79.5248 122.538 75.44 122.991 72.8425 123.313C70.245 123.634 62.592 122.098 61.1047 121.958L58.9192 105.318C58.9192 105.318 70.1542 100.584 73.2544 100.64C75.859 100.668 81.0121 101.778 81.9198 103.608Z" fill="#EB9481"/>
<path d="M81.2215 106.289C78.4285 105.591 75.6354 105.702 72.7935 105.682C72.7805 105.682 72.7681 105.687 72.7589 105.696C72.7498 105.705 72.7446 105.717 72.7446 105.73C72.7446 105.743 72.7498 105.756 72.7589 105.765C72.7681 105.774 72.7805 105.779 72.7935 105.779C75.5865 105.779 78.3796 106.317 81.1726 106.422C81.1902 106.428 81.2097 106.427 81.2267 106.42C81.2437 106.412 81.2569 106.397 81.2634 106.38C81.2699 106.362 81.2691 106.343 81.2612 106.326C81.2534 106.309 81.2391 106.295 81.2215 106.289Z" fill="#263238"/>
<path d="M81.1587 111.289C80.5141 111.188 79.8593 111.172 79.2105 111.24C78.5123 111.24 77.814 111.31 77.1157 111.358C75.7192 111.463 74.3576 111.596 72.989 111.77C72.9262 111.77 72.9262 111.875 72.989 111.868C74.3855 111.77 75.7402 111.687 77.1157 111.645L79.2105 111.596C79.8612 111.639 80.5148 111.609 81.1587 111.505C81.1874 111.505 81.2149 111.494 81.2352 111.473C81.2555 111.453 81.2669 111.426 81.2669 111.397C81.2669 111.368 81.2555 111.341 81.2352 111.32C81.2149 111.3 81.1874 111.289 81.1587 111.289Z" fill="#263238"/>
<path d="M80.7676 117.161C80.1828 117.077 79.5882 117.091 79.008 117.203L77.1297 117.377C75.8728 117.482 74.616 117.587 73.3521 117.65C73.3391 117.65 73.3267 117.655 73.3175 117.664C73.3084 117.673 73.3032 117.686 73.3032 117.699C73.3032 117.712 73.3084 117.724 73.3175 117.733C73.3267 117.742 73.3391 117.748 73.3521 117.748C74.6369 117.692 75.9147 117.65 77.1925 117.58L79.0778 117.468C79.6535 117.489 80.2282 117.406 80.7746 117.224L80.7676 117.161Z" fill="#263238"/>
<path d="M38.3694 93.3853L53.1306 99.7255C53.1306 99.7255 59.8967 87.3383 62.0055 80.1183C64.1142 72.8983 61.1396 70.8455 53.9336 76.9273C46.7275 83.0091 38.3694 93.3853 38.3694 93.3853Z" fill="#35B6FA"/>
<path d="M53.6542 96.5623C51.762 95.494 49.7649 94.5793 47.7889 93.6785C45.8128 92.7778 43.8367 91.9399 41.8118 91.1997C41.8025 91.1997 41.7936 91.2034 41.7871 91.2099C41.7805 91.2165 41.7769 91.2254 41.7769 91.2346C41.7769 91.2439 41.7805 91.2528 41.7871 91.2593C41.7936 91.2659 41.8025 91.2695 41.8118 91.2695C43.7529 92.2471 45.729 93.1688 47.719 94.0626C49.7091 94.9563 51.6433 95.8641 53.6473 96.6392C53.6612 96.6531 53.6892 96.5903 53.6542 96.5623Z" fill="#263238"/>
<path d="M60.0712 85.5439C59.1216 88.0087 58.0462 90.4317 56.9151 92.7848C56.3425 93.9719 55.7559 95.1519 55.1415 96.318C54.527 97.4841 53.8986 98.6432 53.1933 99.7604V99.8233H53.1375C52.7814 99.6487 52.4392 99.4741 52.0901 99.2926L53.1933 99.6836L53.0956 99.7185L54.7714 96.1435L56.4821 92.5893C57.0617 91.4093 57.6412 90.2292 58.2487 89.0631C58.8562 87.897 59.4218 86.696 60.0712 85.5439Z" fill="#263238"/>
<path d="M57.2781 91.479C57.5708 90.8399 57.9189 90.2278 58.3185 89.6495C58.7095 89.0674 59.1536 88.5227 59.6452 88.0226C59.3602 88.6678 59.0117 89.2829 58.6048 89.859C58.2135 90.4388 57.7694 90.9811 57.2781 91.479Z" fill="#263238"/>
<path d="M60.4276 75.5029C60.7697 76.0685 65.0291 79.064 67.7803 77.9957C68.681 77.6466 66.9912 72.668 66.9912 72.668L66.9493 72.27L66.3837 66.7258L59.0171 64.8614L57.9697 64.638C57.9697 64.638 58.2281 66.1462 58.5633 68.0176C58.5633 68.1083 58.5982 68.1921 58.6121 68.2899C58.6261 68.3876 58.6121 68.4924 58.661 68.5901C58.7099 68.8764 58.7588 69.1627 58.8146 69.442C58.8705 69.7213 58.8914 69.868 58.9473 70.0984C59.0032 70.3288 59.0381 70.5453 59.0869 70.7966C59.4239 72.3946 59.8719 73.9672 60.4276 75.5029Z" fill="#EB9481"/>
<path d="M58.5629 68.0176C59.5669 69.2924 60.8366 70.3331 62.2837 71.0675C63.7307 71.8019 65.3203 72.2122 66.942 72.27L66.3764 66.7258L59.0098 64.8614L57.9624 64.638C57.9624 64.638 58.2277 66.1183 58.5629 68.0176Z" fill="#263238"/>
<path d="M71.453 55.7631C75.5937 64.631 70.7547 68.1153 68.8345 69.0301C67.0959 69.84 61.0838 72.3677 56.0494 63.9747C51.0149 55.5816 53.8359 50.8544 57.7113 48.8015C61.5866 46.7486 67.3193 46.8952 71.453 55.7631Z" fill="#EB9481"/>
<path d="M67.7941 53.8289C67.5776 53.8987 67.3612 53.9336 67.1377 53.9825C66.911 54.0576 66.6662 54.0576 66.4395 53.9825C66.3725 53.9463 66.3192 53.8892 66.2876 53.8198C66.2561 53.7505 66.2481 53.6728 66.2649 53.5985C66.3202 53.4524 66.4146 53.3243 66.5377 53.2283C66.6609 53.1322 66.808 53.0719 66.9632 53.0538C67.2636 52.9608 67.5882 52.9857 67.8709 53.1237C67.9444 53.1545 68.006 53.2083 68.0465 53.277C68.0869 53.3457 68.1041 53.4257 68.0955 53.5049C68.0869 53.5842 68.0529 53.6585 67.9985 53.7169C67.9442 53.7753 67.8725 53.8146 67.7941 53.8289Z" fill="#263238"/>
<path d="M63.0667 58.3047C63.2805 58.2348 63.4903 58.1532 63.6951 58.0604C63.9298 58.0052 64.139 57.8724 64.2886 57.6833C64.3259 57.6158 64.3393 57.5377 64.3266 57.4617C64.3139 57.3856 64.2759 57.3161 64.2188 57.2643C64.0914 57.1784 63.9434 57.1279 63.79 57.1181C63.6366 57.1083 63.4833 57.1395 63.346 57.2085C63.0497 57.3051 62.8005 57.5094 62.6477 57.7811C62.6165 57.8442 62.6039 57.9149 62.6115 57.9849C62.6191 58.0549 62.6465 58.1213 62.6905 58.1763C62.7345 58.2313 62.7932 58.2726 62.8599 58.2953C62.9265 58.3181 62.9982 58.3213 63.0667 58.3047Z" fill="#263238"/>
<path d="M64.9591 58.8075C64.9591 58.8075 64.9242 58.8564 64.9591 58.8843C65.2733 59.4708 65.5387 60.197 65.0918 60.6649C65.0918 60.6649 65.0918 60.7068 65.0918 60.6649C65.7063 60.2738 65.3501 59.3172 64.9591 58.8075Z" fill="#263238"/>
<path d="M64.1141 58.4373C63.1226 58.8423 64.0024 60.8044 64.9241 60.4274C65.8458 60.0503 64.9521 58.1092 64.1141 58.4373Z" fill="#263238"/>
<path d="M63.7791 58.7237C63.6534 58.9122 63.5766 59.1845 63.3811 59.2962C63.1855 59.4079 62.8783 59.2962 62.6339 59.1775C62.6339 59.1775 62.599 59.1775 62.6339 59.2124C62.8015 59.5965 63.1157 59.9107 63.5486 59.792C63.7285 59.7093 63.8715 59.563 63.9501 59.3813C64.0287 59.1996 64.0375 58.9952 63.9746 58.8074C63.9327 58.7236 63.8279 58.6538 63.7791 58.7237Z" fill="#263238"/>
<path d="M68.2061 57.0409C68.2061 57.0409 68.2619 57.0409 68.2759 57.0409C68.5203 57.6554 68.9113 58.3257 69.5537 58.2838V58.3187C68.8485 58.5491 68.3387 57.6554 68.2061 57.0409Z" fill="#263238"/>
<path d="M68.4713 56.1541C69.421 55.6514 70.3566 57.5506 69.4838 58.0534C68.611 58.5561 67.6753 56.5801 68.4713 56.1541Z" fill="#263238"/>
<path d="M68.932 56.0842C69.1345 56.0842 69.3789 56.2308 69.5674 56.154C69.756 56.0772 69.8398 55.7769 69.8816 55.5116C69.8816 55.5116 69.8816 55.5116 69.9166 55.5116C70.1051 55.8747 70.1749 56.3216 69.8537 56.559C69.5325 56.7964 69.1555 56.559 68.9041 56.2587C68.8482 56.2029 68.8552 56.0772 68.932 56.0842Z" fill="#263238"/>
<path d="M67.0537 63.7791C67.261 63.9111 67.5084 63.9656 67.752 63.9327C67.9802 63.8384 68.1852 63.6954 68.3525 63.5137C68.3525 63.5137 68.4013 63.5137 68.3944 63.5137C68.3531 63.6708 68.2704 63.8139 68.1549 63.9281C68.0395 64.0423 67.8955 64.1235 67.738 64.1631C67.5993 64.1804 67.4587 64.1558 67.3342 64.0923C67.2097 64.0288 67.1071 63.9294 67.0397 63.807C66.9839 63.793 67.0258 63.7651 67.0537 63.7791Z" fill="#263238"/>
<path d="M68.59 60.4204C68.59 60.4204 69.1276 61.2653 69.3301 61.6912C69.3301 61.7331 69.2533 61.796 69.1137 61.8728C68.7791 62.11 68.3854 62.2499 67.9762 62.277C67.5671 62.3041 67.1584 62.2174 66.7954 62.0264C66.7466 62.0264 66.7955 61.9356 66.8373 61.9426C67.5527 62.0628 68.2878 61.9476 68.9321 61.6144C68.9321 61.4818 67.9476 60.2179 68.0174 60.1621C68.362 60.0394 68.7212 59.9619 69.0857 59.9316C68.0034 58.1371 66.6488 56.5311 65.5944 54.7296C65.587 54.7165 65.5845 54.7012 65.5873 54.6864C65.5902 54.6716 65.5984 54.6584 65.6102 54.649C65.6221 54.6397 65.6368 54.635 65.6519 54.6357C65.6669 54.6364 65.6813 54.6424 65.6922 54.6528C67.2011 56.3311 68.5391 58.1556 69.6862 60.0992C69.8049 60.3296 68.7785 60.4134 68.59 60.4204Z" fill="#263238"/>
<path d="M68.7715 61.9287C68.6707 62.3465 68.4639 62.7313 68.171 63.0459C68.0093 63.2119 67.799 63.3219 67.5705 63.3601C67.0677 63.4439 66.8722 63.0389 66.7954 62.6619C66.7573 62.4524 66.7432 62.2392 66.7535 62.0265C67.4195 62.2093 68.1263 62.1751 68.7715 61.9287Z" fill="#263238"/>
<path d="M68.171 63.011C68.0093 63.1769 67.799 63.287 67.5705 63.3252C67.0677 63.409 66.8722 63.004 66.7954 62.6269C67.0343 62.5256 67.3005 62.5085 67.5504 62.5783C67.8003 62.648 68.0191 62.8006 68.171 63.011Z" fill="#FF9CBD"/>
<path d="M57.0199 64.4284C59.1147 63.2204 56.3217 56.2308 55.9446 55.351C56.196 55.8817 57.5506 58.6608 57.8159 58.6608C58.0486 58.5393 58.2569 58.376 58.4304 58.179C58.2598 57.8485 58.115 57.5054 57.9975 57.1525C57.9347 56.9919 58.2279 57.4528 58.6189 58.0044L58.9611 57.6832C58.5723 56.9945 58.2764 56.2572 58.0813 55.4907C58.0115 55.1974 58.6888 56.3286 59.4778 57.2154C61.0462 55.709 62.7768 54.3811 64.6379 53.2563C65.1686 52.956 65.6364 52.7186 66.0345 52.558C65.6085 51.741 65.0709 50.9311 65.2245 51.0847C65.6417 51.4891 66.0182 51.9334 66.3487 52.4114C66.5791 52.3066 66.7956 52.2159 66.9911 52.139C66.4464 50.966 64.9522 49.4228 65.2803 49.6044C66.271 50.1849 67.1448 50.945 67.8569 51.8458C68.7158 51.5944 69.009 51.6293 68.9252 51.4198C68.3413 50.2671 67.5346 49.2416 66.5518 48.4027C65.569 47.5637 64.4296 46.9279 63.1995 46.532C59.1566 45.3939 53.1516 48.0263 52.1531 53.5146C52.1531 53.5146 49.6044 57.39 50.589 60.2319C51.5735 63.0738 55.791 65.1267 57.0199 64.4284Z" fill="#263238"/>
<path d="M57.774 63.9745C57.774 63.9745 54.7226 61.8379 53.6822 63.0249C52.6418 64.212 55.6652 67.822 57.4039 67.8359C57.6269 67.853 57.8511 67.8247 58.0629 67.7527C58.2747 67.6808 58.4697 67.5666 58.6361 67.4172C58.8025 67.2677 58.9369 67.0861 59.0312 66.8832C59.1254 66.6803 59.1776 66.4605 59.1845 66.2369L57.774 63.9745Z" fill="#EB9481"/>
<path d="M54.5759 64.0235V64.0654C55.1564 64.1318 55.7166 64.319 56.2204 64.6148C56.7243 64.9106 57.1607 65.3086 57.5016 65.7831C57.3995 65.694 57.2788 65.6287 57.1483 65.5919C57.0178 65.5552 56.8807 65.5479 56.7471 65.5706C56.6134 65.5934 56.4865 65.6455 56.3755 65.7233C56.2645 65.8011 56.1721 65.9026 56.1051 66.0205C56.1051 66.0205 56.1051 66.0833 56.154 66.0694C56.319 65.9383 56.521 65.8624 56.7315 65.8524C56.942 65.8423 57.1503 65.8987 57.3271 66.0135C57.6249 66.2146 57.899 66.4488 58.144 66.7118C58.2278 66.7886 58.3814 66.6769 58.3046 66.5791C57.8508 65.1616 56.0911 63.6394 54.5759 64.0235Z" fill="#263238"/>
<path d="M67.0399 72.6678L66.3975 77.4439L59.6104 73.3242L58.5281 75.4748C58.5281 75.4748 66.0204 82.8554 65.9506 82.4574L66.7885 78.2679L70.0284 80.216L68.1641 73.7362L67.0399 72.6678Z" fill="#EBEBEB"/>
<path d="M69.2883 76.9553C68.9461 75.8939 68.6249 74.8186 68.2339 73.7782C68.2339 73.7363 68.1571 73.7363 68.1571 73.7782C68.206 74.8745 69.5536 78.9174 69.791 79.9019C69.6514 79.8181 66.8165 78.2191 66.8025 78.261C66.5651 78.9593 65.9436 82.0107 65.9157 82.276C64.7356 81.1029 59.8059 76.5433 58.4862 75.4819C58.4784 75.4782 58.4696 75.477 58.4611 75.4784C58.4525 75.4799 58.4447 75.484 58.4385 75.4901C58.4324 75.4962 58.4283 75.5041 58.4269 75.5127C58.4254 75.5212 58.4266 75.53 58.4304 75.5378C59.5406 76.8156 65.9436 82.8556 66.0065 82.8206C66.3697 81.3606 66.6587 79.883 66.8723 78.3937C67.9571 79.1681 69.0932 79.8679 70.2728 80.4885C70.0057 79.2946 69.6771 78.1153 69.2883 76.9553Z" fill="#263238"/>
<path d="M78.3656 47.9635C77.3399 46.4397 76.7861 44.6472 76.7736 42.8104C76.7736 36.2886 83.9307 31.0028 92.7637 31.0028C101.597 31.0028 108.747 36.2886 108.747 42.8104C108.747 49.3321 101.59 54.6249 92.7637 54.6249C88.8389 54.6867 84.9892 53.5464 81.7312 51.3571L76.2219 52.7536L78.3656 47.9635Z" fill="#35B6FA"/>
<path d="M98.5244 42.8244C98.523 43.1533 98.6193 43.4753 98.8011 43.7495C98.9829 44.0238 99.2419 44.2378 99.5455 44.3647C99.849 44.4915 100.183 44.5255 100.506 44.4621C100.829 44.3988 101.126 44.2411 101.359 44.0089C101.592 43.7768 101.751 43.4807 101.816 43.1581C101.88 42.8356 101.848 42.5011 101.722 42.197C101.597 41.8929 101.384 41.633 101.11 41.4501C100.837 41.2671 100.515 41.1695 100.186 41.1695C99.7473 41.1713 99.3267 41.346 99.0156 41.6558C98.7046 41.9655 98.5281 42.3854 98.5244 42.8244Z" fill="#263238"/>
<path d="M92.7777 44.4792C93.6916 44.4792 94.4325 43.7383 94.4325 42.8244C94.4325 41.9104 93.6916 41.1695 92.7777 41.1695C91.8637 41.1695 91.1228 41.9104 91.1228 42.8244C91.1228 43.7383 91.8637 44.4792 92.7777 44.4792Z" fill="#263238"/>
<path d="M85.3622 44.4792C86.2761 44.4792 87.017 43.7383 87.017 42.8244C87.017 41.9104 86.2761 41.1695 85.3622 41.1695C84.4482 41.1695 83.7073 41.9104 83.7073 42.8244C83.7073 43.7383 84.4482 44.4792 85.3622 44.4792Z" fill="#263238"/>
<path d="M185.583 238.805L129.241 248.992C98.9433 254.062 62.7735 255.472 10.3691 250.102L67.0049 240.634C112.818 244.419 155.286 243.867 185.583 238.805Z" fill="#35B6FA"/>
<path d="M189.096 257.211L128.64 267.161C149.183 263.725 170.634 257.818 185.814 250.347C270.024 209.631 305.433 68.6109 305.914 67.2703H373.729C373.227 68.6109 365.238 91.7093 331.422 156.117C310.509 194.395 279.597 222.591 242.443 240.878C227.249 248.364 209.638 253.775 189.096 257.211Z" fill="#35B6FA"/>
<g opacity="0.3">
<path opacity="0.3" d="M189.096 257.211L128.64 267.161C149.183 263.725 170.634 257.818 185.814 250.347C270.024 209.631 305.433 68.6109 305.914 67.2703H373.729C373.227 68.6109 365.238 91.7093 331.422 156.117C310.509 194.395 279.597 222.591 242.443 240.878C227.249 248.364 209.638 253.775 189.096 257.211Z" fill="white"/>
</g>
<path d="M290.169 60.1969L305.921 67.2703C305.412 68.6109 272.056 207.229 185.821 250.347C133.249 276.629 88.288 275.051 10.9419 268.662L10.3972 250.102C85.5369 256.31 143.192 251.764 179.145 232.946C260.248 190.478 290.05 60.5321 290.169 60.1969Z" fill="#35B6FA"/>
<g opacity="0.1">
<path opacity="0.1" d="M290.169 60.1968L305.921 67.2702C305.412 68.6109 272.056 207.229 185.821 250.347C133.249 276.629 88.288 275.051 10.9419 268.662L10.3972 250.102C85.5369 256.31 143.192 251.764 179.145 232.946C260.248 190.478 290.05 60.532 290.169 60.1968Z" fill="black"/>
</g>
<path d="M290.168 60.1969H363.241L373.715 67.2703H305.921L290.168 60.1969Z" fill="#35B6FA"/>
<path d="M345.82 14.7751L393.337 75.0559L281.357 74.7556L345.82 14.7751Z" fill="#35B6FA"/>
<g opacity="0.3">
<path opacity="0.3" d="M345.82 14.7751L393.337 75.0559L281.357 74.7556L345.82 14.7751Z" fill="white"/>
</g>
<path d="M281.357 74.7556L262.099 59.9805L326.562 0L345.82 14.7752L281.357 74.7556Z" fill="#35B6FA"/>
<g opacity="0.1">
<path opacity="0.1" d="M281.357 74.7556L262.099 59.9805L326.562 0L345.82 14.7752L281.357 74.7556Z" fill="black"/>
</g>
<path d="M312.017 270.443C313.414 270.897 353.214 270.38 354.702 269.395C355.274 269.032 355.54 263.23 355.658 256.212V255.989C355.658 254.543 351.985 230.286 351.985 230.286L325.368 230.551L329.983 256.038V256.471C329.983 256.471 314.838 263.453 313.302 264.738C311.766 266.023 310.621 270.01 312.017 270.443Z" fill="#AD6359"/>
<path d="M312.01 270.443C312.708 270.673 323.538 270.645 334.103 270.443C336.198 270.401 338.341 270.352 340.387 270.296C347.922 270.087 354.143 269.779 354.723 269.402C355.302 269.025 355.56 263.397 355.672 256.513C355.672 256.415 355.672 256.317 355.672 256.219C355.672 256.122 355.672 256.066 355.672 255.996L330.025 256.045V256.478C330.025 256.478 314.88 263.46 313.351 264.738C311.822 266.016 310.62 270.01 312.01 270.443Z" fill="#A6A6A6"/>
<path d="M312.45 268.893C319.153 268.641 346.218 268.264 352.865 268.523C352.921 268.523 352.921 268.564 352.865 268.564C346.225 268.962 319.153 269.123 312.45 269.004C312.282 269.004 312.282 268.9 312.45 268.893Z" fill="#263238"/>
<path d="M327.127 256.149C329.76 255.619 332.993 255.982 335.039 257.839C335.115 257.909 335.039 258.021 334.927 257.993C332.392 257.215 329.783 256.71 327.141 256.485C327.097 256.486 327.053 256.471 327.021 256.44C326.988 256.41 326.969 256.368 326.967 256.324C326.965 256.28 326.981 256.236 327.011 256.203C327.041 256.171 327.083 256.151 327.127 256.149Z" fill="#263238"/>
<path d="M325.242 257.323C327.875 256.792 331.107 257.155 333.146 259.012C333.223 259.082 333.146 259.194 333.035 259.166C330.502 258.389 327.895 257.881 325.256 257.651C325.218 257.645 325.183 257.626 325.157 257.597C325.131 257.568 325.117 257.531 325.115 257.492C325.113 257.454 325.125 257.416 325.148 257.385C325.171 257.354 325.205 257.332 325.242 257.323Z" fill="#263238"/>
<path d="M323.35 258.496C325.982 257.965 329.215 258.328 331.254 260.185C331.338 260.255 331.254 260.367 331.149 260.339C328.614 259.567 326.004 259.064 323.364 258.838C323.318 258.84 323.274 258.823 323.241 258.793C323.207 258.762 323.188 258.719 323.186 258.674C323.184 258.628 323.2 258.584 323.231 258.551C323.262 258.517 323.304 258.497 323.35 258.496Z" fill="#263238"/>
<path d="M329.46 256.128H356.503C356.503 256.128 347.426 199.144 347.67 197.977C347.789 197.377 382.632 135.735 382.632 135.735H352.083C352.083 135.735 323.783 179.823 319.901 190.897C317.059 198.997 329.46 256.128 329.46 256.128Z" fill="#263238"/>
<path d="M328.803 250.878C330.437 250.745 332.064 250.612 333.691 250.542C335.318 250.473 336.945 250.452 338.579 250.417C341.833 250.347 345.087 250.305 348.354 250.263C349.283 250.263 350.212 250.263 351.147 250.263C352.083 250.263 353.019 250.361 353.94 250.263C354.01 250.263 354.01 250.368 353.94 250.368C353.124 250.368 352.307 250.542 351.497 250.598C350.687 250.654 349.87 250.738 349.053 250.794C347.426 250.898 345.799 250.975 344.165 251.045C340.911 251.185 337.657 251.22 334.389 251.241C332.525 251.241 330.674 251.108 328.803 250.975C328.79 250.962 328.783 250.945 328.783 250.926C328.783 250.908 328.79 250.891 328.803 250.878Z" fill="#455A64"/>
<path d="M343.997 195.687C344.529 194.001 345.308 192.403 346.309 190.946C348.352 187.566 350.393 184.187 352.432 180.807C356.571 173.955 360.73 167.114 364.91 160.285C367.005 156.906 369.1 153.54 371.146 150.168C373.066 147.053 377.43 138.723 377.919 137.92C377.919 137.857 378.051 137.885 378.017 137.92C376.62 140.853 374.784 144.519 373.066 147.577C371.174 150.936 369.149 154.224 367.187 157.541C363.158 164.363 359.066 171.108 354.981 177.84C352.923 181.252 350.859 184.662 348.787 188.069C347.796 189.703 346.769 191.33 345.813 192.957C344.831 194.539 344.313 196.366 344.319 198.229C344.427 200.177 344.636 202.119 344.947 204.045C345.205 205.993 345.457 207.935 345.722 209.883C346.248 213.774 346.795 217.659 347.363 221.537C348.499 229.343 349.683 237.14 350.917 244.928C351.071 245.899 351.231 246.862 351.385 247.833C351.385 247.924 351.259 247.959 351.245 247.868C349.849 240.075 348.494 232.283 347.314 224.455C346.134 216.628 345.059 208.779 344.018 200.931C343.687 199.199 343.68 197.421 343.997 195.687Z" fill="#455A64"/>
<path d="M441.886 272.607C440.49 273.04 400.689 272.119 399.216 271.12C398.643 270.75 398.441 264.947 398.399 257.923V257.707C398.399 256.261 387.855 231.948 387.855 231.948L413.858 232.478L424.067 258.014V258.454C424.067 258.454 439.135 265.611 440.664 266.882C442.194 268.152 443.29 272.174 441.886 272.607Z" fill="#AD6359"/>
<path d="M441.886 272.607C440.49 273.04 400.689 272.119 399.216 271.12C398.643 270.75 398.441 264.948 398.399 257.923V257.707C398.399 257.707 396.618 252.819 396.611 252.63L422.286 253.084L424.067 258.014V258.454C424.067 258.454 439.135 265.611 440.664 266.882C442.193 268.153 443.29 272.175 441.886 272.607Z" fill="#EBEBEB"/>
<path d="M441.886 272.607C440.49 273.04 400.689 272.119 399.216 271.12C398.643 270.75 398.441 264.947 398.399 257.923V257.707L424.067 258.014V258.454C424.067 258.454 439.135 265.611 440.664 266.882C442.193 268.152 443.29 272.174 441.886 272.607Z" fill="#A6A6A6"/>
<path d="M441.46 271.05C434.757 270.729 407.7 270.073 401.045 270.268C400.996 270.268 400.996 270.303 401.045 270.31C407.686 270.771 434.75 271.211 441.46 271.162C441.614 271.162 441.614 271.057 441.46 271.05Z" fill="#263238"/>
<path d="M426.923 258.139C424.297 257.588 421.057 257.916 418.997 259.752C418.92 259.822 418.997 259.934 419.109 259.906C421.648 259.153 424.261 258.674 426.902 258.475C426.946 258.477 426.99 258.462 427.023 258.433C427.057 258.403 427.077 258.362 427.08 258.317C427.082 258.273 427.067 258.229 427.038 258.196C427.009 258.163 426.967 258.142 426.923 258.139Z" fill="#263238"/>
<path d="M428.801 259.347C426.175 258.796 422.936 259.124 420.876 260.953C420.799 261.03 420.876 261.142 420.987 261.114C423.526 260.358 426.139 259.878 428.78 259.683C428.824 259.685 428.868 259.67 428.902 259.641C428.935 259.611 428.955 259.57 428.958 259.526C428.961 259.481 428.946 259.437 428.916 259.404C428.887 259.371 428.845 259.35 428.801 259.347Z" fill="#263238"/>
<path d="M430.679 260.541C428.054 259.983 424.814 260.318 422.754 262.147C422.677 262.217 422.754 262.329 422.866 262.308C425.405 261.553 428.017 261.071 430.658 260.87C430.697 260.865 430.732 260.846 430.759 260.818C430.785 260.79 430.801 260.753 430.804 260.714C430.806 260.675 430.795 260.637 430.772 260.606C430.75 260.574 430.717 260.551 430.679 260.541Z" fill="#263238"/>
<path d="M355.274 135.735C355.274 135.735 358.94 158.079 359.184 158.777C359.184 158.777 360.581 159.427 363.004 160.558L392.673 258.356L425.491 258.468L386.542 135.735H355.274Z" fill="#263238"/>
<path d="M357.998 158.093C360.846 159.283 363.587 160.717 366.188 162.38C366.205 162.395 366.216 162.415 366.22 162.437C366.224 162.458 366.22 162.481 366.21 162.5C366.199 162.52 366.182 162.535 366.162 162.544C366.141 162.552 366.119 162.554 366.097 162.548C363.304 161.207 360.511 159.915 357.83 158.421C357.786 158.399 357.754 158.36 357.738 158.314C357.723 158.267 357.727 158.217 357.75 158.173C357.772 158.13 357.81 158.097 357.857 158.082C357.903 158.067 357.954 158.071 357.998 158.093Z" fill="#455A64"/>
<path d="M359.066 145.301C359.513 147.975 359.764 150.684 360.064 153.38C360.141 154.022 360.218 154.671 360.288 155.314C360.305 155.91 360.463 156.494 360.749 157.018C361.328 157.918 362.369 158.337 363.311 158.749C363.423 158.798 363.381 158.973 363.255 158.931C362.242 158.685 361.306 158.19 360.532 157.492C359.673 156.585 359.701 155.209 359.568 154.036C359.188 151.144 358.978 148.232 358.94 145.315C358.938 145.298 358.943 145.281 358.954 145.268C358.964 145.255 358.979 145.247 358.996 145.245C359.013 145.243 359.029 145.248 359.042 145.258C359.056 145.269 359.064 145.284 359.066 145.301Z" fill="#455A64"/>
<path d="M362.299 146.118C362.396 148.045 362.606 149.972 362.767 151.892C362.85 152.835 362.913 153.785 362.976 154.734C363.039 155.684 363.144 156.689 363.116 157.66C363.111 157.672 363.103 157.683 363.093 157.691C363.082 157.698 363.069 157.702 363.056 157.702C363.043 157.702 363.031 157.698 363.02 157.691C363.009 157.683 363.001 157.672 362.997 157.66C362.836 156.745 362.815 155.796 362.739 154.867C362.662 153.938 362.592 152.919 362.543 151.948C362.431 150 362.375 148.045 362.201 146.104C362.203 146.091 362.21 146.079 362.22 146.071C362.231 146.063 362.244 146.06 362.257 146.062C362.27 146.064 362.281 146.071 362.289 146.081C362.297 146.092 362.301 146.105 362.299 146.118Z" fill="#455A64"/>
<path d="M366.495 164.663C368.772 170.208 393.071 249.69 393.336 250.382C393.336 250.438 393.267 250.473 393.239 250.417C389.992 244.063 369.246 172.358 367.18 166.772L366.404 164.677C366.384 164.65 366.474 164.615 366.495 164.663Z" fill="#455A64"/>
<path d="M392.429 252.854C393.378 252.721 394.363 252.728 395.319 252.658C396.276 252.588 397.247 252.574 398.21 252.553C400.137 252.512 402.065 252.481 403.992 252.463C407.818 252.414 411.673 252.4 415.471 252.4C417.657 252.4 419.835 252.518 422.021 252.56C422.091 252.56 422.091 252.665 422.021 252.672C420.101 252.749 418.173 252.868 416.246 252.937C414.319 253.007 412.392 253.021 410.465 253.049C406.582 253.105 402.7 253.168 398.818 253.161C397.735 253.161 396.66 253.161 395.585 253.119C394.509 253.077 393.49 253.119 392.422 252.965C392.352 252.958 392.373 252.861 392.429 252.854Z" fill="#455A64"/>
<path d="M359.373 102.079C352.844 97.4422 342.999 86.1653 341.051 81.7174C338.551 75.9986 334.145 56.2519 336.128 53.9476C337.224 52.6768 351.49 54.5621 352.286 56.1541C353.082 57.7462 353.487 75.1328 353.682 76.4525C353.878 77.7722 360.413 90.2501 364.058 96.1923C368.36 103.126 363.625 105.095 359.373 102.079Z" fill="#AD6359"/>
<path d="M336.358 58.6399C335.727 57.483 335.482 56.1543 335.66 54.8483C336.058 52.7536 337.483 50.5401 337.057 49.2623C336.421 47.2583 334.487 44.0393 335.248 43.3131C336.805 41.8118 338.739 42.8453 341.002 46.5321C341.588 47.4887 342.454 49.9116 343.173 50.0234C344.437 50.2398 344.968 48.0263 345.115 46.0014C345.401 42.0842 345.024 36.3445 347.614 35.6043C348.592 35.318 349.06 36.7425 349.269 38.5021C349.367 35.9465 349.751 33.4188 350.826 33.0627C351.104 32.9808 351.403 33.0073 351.662 33.1369C351.921 33.2665 352.122 33.4894 352.223 33.7609C352.276 33.4491 352.426 33.162 352.652 32.9402C352.877 32.7184 353.167 32.5732 353.48 32.525C354.485 32.3574 355.19 33.2232 355.672 34.515C355.758 34.4156 355.866 34.3378 355.987 34.288C356.108 34.2383 356.24 34.218 356.371 34.2287C359.087 34.2776 360.267 44.1021 359.317 46.574C357.325 51.4358 354.675 56.0008 351.441 60.1411C347.789 61.2304 336.358 58.6469 336.358 58.6399Z" fill="#AD6359"/>
<path d="M348.906 49.9116C349.707 48.2683 350.131 46.4675 350.149 44.6397C350.149 42.496 349.569 40.4013 349.353 38.2716C349.353 38.2157 349.255 38.2297 349.262 38.2716C349.416 39.305 349.465 40.3664 349.576 41.4068C349.688 42.4472 349.828 43.4457 349.87 44.4651C349.952 46.3252 349.613 48.1798 348.878 49.8906C348.878 49.8906 348.899 49.9325 348.906 49.9116Z" fill="#263238"/>
<path d="M352.355 50.561C353.107 48.6209 353.657 46.6086 353.996 44.556C354.283 42.3006 353.787 40.0452 353.298 37.8457C353.019 36.526 352.718 35.2133 352.383 33.9075C352.383 33.8517 352.279 33.8587 352.293 33.9075C352.781 36.149 353.207 38.4113 353.556 40.6876C353.896 42.7957 353.817 44.9499 353.326 47.0278C353.04 48.2079 352.628 49.374 352.293 50.5191C352.32 50.568 352.348 50.582 352.355 50.561Z" fill="#263238"/>
<path d="M355.882 50.3934C356.718 48.6975 357.241 46.8641 357.425 44.9819C357.456 42.6731 357.198 40.3696 356.657 38.125C356.385 36.91 356.077 35.709 355.749 34.508C355.749 34.4591 355.651 34.508 355.658 34.508C356.336 37.1956 356.838 39.9246 357.16 42.6776C357.336 43.987 357.305 45.3159 357.069 46.6158C356.778 47.8958 356.376 49.148 355.868 50.3585C355.868 50.3585 355.875 50.4004 355.882 50.3934Z" fill="#263238"/>
<path d="M353.584 61.9287L335.534 65.7482C335.534 65.7482 339.361 79.8879 340.918 83.2047C342.475 86.5214 354.967 100.766 359.834 103.322C364.701 105.877 367.92 103.259 364.875 96.7299C361.831 90.2012 355.176 77.7443 354.758 76.3547C354.339 74.9652 353.584 61.9287 353.584 61.9287Z" fill="#455A64"/>
<path d="M363.793 101.827C363.376 102.136 362.997 102.493 362.662 102.889C363.133 102.674 363.578 102.407 363.988 102.093C364.404 101.785 364.782 101.429 365.113 101.031C364.645 101.247 364.202 101.514 363.793 101.827ZM359.603 94.6491C359.251 95.6206 359.108 96.6558 359.184 97.6865C359.537 96.715 359.68 95.6798 359.603 94.6491ZM341.686 76.4315C341.379 76.0151 341.026 75.6355 340.632 75.3003C340.84 75.7741 341.108 76.2198 341.428 76.627C341.733 77.0428 342.087 77.4202 342.482 77.7512C342.271 77.2839 342.008 76.8414 341.7 76.4315H341.686ZM338.355 65.1337L338.013 65.2035C338.316 65.6169 338.668 65.9921 339.061 66.3207C338.875 65.9004 338.644 65.5022 338.369 65.1337H338.355ZM354.632 90.5014C354.325 90.085 353.971 89.7054 353.577 89.3703C353.786 89.844 354.054 90.2897 354.373 90.6969C354.678 91.1127 355.032 91.4901 355.428 91.8211C355.216 91.3539 354.954 90.9113 354.646 90.5014H354.632ZM350.875 78.0235C350.459 78.3286 350.082 78.6826 349.751 79.0779C350.22 78.8648 350.663 78.5976 351.071 78.2819C351.486 77.9769 351.864 77.6229 352.195 77.2275C351.73 77.4416 351.292 77.7088 350.889 78.0235H350.875ZM347.698 63.1576L347.593 63.2763L347.963 63.1017L347.698 63.1576ZM356.573 82.8764C356.062 82.8007 355.544 82.7843 355.03 82.8276C356.001 83.1801 357.037 83.3229 358.067 83.2465C357.585 83.066 357.084 82.9418 356.573 82.8764ZM344.088 69.3023C343.577 69.2266 343.059 69.2102 342.545 69.2534C343.515 69.6128 344.551 69.7581 345.582 69.6794C345.1 69.4966 344.599 69.3701 344.088 69.3023ZM346.183 83.051C345.83 84.0225 345.687 85.0577 345.764 86.0884C346.116 85.1169 346.259 84.0817 346.183 83.051ZM353.228 67.0399C352.87 68.0125 352.724 69.0507 352.802 70.0843C353.152 69.1096 353.297 68.0732 353.228 67.0399Z" fill="white"/>
<path d="M352.823 66.97C350.275 67.6683 339.738 70.0005 337.462 70.3566C337.301 70.3566 337.252 70.2868 337.413 70.2449C342.469 68.8354 347.6 67.7072 352.781 66.8653C352.788 66.8626 352.796 66.8612 352.803 66.8613C352.81 66.8614 352.818 66.8629 352.825 66.8658C352.831 66.8687 352.838 66.873 352.843 66.8783C352.848 66.8836 352.852 66.8899 352.855 66.8967C352.857 66.9036 352.859 66.911 352.859 66.9184C352.859 66.9258 352.857 66.9331 352.854 66.9399C352.851 66.9467 352.847 66.9529 352.842 66.958C352.836 66.9632 352.83 66.9673 352.823 66.97Z" fill="#263238"/>
<path d="M359.834 103.273C356.343 101.443 348.962 93.6087 344.472 88.0994L362.033 90.8925C363.116 93.0291 364.128 95.082 364.882 96.709C367.92 103.21 364.708 105.835 359.834 103.273Z" fill="#263238"/>
<path d="M388.504 138.821C388.504 138.821 346.336 144.644 346.246 144.568C345.624 144.072 347.81 98.9923 349.486 95.1239C351.28 90.9763 356.866 88.8396 360.008 90.5713C367.892 94.9773 377.891 112.971 380.258 118.558C384.203 127.754 388.239 136.307 388.504 138.821Z" fill="#455A64"/>
<path d="M354.646 90.5015C354.541 90.5337 354.438 90.5734 354.339 90.6202L354.401 90.7109C354.706 91.1267 355.06 91.5041 355.456 91.8351C355.236 91.3617 354.965 90.9144 354.646 90.5015ZM353.64 134.841C353.282 135.813 353.136 136.852 353.214 137.885C353.564 136.911 353.709 135.874 353.64 134.841ZM368.304 106.659C367.945 107.632 367.8 108.67 367.878 109.704C368.227 108.729 368.372 107.692 368.304 106.659ZM359.645 94.6491C359.293 95.6207 359.15 96.6559 359.226 97.6866C359.579 96.715 359.722 95.6798 359.645 94.6491ZM370.734 141.146C370.714 141.189 370.698 141.234 370.685 141.279H370.741C370.733 141.234 370.721 141.189 370.706 141.146H370.734ZM361.23 122.677C360.878 123.649 360.735 124.684 360.811 125.715C361.164 124.743 361.307 123.708 361.23 122.677ZM350.058 110.109C349.706 111.083 349.563 112.12 349.639 113.153C349.991 112.179 350.134 111.142 350.058 110.109ZM378.561 125.275C378.374 125.758 378.247 126.262 378.184 126.776C378.108 127.287 378.092 127.805 378.135 128.319C378.317 127.835 378.441 127.331 378.505 126.818C378.59 126.306 378.611 125.785 378.568 125.268L378.561 125.275ZM371.209 102.651C371.027 102.641 370.845 102.641 370.664 102.651C370.891 102.741 371.125 102.816 371.362 102.875L371.209 102.651ZM359.136 108.936C358.625 108.86 358.107 108.843 357.592 108.887C358.562 109.246 359.599 109.391 360.63 109.313C360.151 109.123 359.652 108.99 359.143 108.915L359.136 108.936ZM371.669 122.202C371.159 122.127 370.641 122.11 370.126 122.154C371.098 122.506 372.133 122.649 373.164 122.573C372.685 122.383 372.186 122.249 371.676 122.174L371.669 122.202ZM348.047 119.8C347.728 119.757 347.406 119.731 347.084 119.724C347.084 119.793 347.084 119.863 347.084 119.933C347.392 120.013 347.704 120.076 348.019 120.122C348.53 120.197 349.048 120.214 349.562 120.17C349.077 119.979 348.571 119.846 348.054 119.772L348.047 119.8ZM373.729 136.908C373.218 136.832 372.701 136.816 372.186 136.859C373.16 137.211 374.198 137.354 375.23 137.278C374.746 137.098 374.242 136.974 373.729 136.908ZM360.658 132.774C360.147 132.698 359.629 132.682 359.115 132.725C360.089 133.077 361.126 133.22 362.159 133.144C361.676 132.965 361.175 132.841 360.665 132.774H360.658ZM347.586 131.517C347.218 131.471 346.847 131.445 346.476 131.44C346.473 131.499 346.473 131.557 346.476 131.615C346.827 131.713 347.184 131.788 347.544 131.838C348.055 131.918 348.573 131.934 349.088 131.887C348.605 131.707 348.104 131.583 347.593 131.517H347.586ZM363.786 101.827C363.369 102.136 362.99 102.493 362.655 102.889C363.126 102.674 363.571 102.407 363.981 102.093C364.397 101.785 364.775 101.429 365.106 101.031C364.64 101.247 364.2 101.514 363.793 101.827H363.786ZM378.491 118.641C378.076 118.946 377.698 119.3 377.367 119.696C377.836 119.483 378.279 119.215 378.687 118.9C379.103 118.595 379.48 118.241 379.811 117.845C379.344 118.059 378.904 118.326 378.498 118.641H378.491ZM365.567 116.477C365.151 116.782 364.773 117.136 364.442 117.531C364.912 117.318 365.355 117.051 365.762 116.735C366.178 116.43 366.555 116.076 366.886 115.681C366.419 115.894 365.979 116.161 365.574 116.477H365.567ZM382.625 135.735C382.208 136.038 381.83 136.392 381.501 136.789C382.437 136.349 383.272 135.719 383.952 134.939C383.48 135.148 383.037 135.415 382.632 135.735H382.625ZM363.772 138.835C363.355 139.138 362.977 139.492 362.648 139.889C363.584 139.449 364.419 138.819 365.099 138.039C364.63 138.249 364.189 138.516 363.786 138.835H363.772ZM352.928 125.736C352.511 126.039 352.133 126.393 351.804 126.79C352.74 126.35 353.575 125.72 354.255 124.94C353.786 125.149 353.345 125.417 352.942 125.736H352.928ZM366.195 96.0736C366.145 96.0031 366.092 95.9355 366.034 95.8711C365.848 95.6523 365.66 95.4428 365.469 95.2427C365.376 95.1511 365.278 95.0649 365.176 94.9843C365.387 95.4567 365.654 95.9021 365.972 96.311C366.277 96.7267 366.631 97.1042 367.026 97.4352C366.805 96.9495 366.526 96.4924 366.195 96.0736ZM374.099 112.238C373.793 111.822 373.439 111.442 373.045 111.107C373.256 111.579 373.524 112.025 373.841 112.434C374.146 112.85 374.5 113.227 374.895 113.558C374.682 113.089 374.415 112.646 374.099 112.238ZM385.16 129.751C384.933 129.475 384.681 129.223 384.406 128.996C384.614 129.47 384.882 129.916 385.202 130.323C385.341 130.498 385.467 130.665 385.621 130.833L385.16 129.751ZM357.928 142.228C358.037 142.486 358.168 142.733 358.319 142.969L358.626 142.927C358.408 142.671 358.164 142.437 357.9 142.228H357.928ZM347.775 141.055C347.468 140.639 347.114 140.259 346.721 139.924C346.929 140.398 347.197 140.844 347.517 141.251C347.822 141.667 348.176 142.044 348.571 142.375C348.346 141.906 348.07 141.463 347.747 141.055H347.775ZM369.728 130.121C369.422 129.704 369.068 129.325 368.674 128.99C368.883 129.463 369.15 129.909 369.47 130.316C369.775 130.732 370.129 131.109 370.524 131.44C370.3 130.971 370.023 130.529 369.7 130.121H369.728ZM354.29 102.19C353.983 101.774 353.629 101.394 353.235 101.059C353.444 101.533 353.712 101.979 354.031 102.386C354.336 102.802 354.69 103.179 355.086 103.51C354.862 103.034 354.586 102.584 354.262 102.169L354.29 102.19ZM356.782 116.072C356.476 115.655 356.122 115.276 355.728 114.941C355.937 115.414 356.204 115.86 356.524 116.267C356.829 116.683 357.183 117.06 357.578 117.391C357.355 116.915 357.079 116.465 356.755 116.051L356.782 116.072Z" fill="white"/>
<path d="M351.448 97.1908C353.424 97.519 358.514 93.6157 359.408 90.4666C359.464 90.2501 358.71 88.288 357.9 85.865C357.418 84.3917 356.915 82.7438 356.559 81.2007L347.44 85.7533C348.429 87.5531 349.196 89.4664 349.723 91.4511C349.768 91.6648 349.794 91.8822 349.8 92.1005C349.797 92.1354 349.797 92.1704 349.8 92.2052C349.891 93.4481 349.171 96.8417 351.448 97.1908Z" fill="#AD6359"/>
<path d="M356.098 81.4311C356.238 83.5957 356.28 90.6551 350.819 92.0307C350.488 92.1201 350.149 92.1808 349.807 92.2122C349.804 92.175 349.804 92.1377 349.807 92.1005C349.797 91.8824 349.772 91.6654 349.73 91.4511C349.206 89.4652 348.439 87.5515 347.447 85.7533L356.098 81.4311Z" fill="#263238"/>
<path d="M347.461 65.5317C347.461 65.5317 343.969 66.1322 342.573 69.2604C341.176 72.3886 341.176 75.9847 341.435 76.243C341.693 76.5014 347.461 65.5317 347.461 65.5317Z" fill="#263238"/>
<path d="M359.331 72.4514C359.596 76.1173 355.519 85.5927 352.579 87.2405C348.319 89.6286 342.468 88.6371 340.708 83.7492C339.019 79.036 344.549 66.7816 347.691 65.399C352.425 63.3601 358.947 67.0399 359.331 72.4514Z" fill="#AD6359"/>
<path d="M347.824 76.648C347.824 76.648 347.859 76.6969 347.824 76.7248C347.523 77.3533 347.279 78.1213 347.761 78.5822C347.761 78.5822 347.761 78.6311 347.761 78.6171C347.104 78.2051 347.433 77.1927 347.824 76.648Z" fill="#263238"/>
<path d="M348.683 76.2361C349.737 76.6131 348.906 78.7009 347.928 78.3308C346.951 77.9608 347.796 75.8939 348.683 76.2361Z" fill="#263238"/>
<path d="M344.256 75.0838C344.256 75.0838 344.193 75.0838 344.186 75.0838C343.948 75.7332 343.564 76.4803 342.894 76.4245V76.4664C343.641 76.6828 344.137 75.7402 344.256 75.0838Z" fill="#263238"/>
<path d="M343.948 74.176C342.943 73.6803 342.028 75.7332 342.964 76.187C343.9 76.6409 344.793 74.588 343.948 74.176Z" fill="#263238"/>
<path d="M350.379 74.5881C350.072 74.5252 349.793 74.4205 349.492 74.3297C349.168 74.284 348.869 74.1317 348.641 73.8968C348.584 73.8099 348.558 73.7068 348.565 73.6035C348.573 73.5001 348.614 73.402 348.683 73.3242C348.844 73.1886 349.038 73.0994 349.246 73.0662C349.454 73.0329 349.667 73.057 349.863 73.1357C350.283 73.2295 350.652 73.4789 350.896 73.8339C350.943 73.9169 350.965 74.0112 350.961 74.1062C350.957 74.2012 350.926 74.2931 350.872 74.3716C350.818 74.4501 350.744 74.5119 350.657 74.5502C350.569 74.5884 350.473 74.6015 350.379 74.5881Z" fill="#263238"/>
<path d="M343.215 73.0379C343.437 73.2417 343.67 73.4328 343.914 73.6105C344.14 73.8467 344.436 74.0035 344.758 74.0574C344.864 74.055 344.965 74.0172 345.046 73.95C345.127 73.8828 345.183 73.7903 345.205 73.6873C345.222 73.4779 345.181 73.2678 345.088 73.0796C344.994 72.8915 344.852 72.7322 344.675 72.619C344.359 72.3289 343.944 72.1692 343.516 72.1721C343.419 72.1808 343.327 72.2172 343.251 72.2768C343.175 72.3364 343.118 72.4167 343.086 72.5081C343.054 72.5995 343.049 72.6981 343.072 72.7921C343.095 72.8861 343.145 72.9714 343.215 73.0379Z" fill="#263238"/>
<path d="M346.581 82.3527C346.375 82.4872 346.127 82.5441 345.883 82.5133C345.644 82.4143 345.429 82.2641 345.254 82.0734C345.254 82.0734 345.212 82.0734 345.212 82.0734C345.253 82.243 345.34 82.398 345.463 82.5213C345.586 82.6446 345.741 82.7312 345.911 82.7717C346.056 82.7874 346.202 82.7609 346.332 82.6952C346.462 82.6295 346.57 82.5275 346.644 82.4016C346.647 82.3933 346.647 82.3843 346.645 82.3758C346.642 82.3673 346.637 82.3598 346.63 82.3544C346.623 82.349 346.615 82.3459 346.606 82.3456C346.597 82.3453 346.588 82.3478 346.581 82.3527Z" fill="#263238"/>
<path d="M344.402 80.1254C344.526 80.5881 344.766 81.0113 345.101 81.3543C345.295 81.5315 345.538 81.6459 345.799 81.6825C346.364 81.7523 346.567 81.2845 346.637 80.8446C346.664 80.6126 346.664 80.3783 346.637 80.1463C345.909 80.3758 345.126 80.3685 344.402 80.1254Z" fill="#263238"/>
<path d="M345.101 81.3543C345.295 81.5315 345.538 81.6459 345.799 81.6824C346.364 81.7523 346.567 81.2844 346.637 80.8445C346.361 80.7444 346.059 80.7402 345.78 80.8327C345.501 80.9252 345.262 81.1089 345.101 81.3543Z" fill="#FF9CBD"/>
<path d="M356.119 80.9353C354.96 80.8516 354.974 77.2555 355.1 75.9218C355.218 74.7488 356.175 71.2505 356.217 71.034C356.259 70.8176 350.526 72.249 348.201 70.4615C345.876 68.6739 345.038 65.6504 345.408 64.5332C345.778 63.416 350.135 61.9008 353.012 62.8504C355.889 63.8001 358.305 68.8555 358.305 68.8555C358.048 68.1531 357.847 67.4317 357.704 66.6978C358.156 67.0002 358.527 67.4096 358.782 67.8895C359.038 68.3695 359.171 68.9051 359.17 69.449C359.17 69.449 359.443 67.6824 359.589 67.7033C359.736 67.7243 360.616 69.6724 359.883 70.6011C359.883 70.6011 360.972 72.654 360.518 74.267C360.064 75.8799 357.488 81.0331 356.119 80.9353Z" fill="#263238"/>
<path d="M346.546 69.1626C347.162 69.8827 347.882 70.5064 348.683 71.013C349.616 71.4696 350.647 71.6902 351.685 71.6554C352.723 71.6526 353.753 71.4828 354.737 71.1527C355.595 70.8664 356.433 70.4544 357.32 70.231C357.544 70.1751 357.648 70.5103 357.474 70.629C355.666 71.8194 353.525 72.3994 351.364 72.2838C350.359 72.2299 349.385 71.9158 348.538 71.3723C347.691 70.8288 347 70.0746 346.532 69.1836C346.532 69.1836 346.539 69.1556 346.546 69.1626Z" fill="#263238"/>
<path d="M355.379 80.1532C355.379 80.1532 358.403 77.5208 359.645 78.6799C360.888 79.839 358.06 84.0286 356.21 84.266C355.973 84.3108 355.729 84.3069 355.493 84.2546C355.258 84.2022 355.035 84.1025 354.839 83.9614C354.643 83.8203 354.478 83.6409 354.353 83.4339C354.229 83.227 354.148 82.997 354.115 82.7577L355.379 80.1532Z" fill="#AD6359"/>
<path d="M358.807 79.86V79.9089C357.502 80.0904 356.601 81.0401 355.875 82.0735C355.973 81.9716 356.093 81.8925 356.225 81.8415C356.358 81.7905 356.5 81.7689 356.641 81.7782C356.783 81.7875 356.92 81.8275 357.045 81.8953C357.169 81.9632 357.278 82.0574 357.362 82.1713C357.362 82.1713 357.362 82.2411 357.313 82.2271C357.122 82.1072 356.898 82.0502 356.672 82.0639C356.447 82.0777 356.232 82.1616 356.056 82.3039C355.76 82.5394 355.493 82.8089 355.26 83.1069C355.176 83.1977 355.002 83.1069 355.072 82.9812C355.428 81.4311 357.139 79.6086 358.807 79.86Z" fill="#263238"/>
<path d="M351.636 104.928C343.187 103.28 326.75 96.0038 324.188 94.1185C318.818 90.1593 307.897 70.7757 308.826 67.6754C309.343 65.9647 324.02 65.413 325.521 66.6001C327.023 67.7871 333.509 82.3109 334.305 83.491C335.101 84.671 351.678 95.8571 355.316 99.0412C361.901 104.809 357.132 106.003 351.636 104.928Z" fill="#AD6359"/>
<path d="M324.516 71.9348C324.516 71.9348 327.616 66.3976 329.474 62.6758C330.507 60.5811 331.966 56.8873 332.029 54.995C332.127 52.202 330.737 40.4223 327.875 40.6946C325.284 40.946 327.763 50.9102 327.763 50.9102C327.763 50.9102 326.15 40.6318 323.084 41.5046C320.019 42.3775 324.32 53.2633 324.32 53.2633C324.32 53.2633 322.428 42.7475 319.433 44.144C317.149 45.2054 320.487 55.3162 320.487 55.3162C320.487 55.3162 318.797 46.2877 316.402 47.2723C313.763 48.3685 316.256 57.8648 316.256 57.8648C310.6 61.398 308.33 63.8768 308.805 68.3387C308.861 69.0509 324.516 71.9348 324.516 71.9348Z" fill="#AD6359"/>
<path d="M328.824 55.3092C328.677 54.0942 328.538 52.8653 328.286 51.6712C328.035 50.4772 327.742 49.2832 327.379 48.1171C326.938 46.5814 326.324 45.1009 325.549 43.7041C326.608 46.3045 327.424 48.9973 327.986 51.748C328.237 52.9421 328.545 54.1291 328.803 55.3231C328.789 55.3511 328.831 55.3371 328.824 55.3092Z" fill="#263238"/>
<path d="M324.523 56.3006C324.272 54.7575 324.076 53.2213 323.755 51.6921C323.434 50.1629 322.91 48.0472 322.491 46.546C322.491 46.4342 322.275 46.4273 322.303 46.546C322.666 48.0612 323.099 50.2467 323.448 51.762C323.797 53.2772 324.195 54.7854 324.488 56.3076C324.488 56.3425 324.523 56.3425 324.523 56.3006Z" fill="#263238"/>
<path d="M320.983 57.8159C320.653 55.4352 320.077 53.0952 319.265 50.8333C319.23 50.7216 319.167 50.8333 319.202 50.9171C319.817 53.2214 320.312 55.0229 320.899 57.8089C320.906 57.8718 320.983 57.8648 320.983 57.8159Z" fill="#263238"/>
<path d="M310.53 74.609L329.697 72.6399C329.697 72.6399 333.684 81.8709 334.48 82.9741C335.276 84.0774 353.242 95.9199 356.824 98.8944C360.406 101.869 359.785 107.392 352.076 105.877C345.422 104.571 327.428 97.1139 324.034 94.8376C320.641 92.5612 310.53 74.609 310.53 74.609Z" fill="#455A64"/>
<path d="M354.262 102.169C353.955 101.753 353.601 101.373 353.207 101.038C353.416 101.512 353.684 101.958 354.003 102.365C354.308 102.781 354.662 103.158 355.058 103.489C354.842 103.021 354.575 102.579 354.262 102.169ZM346.581 101.834C346.165 102.139 345.788 102.493 345.457 102.889C345.926 102.675 346.369 102.408 346.776 102.093C347.19 101.785 347.565 101.429 347.894 101.031C347.429 101.247 346.991 101.517 346.588 101.834H346.581ZM347.405 94.2511C346.894 94.1753 346.376 94.1589 345.862 94.2022C346.832 94.5616 347.868 94.7069 348.899 94.6281C348.419 94.4459 347.92 94.3194 347.412 94.2511H347.405ZM340.562 97.7423C340.21 98.7164 340.067 99.7538 340.143 100.787C340.495 99.8127 340.638 98.7753 340.562 97.7423ZM316.57 77.0809C316.263 76.6644 315.909 76.2849 315.515 75.9497C315.724 76.4235 315.992 76.8692 316.311 77.2764C316.616 77.6921 316.97 78.0696 317.366 78.4006C317.15 77.9326 316.883 77.49 316.57 77.0809ZM336.407 86.7238C336.101 86.3074 335.747 85.9278 335.353 85.5926C335.564 86.065 335.832 86.5104 336.149 86.9193C336.454 87.3351 336.808 87.7125 337.203 88.0435C336.99 87.5742 336.723 87.1313 336.407 86.7238ZM327.882 89.1607C327.466 89.4658 327.088 89.8198 326.757 90.2151C327.227 90.002 327.67 89.7348 328.077 89.4191C328.493 89.1141 328.87 88.7601 329.201 88.3647C328.732 88.5779 328.289 88.845 327.882 89.1607ZM340.806 91.3254C340.391 91.6304 340.013 91.9844 339.682 92.3797C340.151 92.1666 340.594 91.8994 341.002 91.5837C341.418 91.2787 341.795 90.9247 342.126 90.5293C341.656 90.7447 341.213 91.0142 340.806 91.3323V91.3254ZM326.101 74.4973C325.684 74.8065 325.305 75.1626 324.97 75.5587C325.441 75.3445 325.886 75.0774 326.297 74.7627C326.712 74.4552 327.09 74.0988 327.421 73.7013C326.953 73.9171 326.51 74.1841 326.101 74.4973ZM333.007 95.075C332.496 94.9993 331.978 94.9829 331.464 95.0261C332.435 95.3787 333.47 95.5215 334.501 95.4451C334.018 95.2717 333.517 95.1546 333.007 95.096V95.075ZM321.974 83.0231C321.463 82.9473 320.946 82.9309 320.431 82.9742C321.401 83.3335 322.437 83.4788 323.469 83.4001C322.986 83.2245 322.484 83.1051 321.974 83.044V83.0231ZM325.738 94.6281C325.613 94.9541 325.517 95.2906 325.452 95.6336L325.731 95.7802C325.77 95.4043 325.773 95.0254 325.738 94.6491V94.6281ZM330.584 79.3851C330.225 80.3576 330.08 81.3959 330.158 82.4295C330.508 81.4548 330.653 80.4184 330.584 79.3851Z" fill="white"/>
<path d="M314.517 79.1268C317.149 78.9243 327.881 77.7302 330.179 77.3043C330.339 77.3043 330.36 77.1716 330.179 77.1786C324.923 77.5032 319.69 78.1186 314.503 79.022C314.492 79.0272 314.484 79.0355 314.478 79.0458C314.473 79.0561 314.471 79.0678 314.472 79.0794C314.474 79.0909 314.479 79.1017 314.487 79.1102C314.495 79.1187 314.505 79.1245 314.517 79.1268Z" fill="#263238"/>
<path d="M355.693 107.679C354.107 107.139 352.564 106.478 351.078 105.703C349.581 104.957 348.132 104.118 346.741 103.189C348.303 103.779 349.83 104.457 351.315 105.221C352.055 105.605 352.795 105.989 353.522 106.394C354.248 106.799 354.974 107.246 355.693 107.679Z" fill="#263238"/>
<path d="M351.036 105.388C350.499 105.351 349.969 105.248 349.458 105.081C348.942 104.924 348.448 104.706 347.984 104.432C348.521 104.472 349.051 104.577 349.562 104.746C350.077 104.902 350.571 105.117 351.036 105.388Z" fill="#263238"/>
<path d="M356.824 98.8945C356.07 98.4722 355.367 97.9637 354.729 97.3793C354.084 96.816 353.508 96.1785 353.012 95.48C353.766 95.9023 354.469 96.4108 355.106 96.9953C355.752 97.5586 356.328 98.1961 356.824 98.8945Z" fill="#263238"/>
</svg>
