<svg width="410" height="396" viewBox="0 0 410 396" fill="none" xmlns="http://www.w3.org/2000/svg">
<path d="M407.842 394.962C407.842 395.091 316.535 395.195 203.93 395.195C91.3246 395.195 0 395.091 0 394.962C0 394.832 91.29 394.737 203.93 394.737C316.57 394.737 407.842 394.84 407.842 394.962Z" fill="#263238"/>
<path d="M354.744 171.81H49.749C42.788 171.81 37.145 177.453 37.145 184.414V377.565C37.145 384.526 42.788 390.169 49.749 390.169H354.744C361.705 390.169 367.348 384.526 367.348 377.565V184.414C367.348 177.453 361.705 171.81 354.744 171.81Z" fill="#455A64"/>
<path d="M24.2388 376.069H381.994V380.1C381.994 384.096 380.406 387.929 377.58 390.755C374.754 393.582 370.921 395.169 366.925 395.169H39.3082C35.3115 395.169 31.4785 393.582 28.6525 390.755C25.8264 387.929 24.2388 384.096 24.2388 380.1V376.069Z" fill="#455A64"/>
<path d="M357.556 180.487H46.0034V364.892H357.556V180.487Z" fill="#263238"/>
<path d="M169.69 374.027L174.137 381.086H236.603L240.721 374.027H169.69Z" fill="#263238"/>
<path d="M348.957 186.732H55.2511C53.6888 186.732 52.4224 187.999 52.4224 189.561V361.475C52.4224 363.037 53.6888 364.304 55.2511 364.304H348.957C350.519 364.304 351.786 363.037 351.786 361.475V189.561C351.786 187.999 350.519 186.732 348.957 186.732Z" fill="#EBEBEB"/>
<path d="M351.466 364.563H52.1021L52.4221 200.002H351.466V364.563Z" fill="#FAFAFA"/>
<path d="M76.9729 193.592C76.9712 194.064 76.8297 194.525 76.5663 194.916C76.3029 195.308 75.9294 195.613 75.493 195.792C75.0566 195.971 74.5768 196.017 74.1142 195.924C73.6517 195.831 73.227 195.603 72.894 195.269C72.561 194.935 72.3344 194.509 72.243 194.046C72.1516 193.583 72.1994 193.104 72.3803 192.668C72.5613 192.232 72.8673 191.86 73.2598 191.598C73.6522 191.336 74.1135 191.196 74.5853 191.196C74.8996 191.196 75.2108 191.258 75.501 191.379C75.7912 191.499 76.0548 191.676 76.2766 191.898C76.4985 192.121 76.6742 192.385 76.7936 192.676C76.9131 192.967 76.974 193.278 76.9729 193.592Z" fill="#263238"/>
<path d="M62.4834 193.592C62.4834 194.067 62.3426 194.53 62.0789 194.925C61.8152 195.319 61.4405 195.626 61.0021 195.807C60.5638 195.988 60.0815 196.035 59.6165 195.942C59.1514 195.849 58.7245 195.62 58.3897 195.284C58.0549 194.948 57.8274 194.52 57.7359 194.055C57.6444 193.589 57.6931 193.107 57.8758 192.669C58.0585 192.232 58.367 191.858 58.7622 191.596C59.1574 191.333 59.6215 191.194 60.0958 191.196C60.4101 191.196 60.7212 191.258 61.0115 191.379C61.3017 191.499 61.5653 191.676 61.7871 191.898C62.0089 192.121 62.1846 192.385 62.3041 192.676C62.4236 192.967 62.4845 193.278 62.4834 193.592Z" fill="#263238"/>
<path d="M69.4382 193.592C69.4365 194.064 69.295 194.525 69.0316 194.916C68.7682 195.308 68.3948 195.613 67.9583 195.792C67.5219 195.971 67.0421 196.017 66.5796 195.924C66.117 195.831 65.6924 195.603 65.3593 195.269C65.0263 194.935 64.7998 194.509 64.7083 194.046C64.6169 193.583 64.6647 193.104 64.8457 192.668C65.0266 192.232 65.3326 191.86 65.7251 191.598C66.1175 191.336 66.5788 191.196 67.0506 191.196C67.3649 191.196 67.6761 191.258 67.9663 191.379C68.2566 191.499 68.5202 191.676 68.742 191.898C68.9638 192.121 69.1395 192.385 69.259 192.676C69.3784 192.967 69.4394 193.278 69.4382 193.592Z" fill="#263238"/>
<path d="M364.511 374.027C364.511 374.14 291.223 374.235 200.832 374.235C110.442 374.235 37.145 374.14 37.145 374.027C37.145 373.915 110.416 373.811 200.832 373.811C291.248 373.811 364.511 373.897 364.511 374.027Z" fill="#263238"/>
<path d="M319.934 270.851C315.763 274.447 312.666 279.126 310.987 284.372C309.308 289.617 309.111 295.224 310.419 300.575C306.518 299.805 302.487 300.005 298.682 301.157C294.876 302.31 291.412 304.379 288.593 307.183C285.774 309.988 283.687 313.441 282.515 317.241C281.343 321.04 281.122 325.07 281.871 328.975C273.299 323.075 260.193 325.281 254.025 333.672C253.895 328.136 253.679 322.296 250.773 317.582C247.866 312.867 241.257 309.961 236.594 312.954C238.361 310.94 239.435 308.412 239.656 305.742C239.878 303.072 239.236 300.402 237.825 298.125C236.414 295.847 234.309 294.084 231.819 293.093C229.33 292.103 226.589 291.939 223.999 292.625C223.869 285.981 219.673 238.939 216.213 199.25H186.663C183.202 238.247 179.249 283.04 179.119 289.519C176.523 288.818 173.769 288.975 171.269 289.964C168.768 290.954 166.653 292.724 165.239 295.012C163.825 297.299 163.187 299.982 163.42 302.662C163.653 305.341 164.745 307.873 166.533 309.883C161.87 306.89 155.287 309.805 152.354 314.511C149.422 319.217 149.223 325.065 149.093 330.601C142.925 322.219 129.828 320.004 121.247 325.904C121.996 321.999 121.775 317.97 120.603 314.17C119.431 310.37 117.344 306.917 114.525 304.112C111.707 301.308 108.242 299.239 104.437 298.086C100.631 296.934 96.6007 296.734 92.6996 297.504C94.0857 292.153 93.9247 286.52 92.2353 281.257C90.546 275.995 87.3976 271.32 83.1563 267.777C78.915 264.233 73.7549 261.966 68.2761 261.239C62.7972 260.512 57.2246 261.356 52.2061 263.671V364.477H350.912V266.725C345.871 264.485 340.308 263.685 334.841 264.414C329.373 265.142 324.213 267.37 319.934 270.851Z" fill="#35B6FA"/>
<g opacity="0.8">
<path opacity="0.8" d="M319.934 270.851C315.763 274.447 312.666 279.126 310.987 284.372C309.308 289.617 309.111 295.224 310.419 300.575C306.518 299.805 302.487 300.005 298.682 301.157C294.876 302.31 291.412 304.379 288.593 307.183C285.774 309.988 283.687 313.441 282.515 317.241C281.343 321.04 281.122 325.07 281.871 328.975C273.299 323.075 260.193 325.281 254.025 333.672C253.895 328.136 253.679 322.296 250.773 317.582C247.866 312.867 241.257 309.961 236.594 312.954C238.361 310.94 239.435 308.412 239.656 305.742C239.878 303.072 239.236 300.402 237.825 298.125C236.414 295.847 234.309 294.084 231.819 293.093C229.33 292.103 226.589 291.939 223.999 292.625C223.869 285.981 219.673 238.939 216.213 199.25H186.663C183.202 238.247 179.249 283.04 179.119 289.519C176.523 288.818 173.769 288.975 171.269 289.964C168.768 290.954 166.653 292.724 165.239 295.012C163.825 297.299 163.187 299.982 163.42 302.662C163.653 305.341 164.745 307.873 166.533 309.883C161.87 306.89 155.287 309.805 152.354 314.511C149.422 319.217 149.223 325.065 149.093 330.601C142.925 322.219 129.828 320.004 121.247 325.904C121.996 321.999 121.775 317.97 120.603 314.17C119.431 310.37 117.344 306.917 114.525 304.112C111.707 301.308 108.242 299.239 104.437 298.086C100.631 296.934 96.6007 296.734 92.6996 297.504C94.0857 292.153 93.9247 286.52 92.2353 281.257C90.546 275.995 87.3976 271.32 83.1563 267.777C78.915 264.233 73.7549 261.966 68.2761 261.239C62.7972 260.512 57.2246 261.356 52.2061 263.671V364.477H350.912V266.725C345.871 264.485 340.308 263.685 334.841 264.414C329.373 265.142 324.213 267.37 319.934 270.851Z" fill="white"/>
</g>
<path d="M318.11 344.347C312.749 340.746 306.706 338.283 300.356 337.111C294.005 335.939 287.482 336.082 281.189 337.532C274.896 338.981 268.968 341.707 263.77 345.54C258.573 349.372 254.217 354.231 250.972 359.814C248.344 356.263 244.911 353.388 240.955 351.423C241.235 350.677 241.469 349.914 241.655 349.139C242.421 345.825 242.328 342.37 241.385 339.102C240.442 335.834 238.68 332.861 236.267 330.464C233.853 328.067 230.868 326.326 227.593 325.405C224.319 324.484 220.864 324.415 217.555 325.203L208.714 199.25H197.122V315.073C189.942 316.172 184.933 324.675 187.468 331.509C184.966 331.898 182.597 332.889 180.563 334.396C178.529 335.903 176.891 337.881 175.789 340.16C175.097 341.648 174.994 344.797 175.591 348.361C171.214 348.441 166.914 349.517 163.016 351.51C159.119 353.502 155.727 356.357 153.099 359.857C149.854 354.274 145.498 349.416 140.301 345.583C135.103 341.75 129.175 339.025 122.882 337.575C116.589 336.125 110.065 335.982 103.715 337.154C97.3645 338.326 91.322 340.789 85.9614 344.39C82.925 329.684 66.4802 319.234 51.8779 322.764V364.745L186.646 364.572C187.572 364.836 188.53 364.97 189.492 364.97L222.434 364.581L352.254 364.745V322.686C337.617 319.191 321.172 329.641 318.11 344.347Z" fill="#35B6FA"/>
<g opacity="0.6">
<path opacity="0.6" d="M318.11 344.347C312.749 340.746 306.706 338.283 300.356 337.111C294.005 335.939 287.482 336.082 281.189 337.532C274.896 338.981 268.968 341.707 263.77 345.54C258.573 349.372 254.217 354.231 250.972 359.814C248.344 356.263 244.911 353.388 240.955 351.423C241.235 350.677 241.469 349.914 241.655 349.139C242.421 345.825 242.328 342.37 241.385 339.102C240.442 335.834 238.68 332.861 236.267 330.464C233.853 328.067 230.868 326.326 227.593 325.405C224.319 324.484 220.864 324.415 217.555 325.203L208.714 199.25H197.122V315.073C189.942 316.172 184.933 324.675 187.468 331.509C184.966 331.898 182.597 332.889 180.563 334.396C178.529 335.903 176.891 337.881 175.789 340.16C175.097 341.648 174.994 344.797 175.591 348.361C171.214 348.441 166.914 349.517 163.016 351.51C159.119 353.502 155.727 356.357 153.099 359.857C149.854 354.274 145.498 349.416 140.301 345.583C135.103 341.75 129.175 339.025 122.882 337.575C116.589 336.125 110.065 335.982 103.715 337.154C97.3645 338.326 91.322 340.789 85.9614 344.39C82.925 329.684 66.4802 319.234 51.8779 322.764V364.745L186.646 364.572C187.572 364.836 188.53 364.97 189.492 364.97L222.434 364.581L352.254 364.745V322.686C337.617 319.191 321.172 329.641 318.11 344.347Z" fill="white"/>
</g>
<path d="M190.296 159.82C183.653 162.978 180.642 172.078 184.103 178.575C185.469 181.17 187.701 183.393 187.995 186.283C188.445 190.712 184.258 194.172 182.961 198.393C182.302 200.924 182.648 203.61 183.925 205.892C185.202 208.173 187.311 209.872 189.812 210.634C192.087 211.231 194.812 211.127 196.334 212.918C198.281 215.202 196.871 218.973 198.54 221.491C200.037 223.748 203.54 223.861 205.798 222.356C208.056 220.85 209.302 218.247 210.193 215.686C211.084 213.125 211.75 210.435 213.29 208.203C215.02 205.755 217.572 204.077 219.631 201.923C224.579 196.733 226.093 188.947 224.977 181.845C223.861 174.743 220.426 168.246 216.542 162.217" fill="#35B6FA"/>
<g opacity="0.3">
<path opacity="0.3" d="M190.296 159.82C183.653 162.978 180.642 172.078 184.103 178.575C185.469 181.17 187.701 183.393 187.995 186.283C188.445 190.712 184.258 194.172 182.961 198.393C182.302 200.924 182.648 203.61 183.925 205.892C185.202 208.173 187.311 209.872 189.812 210.634C192.087 211.231 194.812 211.127 196.334 212.918C198.281 215.202 196.871 218.973 198.54 221.491C200.037 223.748 203.54 223.861 205.798 222.356C208.056 220.85 209.302 218.247 210.193 215.686C211.084 213.125 211.75 210.435 213.29 208.203C215.02 205.755 217.572 204.077 219.631 201.923C224.579 196.733 226.093 188.947 224.977 181.845C223.861 174.743 220.426 168.246 216.542 162.217" fill="white"/>
</g>
<path d="M196.135 163.557C190.504 166.04 188.038 173.852 191.222 179.128C193.168 182.347 196.94 185.253 196.023 188.895C195.4 191.369 192.753 192.883 191.992 195.314C190.98 198.549 194.042 201.983 197.416 202.39C200.789 202.797 204.042 200.997 206.594 198.757C215.426 190.971 217.58 175.746 212.07 165.357" fill="#35B6FA"/>
<path d="M225.167 114.041C225.167 114.041 254.095 133.176 250.937 166.282L224.345 154.344L225.167 114.041Z" fill="#35B6FA"/>
<path d="M177.104 153.678L183.678 164.569H217.771L224.345 154.301L177.104 153.678Z" fill="#263238"/>
<path d="M198.956 43.7894C192.468 44.2242 186.398 47.142 182.006 51.9364C177.615 56.7309 175.239 63.0333 175.374 69.5337L177.104 154.31H224.345L225.92 69.4905C225.986 65.9887 225.324 62.5113 223.976 59.2788C222.628 56.0464 220.622 53.1294 218.087 50.7129C215.552 48.2964 212.542 46.4332 209.249 45.2413C205.955 44.0495 202.45 43.5551 198.956 43.7894Z" fill="#35B6FA"/>
<g opacity="0.8">
<path opacity="0.8" d="M198.956 43.7894C192.468 44.2242 186.398 47.142 182.006 51.9364C177.615 56.7309 175.239 63.0333 175.374 69.5337L177.104 154.31H224.345L225.92 69.4905C225.986 65.9887 225.324 62.5113 223.976 59.2788C222.628 56.0464 220.622 53.1294 218.087 50.7129C215.552 48.2964 212.542 46.4332 209.249 45.2413C205.955 44.0495 202.45 43.5551 198.956 43.7894Z" fill="white"/>
</g>
<path d="M176.239 114.041C176.239 114.041 147.346 133.176 150.512 166.282L177.104 154.327L176.239 114.041Z" fill="#35B6FA"/>
<path d="M175.633 66.7222C185.625 57.9764 216.983 58.1667 225.4 65.2862C223.238 33.8152 199.206 22.0331 199.206 22.0331C174.621 39.0575 175.633 66.7222 175.633 66.7222Z" fill="#35B6FA"/>
<path d="M199.207 22.0418L199.492 22.3013C199.674 22.4743 199.95 22.7252 200.297 23.0626L201.611 24.3083L202.476 25.1041L203.342 26.073C203.964 26.7564 204.674 27.509 205.426 28.3568L207.727 31.2288C208.117 31.7565 208.506 32.3274 208.913 32.8983C209.319 33.4693 209.778 34.0575 210.141 34.7063C210.911 35.9866 211.767 37.3015 212.503 38.8154C214.19 42.0329 215.499 45.4351 216.404 48.9539C216.914 50.9103 217.293 52.8986 217.537 54.9055C217.684 55.9436 217.762 56.999 217.909 58.0457C218.003 59.133 218.041 60.2245 218.022 61.3157C218.022 70.096 217.909 79.7501 217.797 89.8627C217.555 110.14 217.269 128.488 217.053 141.766C216.94 148.401 216.845 153.774 216.776 157.493C216.776 159.345 216.707 160.789 216.689 161.819C216.689 162.303 216.689 162.684 216.689 162.926C216.689 163.168 216.689 163.307 216.689 163.307C216.689 163.307 216.689 163.177 216.689 162.926C216.689 162.675 216.689 162.303 216.689 161.819C216.689 160.832 216.689 159.388 216.733 157.493C216.776 153.774 216.845 148.401 216.923 141.766C217.096 128.47 217.33 110.122 217.598 89.8627C217.71 79.7242 217.84 70.0701 217.84 61.3157C217.864 60.2359 217.826 59.1558 217.728 58.0803C217.589 57.0163 217.511 55.9696 217.373 54.9401C217.131 52.9391 216.755 50.9565 216.248 49.0058C215.355 45.5019 214.063 42.1119 212.399 38.9019C211.62 37.388 210.764 36.0731 209.977 34.7928C209.596 34.144 209.112 33.5731 208.757 32.9849C208.402 32.3966 207.978 31.843 207.589 31.3153L205.305 28.4346C204.561 27.5696 203.861 26.8343 203.238 26.1422L202.373 25.1647L201.551 24.3602L200.253 23.0972L199.466 22.3186L199.207 22.0418Z" fill="#263238"/>
<path d="M210.255 88.1599C211.74 81.4326 207.876 74.8602 201.625 73.48C195.373 72.0998 189.101 76.4345 187.616 83.1618C186.131 89.8891 189.995 96.4615 196.246 97.8417C202.497 99.2219 208.769 94.8872 210.255 88.1599Z" fill="#FAFAFA"/>
<path d="M201.621 73.4784C201.555 73.488 201.488 73.488 201.422 73.4784L200.859 73.4005L200.444 73.3313H199.934H199.346C199.129 73.3313 198.904 73.3313 198.671 73.3313C198.145 73.3641 197.621 73.4334 197.105 73.539C196.491 73.6692 195.889 73.8515 195.306 74.0839C193.881 74.6523 192.578 75.486 191.465 76.5407C190.116 77.8139 189.061 79.367 188.377 81.0909C188.186 81.5613 188.027 82.0439 187.901 82.5356C187.84 82.7865 187.762 83.0373 187.702 83.2882L187.572 84.0668L187.503 84.4647V84.8626C187.503 85.1308 187.46 85.4076 187.442 85.6758C187.425 85.9439 187.442 86.2208 187.442 86.4976V86.9128L187.486 87.3367C187.714 89.687 188.615 91.9217 190.081 93.7728C191.625 95.7846 193.829 97.1876 196.305 97.735C198.781 98.2825 201.371 97.9393 203.619 96.7659C205.718 95.6902 207.465 94.0362 208.654 91.9994L208.87 91.6447L209.052 91.2641L209.415 90.5288L209.7 89.7675L209.839 89.3869L209.951 88.9976L210.159 88.2364C210.219 87.9855 210.245 87.726 210.297 87.4751C210.384 86.9743 210.442 86.4688 210.47 85.9612C210.585 84.1088 210.29 82.2537 209.605 80.5287C208.813 78.5096 207.481 76.747 205.756 75.4334C205.331 75.1169 204.886 74.8279 204.423 74.5684C204.207 74.4646 204.017 74.3435 203.827 74.257L203.282 74.032L202.806 73.8417L202.408 73.7206L201.854 73.5562C201.791 73.5401 201.73 73.5169 201.673 73.487H201.863L202.416 73.6255L202.832 73.7379L203.307 73.9196L203.861 74.1358L204.467 74.4386C204.941 74.6971 205.397 74.986 205.833 75.3037C206.339 75.6863 206.816 76.1056 207.261 76.558C208.337 77.6745 209.189 78.9872 209.77 80.4248C210.484 82.1698 210.801 84.0525 210.695 85.9353C210.674 86.4516 210.619 86.966 210.531 87.4751C210.479 87.7346 210.453 87.9941 210.392 88.2537C210.332 88.5132 210.254 88.7727 210.176 89.0322L210.072 89.4215L209.934 89.8021L209.64 90.5807L209.276 91.3333L209.095 91.7226L208.87 92.0859C207.669 94.1677 205.89 95.8565 203.749 96.9475C201.452 98.1529 198.803 98.5075 196.27 97.9487C193.738 97.3899 191.484 95.9537 189.908 93.8939C188.427 91.9982 187.526 89.7151 187.312 87.3194V86.8955V86.4716C187.312 86.1948 187.312 85.9093 187.312 85.6066C187.312 85.3038 187.313 85.0529 187.382 84.7415V84.3349L187.442 83.9284C187.494 83.6688 187.537 83.4007 187.581 83.1411C187.624 82.8816 187.719 82.6308 187.788 82.3712C187.916 81.8724 188.081 81.3837 188.281 80.9093C188.978 79.1568 190.057 77.5817 191.439 76.2985C192.573 75.2395 193.901 74.4083 195.349 73.8504C195.941 73.6204 196.552 73.4409 197.174 73.314C197.697 73.2141 198.226 73.1505 198.757 73.1237C198.999 73.1237 199.224 73.1237 199.441 73.1237H200.038H200.548L200.963 73.2016L201.525 73.3054L201.621 73.4784Z" fill="#263238"/>
<path d="M186.984 83.7899C186.984 83.937 184.319 83.8678 181.11 84.4474C177.9 85.027 175.426 85.9958 175.375 85.8574C175.851 85.5112 176.383 85.2506 176.949 85.0875C179.598 84.0935 182.407 83.595 185.236 83.6169C185.824 83.5793 186.414 83.6377 186.984 83.7899Z" fill="#263238"/>
<path d="M225.176 83.7726C224.462 83.7773 223.749 83.7107 223.048 83.5736C221.75 83.4179 219.951 83.2103 217.961 83.0633C215.972 82.9162 214.164 82.8816 212.849 82.8556C212.138 82.8937 211.425 82.8618 210.721 82.7605C211.412 82.5809 212.126 82.4994 212.84 82.5183C214.57 82.4398 216.303 82.4629 218.03 82.5875C219.743 82.7066 221.447 82.9232 223.134 83.2363C223.834 83.3298 224.52 83.51 225.176 83.7726Z" fill="#263238"/>
<path d="M225.435 132.285C225.268 132.308 225.099 132.308 224.933 132.285L223.506 132.173L218.255 131.775C213.826 131.464 207.692 131.161 200.953 131.169C194.215 131.178 188.047 131.49 183.609 131.81L178.367 132.225L176.939 132.329C176.773 132.353 176.604 132.353 176.438 132.329C176.597 132.272 176.762 132.238 176.931 132.225L178.349 132.026C179.578 131.861 181.368 131.663 183.54 131.464C187.969 131.048 194.119 130.685 200.91 130.676C207.701 130.668 213.886 131.022 218.272 131.429C220.495 131.628 222.277 131.818 223.514 131.983L224.933 132.173C225.104 132.188 225.273 132.225 225.435 132.285Z" fill="#263238"/>
<path d="M188.237 95.9441C188.237 96.0133 187.943 96.0392 187.744 96.3766C187.686 96.4634 187.648 96.5617 187.631 96.6647C187.615 96.7677 187.621 96.873 187.649 96.9735C187.693 97.0799 187.767 97.171 187.863 97.2356C187.958 97.3002 188.07 97.3354 188.185 97.3368C188.301 97.3542 188.419 97.3373 188.525 97.2881C188.631 97.2389 188.721 97.1595 188.782 97.06C188.825 96.9648 188.847 96.8616 188.847 96.7572C188.847 96.6528 188.825 96.5496 188.782 96.4544C188.635 96.0911 188.35 96.0219 188.367 95.9527C188.384 95.8835 188.765 95.8229 189.085 96.2901C189.175 96.4296 189.232 96.5883 189.25 96.7535C189.268 96.9188 189.247 97.086 189.189 97.2417C189.102 97.4356 188.955 97.5965 188.769 97.7008C188.584 97.8051 188.37 97.8473 188.159 97.8212C187.977 97.8116 187.802 97.7509 187.653 97.646C187.504 97.5411 187.388 97.3964 187.317 97.2284C187.247 97.0604 187.225 96.876 187.255 96.6962C187.284 96.5165 187.364 96.3487 187.484 96.2122C187.865 95.7537 188.272 95.8835 188.237 95.9441Z" fill="#263238"/>
<path d="M198.532 101.489C198.532 101.567 198.238 101.593 198.039 101.93C197.983 102.016 197.946 102.113 197.929 102.214C197.913 102.316 197.918 102.419 197.944 102.518C197.986 102.627 198.059 102.721 198.155 102.787C198.25 102.854 198.364 102.89 198.48 102.89C198.597 102.906 198.715 102.887 198.821 102.836C198.927 102.786 199.016 102.705 199.077 102.605C199.118 102.511 199.139 102.409 199.139 102.307C199.139 102.204 199.118 102.102 199.077 102.008C198.921 101.645 198.636 101.576 198.653 101.506C198.671 101.437 199.051 101.377 199.371 101.844C199.462 101.982 199.518 102.139 199.536 102.303C199.554 102.467 199.533 102.632 199.475 102.787C199.388 102.981 199.242 103.143 199.057 103.249C198.871 103.355 198.658 103.399 198.446 103.375C198.255 103.373 198.07 103.314 197.912 103.207C197.755 103.1 197.633 102.949 197.561 102.772C197.489 102.596 197.47 102.403 197.508 102.216C197.545 102.029 197.637 101.858 197.771 101.723C198.16 101.307 198.567 101.403 198.532 101.489Z" fill="#263238"/>
<path d="M209.891 96.7572C209.891 96.8351 209.605 96.861 209.397 97.1984C209.341 97.2844 209.304 97.3811 209.288 97.4824C209.271 97.5837 209.276 97.6874 209.302 97.7866C209.347 97.8947 209.423 97.9873 209.52 98.0534C209.616 98.1194 209.73 98.1559 209.847 98.1586C209.963 98.1758 210.081 98.1577 210.186 98.1067C210.29 98.0558 210.378 97.9744 210.436 97.8731C210.476 97.7789 210.497 97.6773 210.497 97.5747C210.497 97.472 210.476 97.3705 210.436 97.2762C210.289 96.9129 209.994 96.8437 210.012 96.7659C210.029 96.688 210.41 96.6447 210.73 97.1119C210.823 97.2482 210.883 97.4052 210.902 97.5695C210.922 97.7337 210.901 97.9003 210.842 98.0548C210.752 98.2485 210.603 98.4092 210.417 98.5147C210.231 98.6201 210.017 98.6649 209.804 98.643C209.592 98.6342 209.388 98.5583 209.222 98.4262C209.055 98.294 208.935 98.1125 208.878 97.9077C208.844 97.746 208.849 97.5784 208.893 97.4189C208.936 97.2594 209.018 97.1126 209.129 96.9908C209.519 96.5755 209.925 96.7053 209.891 96.7572Z" fill="#263238"/>
<path d="M213.584 88.271C213.584 88.3402 213.289 88.3661 213.082 88.7035C213.027 88.7916 212.991 88.8902 212.976 88.9929C212.961 89.0956 212.968 89.2003 212.995 89.3004C213.037 89.4091 213.11 89.5027 213.206 89.569C213.302 89.6354 213.415 89.6714 213.532 89.6724C213.647 89.6872 213.764 89.668 213.868 89.6173C213.973 89.5666 214.06 89.4865 214.12 89.3869C214.161 89.2927 214.182 89.1911 214.182 89.0884C214.182 88.9858 214.161 88.8842 214.12 88.79C213.973 88.4267 213.687 88.3488 213.696 88.2796C213.705 88.2104 214.094 88.1585 214.423 88.6256C214.514 88.7632 214.571 88.9206 214.589 89.0845C214.607 89.2485 214.585 89.4144 214.526 89.5685C214.438 89.7616 214.291 89.9217 214.106 90.0259C213.921 90.13 213.708 90.1728 213.497 90.1481C213.284 90.1398 213.078 90.0642 212.911 89.9321C212.743 89.8001 212.621 89.6183 212.563 89.4128C212.529 89.251 212.535 89.0836 212.578 88.9242C212.622 88.7649 212.702 88.6181 212.814 88.4959C213.203 88.0893 213.61 88.219 213.584 88.271Z" fill="#263238"/>
<path d="M184.483 87.4492C184.483 87.5184 184.189 87.5443 183.99 87.8817C183.934 87.9694 183.897 88.0676 183.881 88.1703C183.864 88.273 183.869 88.3779 183.895 88.4786C183.937 88.5866 184.011 88.6796 184.107 88.7458C184.202 88.812 184.315 88.8485 184.431 88.8506C184.547 88.8639 184.665 88.8441 184.771 88.7937C184.876 88.7432 184.965 88.664 185.028 88.5651C185.071 88.4714 185.093 88.3697 185.093 88.2667C185.093 88.1637 185.071 88.0619 185.028 87.9682C184.881 87.6049 184.595 87.527 184.613 87.4578C184.63 87.3886 185.011 87.3367 185.331 87.8039C185.422 87.9415 185.479 88.0988 185.497 88.2628C185.515 88.4267 185.493 88.5927 185.435 88.7468C185.347 88.9407 185.2 89.1016 185.015 89.2059C184.83 89.3102 184.616 89.3524 184.405 89.3264C184.192 89.318 183.986 89.2424 183.819 89.1103C183.651 88.9783 183.529 88.7965 183.471 88.5911C183.437 88.4286 183.443 88.2604 183.488 88.1007C183.533 87.9411 183.616 87.7947 183.73 87.6741C184.111 87.2675 184.518 87.3973 184.483 87.4492Z" fill="#263238"/>
<path d="M209.873 75.8054C209.873 75.7362 210.167 75.7103 210.366 75.3729C210.423 75.286 210.462 75.1878 210.478 75.0848C210.495 74.9818 210.489 74.8765 210.461 74.776C210.416 74.6692 210.342 74.5775 210.247 74.5116C210.152 74.4456 210.04 74.4083 209.924 74.404C209.809 74.3892 209.692 74.4083 209.588 74.459C209.483 74.5097 209.396 74.5898 209.336 74.6895C209.291 74.7825 209.268 74.8845 209.268 74.9879C209.268 75.0913 209.291 75.1934 209.336 75.2864C209.483 75.6497 209.769 75.7276 209.751 75.7968C209.734 75.866 209.354 75.9179 209.033 75.4507C208.942 75.3131 208.886 75.1558 208.868 74.9918C208.85 74.8278 208.871 74.6619 208.93 74.5078C209.017 74.3139 209.164 74.153 209.349 74.0487C209.534 73.9444 209.748 73.9022 209.959 73.9282C210.149 73.9306 210.335 73.989 210.492 74.0961C210.65 74.2033 210.772 74.3544 210.844 74.5307C210.916 74.707 210.935 74.9006 210.897 75.0873C210.86 75.274 210.768 75.4455 210.634 75.5805C210.245 75.9957 209.838 75.8573 209.873 75.8054Z" fill="#263238"/>
<path d="M198.514 70.7707C198.514 70.7015 198.808 70.6756 199.007 70.3382C199.063 70.2505 199.1 70.1523 199.117 70.0496C199.133 69.947 199.128 69.842 199.103 69.7413C199.057 69.6339 198.981 69.5418 198.884 69.4759C198.788 69.41 198.674 69.3731 198.558 69.3693C198.442 69.3545 198.325 69.3737 198.221 69.4244C198.116 69.4751 198.029 69.5552 197.969 69.6548C197.929 69.749 197.908 69.8506 197.908 69.9533C197.908 70.0559 197.929 70.1575 197.969 70.2517C198.116 70.6237 198.411 70.6929 198.393 70.7621C198.376 70.8313 197.995 70.8918 197.675 70.4161C197.56 70.2626 197.494 70.0784 197.485 69.887C197.476 69.6956 197.524 69.5058 197.624 69.3421C197.723 69.1784 197.869 69.0481 198.044 68.9682C198.218 68.8883 198.412 68.8623 198.601 68.8936C198.813 68.9024 199.017 68.9783 199.183 69.1104C199.35 69.2426 199.47 69.4241 199.526 69.6289C199.56 69.7906 199.555 69.9581 199.511 70.1175C199.468 70.2768 199.387 70.4236 199.276 70.5458C198.886 70.9611 198.48 70.8313 198.514 70.7707Z" fill="#263238"/>
<path d="M187.286 75.8053C187.286 75.7361 187.58 75.7102 187.779 75.3728C187.835 75.2851 187.872 75.1869 187.888 75.0842C187.905 74.9816 187.9 74.8766 187.874 74.7759C187.828 74.6685 187.752 74.5764 187.656 74.5105C187.559 74.4446 187.446 74.4077 187.329 74.4039C187.214 74.3891 187.097 74.4083 186.992 74.459C186.888 74.5097 186.8 74.5898 186.741 74.6894C186.7 74.7837 186.679 74.8852 186.679 74.9879C186.679 75.0905 186.7 75.1921 186.741 75.2863C186.888 75.6496 187.182 75.7275 187.165 75.7967C187.147 75.8659 186.767 75.9178 186.447 75.4507C186.332 75.2972 186.266 75.113 186.256 74.9216C186.247 74.7302 186.296 74.5404 186.395 74.3767C186.495 74.213 186.641 74.0827 186.815 74.0028C186.989 73.9229 187.183 73.8969 187.372 73.9282C187.585 73.937 187.789 74.0129 187.955 74.145C188.121 74.2772 188.241 74.4587 188.298 74.6635C188.331 74.8253 188.326 74.9927 188.283 75.1521C188.239 75.3114 188.158 75.4582 188.047 75.5804C187.658 75.9957 187.251 75.8573 187.286 75.8053Z" fill="#263238"/>
<path d="M197.078 117.519L198.09 168.134C198.106 168.836 198.4 169.504 198.908 169.991C199.415 170.477 200.095 170.743 200.798 170.729C201.481 170.713 202.132 170.435 202.616 169.952C203.099 169.468 203.378 168.817 203.393 168.134C203.497 159.016 203.834 128.341 203.886 117.467C203.888 116.976 203.784 116.491 203.58 116.044C203.377 115.598 203.079 115.201 202.707 114.88C202.336 114.56 201.899 114.323 201.428 114.188C200.956 114.052 200.461 114.019 199.976 114.093C199.16 114.217 198.417 114.632 197.884 115.262C197.351 115.892 197.065 116.694 197.078 117.519Z" fill="#35B6FA"/>
<g opacity="0.3">
<path opacity="0.3" d="M197.078 117.519L198.09 168.134C198.106 168.836 198.4 169.504 198.908 169.991C199.415 170.477 200.095 170.743 200.798 170.729C201.481 170.713 202.132 170.435 202.616 169.952C203.099 169.468 203.378 168.817 203.393 168.134C203.497 159.016 203.834 128.341 203.886 117.467C203.888 116.976 203.784 116.491 203.58 116.044C203.377 115.598 203.079 115.201 202.707 114.88C202.336 114.56 201.899 114.323 201.428 114.188C200.956 114.052 200.461 114.019 199.976 114.093C199.16 114.217 198.417 114.632 197.884 115.262C197.351 115.892 197.065 116.694 197.078 117.519Z" fill="black"/>
</g>
<path d="M198.644 24.9311C198.791 25.1041 197.113 26.7304 194.665 29.5851C193.436 31.0038 192.07 32.7685 190.625 34.7755C189.089 36.9777 187.674 39.262 186.386 41.6181C185.131 43.9883 184.008 46.4257 183.021 48.9193C182.156 51.229 181.421 53.3484 180.91 55.1564C179.881 58.7723 179.448 61.0734 179.18 61.0388C178.912 61.0042 179.085 58.6512 179.881 54.9055C180.358 52.7166 180.976 50.5609 181.732 48.4521C182.669 45.8689 183.785 43.3541 185.071 40.9261C186.393 38.5239 187.873 36.212 189.5 34.0056C190.844 32.2115 192.304 30.5066 193.869 28.9017C196.594 26.1422 198.532 24.8013 198.644 24.9311Z" fill="white"/>
<path d="M175.175 119.076C175.313 119.292 172.917 120.806 169.578 123.938L168.289 125.166C167.839 125.598 167.424 126.092 166.957 126.567C166.014 127.519 165.132 128.643 164.171 129.794C162.167 132.352 160.387 135.079 158.851 137.943C157.354 140.831 156.104 143.841 155.114 146.94C154.708 148.376 154.249 149.742 154.024 151.049C153.886 151.706 153.721 152.329 153.618 152.943C153.514 153.557 153.419 154.137 153.332 154.673C152.657 159.18 152.718 162.026 152.467 162.035C152.363 162.035 152.268 161.334 152.182 160.037C152.182 159.708 152.138 159.345 152.121 158.955C152.104 158.566 152.121 158.133 152.121 157.675C152.128 156.632 152.188 155.589 152.303 154.552C152.363 153.973 152.432 153.367 152.502 152.735C152.571 152.104 152.718 151.455 152.83 150.789C153.047 149.431 153.436 148.021 153.825 146.533C155.661 140.08 158.829 134.083 163.125 128.929C164.056 127.808 165.044 126.734 166.083 125.711C166.568 125.235 167.026 124.751 167.502 124.335L168.886 123.15C169.679 122.469 170.508 121.831 171.369 121.239C171.741 120.97 172.087 120.711 172.415 120.495L173.341 119.941C174.509 119.309 175.114 118.989 175.175 119.076Z" fill="white"/>
<path d="M137.943 284.112C136.779 283.453 135.846 282.452 135.269 281.245C134.692 280.038 134.499 278.683 134.715 277.363C134.932 276.043 135.549 274.822 136.482 273.863C137.414 272.904 138.619 272.254 139.933 272.002C142.303 271.534 145.27 272.209 146.758 270.271C148.116 268.541 147.095 266.258 147.692 263.489C148.289 260.721 150.668 259.415 153.289 259.45C154.603 259.526 155.876 259.934 156.99 260.636C158.103 261.338 159.021 262.311 159.656 263.463C161.059 266.026 161.693 268.94 161.481 271.855C160.781 277.832 157.588 280.894 153.618 283.429C149.647 285.964 142.13 286.543 137.943 284.061" fill="#35B6FA"/>
<g opacity="0.8">
<path opacity="0.8" d="M137.943 284.112C136.779 283.453 135.846 282.452 135.269 281.245C134.692 280.038 134.499 278.683 134.715 277.363C134.932 276.043 135.549 274.822 136.482 273.863C137.414 272.904 138.619 272.254 139.933 272.002C142.303 271.534 145.27 272.209 146.758 270.271C148.116 268.541 147.095 266.258 147.692 263.489C148.289 260.721 150.668 259.415 153.289 259.45C154.603 259.526 155.876 259.934 156.99 260.636C158.103 261.338 159.021 262.311 159.656 263.463C161.059 266.026 161.693 268.94 161.481 271.855C160.781 277.832 157.588 280.894 153.618 283.429C149.647 285.964 142.13 286.543 137.943 284.061" fill="white"/>
</g>
<path d="M234.994 236.197C235.958 234.353 237.463 232.847 239.307 231.882C241.15 230.917 243.245 230.539 245.31 230.798C247.375 231.056 249.311 231.94 250.859 233.33C252.408 234.72 253.494 236.551 253.974 238.576C254.839 242.252 253.974 246.906 257.027 249.129C259.804 251.145 263.316 249.406 267.676 250.167C272.036 250.929 274.216 254.562 274.311 258.662C274.406 262.763 271.898 266.655 268.429 268.835C264.516 271.177 260.011 272.342 255.453 272.192C246.084 271.457 241.11 266.655 236.915 260.617C232.719 254.579 231.37 242.875 234.994 236.197Z" fill="#35B6FA"/>
<g opacity="0.8">
<path opacity="0.8" d="M234.994 236.197C235.958 234.353 237.463 232.847 239.307 231.882C241.15 230.917 243.245 230.539 245.31 230.798C247.375 231.056 249.311 231.94 250.859 233.33C252.408 234.72 253.494 236.551 253.974 238.576C254.839 242.252 253.974 246.906 257.027 249.129C259.804 251.145 263.316 249.406 267.676 250.167C272.036 250.929 274.216 254.562 274.311 258.662C274.406 262.763 271.898 266.655 268.429 268.835C264.516 271.177 260.011 272.342 255.453 272.192C246.084 271.457 241.11 266.655 236.915 260.617C232.719 254.579 231.37 242.875 234.994 236.197Z" fill="white"/>
</g>
<path d="M165.088 223.93C164.045 224.466 163.171 225.28 162.56 226.281C161.95 227.282 161.627 228.432 161.628 229.605C161.671 230.907 162.134 232.161 162.947 233.18C163.76 234.199 164.88 234.928 166.14 235.259C167.401 235.591 168.734 235.506 169.943 235.019C171.152 234.532 172.172 233.668 172.85 232.555C173.529 231.443 173.83 230.141 173.709 228.843C173.589 227.545 173.053 226.321 172.181 225.352C171.309 224.383 170.148 223.722 168.87 223.466C167.593 223.209 166.266 223.372 165.088 223.93Z" fill="#35B6FA"/>
<g opacity="0.8">
<path opacity="0.8" d="M165.088 223.93C164.045 224.466 163.171 225.28 162.56 226.281C161.95 227.282 161.627 228.432 161.628 229.605C161.671 230.907 162.134 232.161 162.947 233.18C163.76 234.199 164.88 234.928 166.14 235.259C167.401 235.591 168.734 235.506 169.943 235.019C171.152 234.532 172.172 233.668 172.85 232.555C173.529 231.443 173.83 230.141 173.709 228.843C173.589 227.545 173.053 226.321 172.181 225.352C171.309 224.383 170.148 223.722 168.87 223.466C167.593 223.209 166.266 223.372 165.088 223.93Z" fill="white"/>
</g>
<path d="M257.062 296.474C256.542 296.744 256.106 297.151 255.801 297.651C255.496 298.152 255.334 298.726 255.332 299.312C255.352 299.965 255.583 300.595 255.99 301.107C256.398 301.618 256.959 301.985 257.592 302.152C258.224 302.319 258.893 302.277 259.5 302.033C260.107 301.789 260.618 301.355 260.959 300.797C261.299 300.238 261.45 299.585 261.39 298.934C261.329 298.283 261.059 297.668 260.622 297.183C260.184 296.697 259.601 296.366 258.959 296.238C258.318 296.11 257.652 296.193 257.062 296.474Z" fill="#35B6FA"/>
<g opacity="0.8">
<path opacity="0.8" d="M257.062 296.474C256.542 296.744 256.106 297.151 255.801 297.651C255.496 298.152 255.334 298.726 255.332 299.312C255.352 299.965 255.583 300.595 255.99 301.107C256.398 301.618 256.959 301.985 257.592 302.152C258.224 302.319 258.893 302.277 259.5 302.033C260.107 301.789 260.618 301.355 260.959 300.797C261.299 300.238 261.45 299.585 261.39 298.934C261.329 298.283 261.059 297.668 260.622 297.183C260.184 296.697 259.601 296.366 258.959 296.238C258.318 296.11 257.652 296.193 257.062 296.474Z" fill="white"/>
</g>
<path d="M232.97 272.797H179.198C169.767 272.797 162.122 280.443 162.122 289.874V292.27C162.122 301.701 169.767 309.346 179.198 309.346H232.97C242.401 309.346 250.047 301.701 250.047 292.27V289.874C250.047 280.443 242.401 272.797 232.97 272.797Z" fill="#35B6FA"/>
<path d="M188.411 293.49L189.008 292.166C189.742 292.677 190.613 292.954 191.508 292.962C192.546 292.962 192.97 292.616 192.97 292.149C192.97 290.73 188.558 291.699 188.558 288.888C188.558 287.599 189.604 286.526 191.758 286.526C192.667 286.513 193.563 286.743 194.354 287.192L193.817 288.524C193.178 288.152 192.455 287.949 191.715 287.936C190.668 287.936 190.271 288.325 190.271 288.801C190.271 290.194 194.682 289.234 194.682 292.019C194.682 293.282 193.627 294.372 191.464 294.372C190.381 294.391 189.317 294.084 188.411 293.49Z" fill="white"/>
<path d="M197.381 288.083H194.95V286.656H201.559V288.083H199.137V294.242H197.407L197.381 288.083Z" fill="white"/>
<path d="M207.113 292.582H203.592L202.926 294.208H201.127L204.501 286.621H206.231L209.622 294.208H207.779L207.113 292.582ZM206.56 291.249L205.357 288.343L204.155 291.249H206.56Z" fill="white"/>
<path d="M215.254 294.242L213.783 292.123H212.174V294.242H210.444V286.656H213.731C215.755 286.656 217.018 287.703 217.018 289.407C217.039 289.918 216.9 290.423 216.621 290.852C216.342 291.282 215.937 291.614 215.461 291.803L217.191 294.242H215.254ZM213.601 288.083H212.174V290.73H213.601C214.674 290.73 215.219 290.229 215.219 289.407C215.219 288.585 214.674 288.083 213.601 288.083Z" fill="white"/>
<path d="M219.839 288.083H217.417V286.656H224.026V288.083H221.595V294.242H219.865L219.839 288.083Z" fill="white"/>
<path d="M339.026 378.006L349.251 381.596L349.139 391.423C344.242 392.807 343.559 395.281 343.559 395.281L353.793 395.048L362.694 376.942L355.653 372.34L342.486 366.579" fill="#35B6FA"/>
<g opacity="0.6">
<path opacity="0.6" d="M362.695 376.942L353.793 395.048L343.559 395.281L344.675 393.716L352.989 393.067L361.198 375.965L362.695 376.942Z" fill="white"/>
</g>
<path d="M349.104 386.925C349.182 387.029 349.762 386.674 350.558 386.683C351.353 386.691 351.933 387.003 352.011 386.899C352.089 386.795 351.518 386.216 350.558 386.233C349.597 386.25 349.009 386.873 349.104 386.925Z" fill="#263238"/>
<path d="M349.251 384.486C349.355 384.555 349.796 383.941 350.609 383.759C351.423 383.577 352.08 383.941 352.141 383.837C352.201 383.733 352.054 383.62 351.769 383.465C351.376 383.278 350.933 383.229 350.51 383.325C350.086 383.42 349.707 383.656 349.433 383.992C349.199 384.278 349.165 384.451 349.251 384.486Z" fill="#263238"/>
<path d="M349.078 381.354C349.191 381.406 349.528 380.809 350.238 380.549C350.947 380.29 351.587 380.506 351.639 380.385C351.691 380.264 351.527 380.195 351.241 380.1C350.861 379.97 350.448 379.977 350.072 380.119C349.696 380.261 349.382 380.53 349.182 380.878C349.035 381.138 349.027 381.337 349.078 381.354Z" fill="#263238"/>
<path d="M348.326 381.345C348.456 381.345 348.378 380.671 348.68 379.979C348.983 379.286 349.485 378.889 349.424 378.776C349.364 378.664 348.629 378.949 348.265 379.806C347.902 380.662 348.213 381.406 348.326 381.345Z" fill="#263238"/>
<path d="M347.115 380.195C347.266 379.752 347.348 379.288 347.357 378.819C347.4 378.326 347.444 377.833 347.496 377.323C347.539 377.007 347.539 376.687 347.496 376.371C347.442 376.162 347.313 375.98 347.132 375.861C347.028 375.793 346.906 375.756 346.782 375.756C346.657 375.756 346.536 375.793 346.432 375.861C346.155 376.101 345.954 376.417 345.852 376.769C345.747 377.067 345.686 377.379 345.67 377.695C345.64 378.225 345.732 378.754 345.938 379.243C346.302 380.108 346.804 380.376 346.804 380.342C346.578 379.95 346.376 379.546 346.198 379.131C346.053 378.679 346 378.202 346.042 377.729C346.073 377.454 346.137 377.184 346.233 376.925C346.309 376.662 346.452 376.424 346.648 376.233C346.679 376.21 346.717 376.197 346.756 376.197C346.795 376.197 346.833 376.21 346.864 376.233C346.949 376.287 347.01 376.37 347.037 376.466C347.068 376.737 347.068 377.009 347.037 377.28C347.037 377.79 347.037 378.292 346.994 378.785C346.958 379.258 346.999 379.734 347.115 380.195Z" fill="#263238"/>
<path d="M346.95 380.645C346.993 380.645 346.69 380.169 345.903 379.909C345.371 379.748 344.802 379.762 344.279 379.949C343.756 380.136 343.306 380.486 342.997 380.947C342.974 381.013 342.966 381.082 342.973 381.151C342.981 381.22 343.004 381.286 343.04 381.345C343.104 381.444 343.198 381.52 343.308 381.562C343.464 381.618 343.627 381.65 343.792 381.657C344.08 381.685 344.37 381.685 344.658 381.657C345.123 381.615 345.579 381.498 346.007 381.311C346.742 380.991 347.08 380.619 347.045 380.584C347.011 380.549 346.613 380.792 345.903 381.017C345.489 381.149 345.058 381.225 344.623 381.242C344.373 381.263 344.121 381.263 343.87 381.242C343.753 381.233 343.636 381.21 343.524 381.172C343.438 381.12 343.464 381.129 343.464 381.103C343.511 381.009 343.579 380.926 343.663 380.861C343.755 380.77 343.857 380.689 343.965 380.619C344.166 380.478 344.388 380.37 344.623 380.299C345.024 380.177 345.449 380.156 345.86 380.238C346.233 380.347 346.597 380.483 346.95 380.645Z" fill="#263238"/>
<g opacity="0.6">
<path opacity="0.6" d="M354.528 376.821C354.531 376.98 354.566 377.137 354.63 377.283C354.694 377.428 354.786 377.56 354.901 377.67C355.016 377.78 355.151 377.866 355.299 377.924C355.448 377.982 355.606 378.01 355.765 378.006C355.924 378.003 356.081 377.968 356.226 377.904C356.372 377.84 356.504 377.748 356.614 377.633C356.724 377.518 356.81 377.383 356.868 377.235C356.925 377.086 356.953 376.928 356.95 376.769C356.947 376.61 356.912 376.453 356.848 376.308C356.784 376.162 356.692 376.03 356.577 375.92C356.462 375.81 356.327 375.724 356.178 375.666C356.03 375.609 355.872 375.581 355.713 375.584C355.554 375.587 355.397 375.622 355.252 375.686C355.106 375.75 354.974 375.842 354.864 375.957C354.754 376.072 354.668 376.207 354.61 376.356C354.552 376.504 354.524 376.662 354.528 376.821Z" fill="white"/>
</g>
<path d="M286.569 373.897L286.708 387.288C286.708 387.288 273.135 391.934 272.918 394.408L298.87 395.074L299.51 374.191L286.569 373.897Z" fill="#35B6FA"/>
<g opacity="0.6">
<path opacity="0.6" d="M294.752 386.371C294.999 386.455 295.207 386.626 295.336 386.852C295.465 387.079 295.507 387.345 295.453 387.6C295.378 387.849 295.212 388.061 294.987 388.193C294.762 388.324 294.496 388.366 294.242 388.309C293.98 388.22 293.759 388.038 293.622 387.797C293.485 387.556 293.441 387.274 293.498 387.003C293.602 386.748 293.801 386.544 294.052 386.433C294.304 386.321 294.589 386.312 294.847 386.406" fill="white"/>
</g>
<g opacity="0.6">
<path opacity="0.6" d="M298.905 395.074V392.963L274 393.119C274 393.119 272.823 393.586 272.936 394.408L298.905 395.074Z" fill="white"/>
</g>
<path d="M286.284 387.15C286.284 387.271 286.924 387.349 287.538 387.773C288.152 388.197 288.464 388.742 288.585 388.69C288.706 388.638 288.533 387.903 287.78 387.409C287.028 386.916 286.266 387.029 286.284 387.15Z" fill="#263238"/>
<path d="M283.506 388.205C283.506 388.326 284.017 388.56 284.432 389.07C284.847 389.581 284.96 390.186 285.089 390.186C285.219 390.186 285.314 389.468 284.787 388.794C284.259 388.119 283.506 388.084 283.506 388.205Z" fill="#263238"/>
<path d="M281.897 391.423C282.018 391.423 282.209 390.826 281.897 390.126C281.586 389.425 281.032 389.131 280.946 389.261C280.859 389.39 281.248 389.745 281.499 390.325C281.75 390.904 281.776 391.415 281.897 391.423Z" fill="#263238"/>
<path d="M286.595 384.088C286.647 384.209 287.227 384.088 287.945 384.088C288.663 384.088 289.216 384.399 289.285 384.287C289.355 384.174 288.827 383.716 287.979 383.646C287.131 383.577 286.534 383.992 286.595 384.088Z" fill="#263238"/>
<g opacity="0.3">
<path opacity="0.3" d="M286.595 376.544L286.621 378.932L299.389 379.148L299.458 376.994L286.595 376.544Z" fill="black"/>
</g>
<path d="M286.613 381.389C287.04 381.508 287.492 381.508 287.919 381.389C288.388 381.318 288.847 381.191 289.286 381.008C289.548 380.899 289.802 380.771 290.047 380.627C290.196 380.553 290.33 380.454 290.445 380.333C290.531 380.245 290.585 380.131 290.599 380.009C290.613 379.887 290.586 379.764 290.523 379.658C290.461 379.57 290.38 379.496 290.285 379.444C290.191 379.392 290.086 379.361 289.978 379.356C289.812 379.353 289.646 379.37 289.485 379.408C289.206 379.468 288.934 379.555 288.671 379.667C288.228 379.853 287.817 380.107 287.452 380.42C286.829 380.965 286.587 381.432 286.656 381.458C286.725 381.484 287.019 381.112 287.642 380.671C288.004 380.411 288.4 380.202 288.818 380.048C289.063 379.955 289.315 379.883 289.571 379.831C289.848 379.771 290.081 379.771 290.151 379.901C290.22 380.03 290.151 379.961 290.151 380.039C290.066 380.128 289.967 380.201 289.857 380.255C289.623 380.402 289.389 380.524 289.164 380.636C288.754 380.821 288.328 380.971 287.893 381.086C287.459 381.152 287.03 381.253 286.613 381.389Z" fill="#263238"/>
<path d="M286.776 381.579C287.027 381.21 287.157 380.771 287.148 380.325C287.187 379.844 287.14 379.361 287.01 378.897C286.936 378.621 286.832 378.354 286.698 378.101C286.633 377.927 286.524 377.773 286.382 377.653C286.239 377.533 286.068 377.452 285.885 377.418C285.769 377.418 285.654 377.451 285.556 377.514C285.458 377.577 285.38 377.667 285.332 377.773C285.263 377.921 285.213 378.078 285.185 378.24C285.143 378.527 285.143 378.818 285.185 379.105C285.239 379.594 285.418 380.062 285.704 380.463C286.197 381.146 286.716 381.328 286.733 381.268C286.75 381.207 286.335 380.947 285.963 380.29C285.751 379.912 285.621 379.493 285.582 379.062C285.563 378.81 285.577 378.557 285.626 378.309C285.678 378.032 285.781 377.816 285.885 377.842C285.989 377.868 286.231 378.058 286.335 378.283C286.454 378.511 286.555 378.749 286.638 378.992C286.77 379.416 286.842 379.855 286.854 380.299C286.854 381.086 286.707 381.553 286.776 381.579Z" fill="#263238"/>
<path d="M346.968 367.072L317.045 355.947L348.499 351.527L350.082 336.206L291.267 341.336L282.962 353.3L285.142 368.3L342.452 382.868L346.968 367.072Z" fill="#263238"/>
<path d="M283.507 377.79L280.644 323.031C280.721 320.409 281.468 317.85 282.812 315.598C284.157 313.345 286.054 311.473 288.325 310.159C290.212 309.065 292.31 308.385 294.48 308.162C296.65 307.94 298.842 308.181 300.912 308.87L339.07 321.595L360.013 326.985C360.013 326.985 363.586 335.782 361.484 342.616C359.433 349.312 352.098 353.767 345.644 351.855C337.625 349.476 300.825 333.689 300.825 333.689V378.222L283.507 377.79Z" fill="#263238"/>
<path d="M345.108 351.994L344.883 351.925L344.226 351.674L341.726 350.67L332.547 346.925L302.313 334.45L300.774 333.81L301.025 333.646C301.025 346.042 300.981 357.175 300.964 365.247C300.964 369.252 300.964 372.496 300.912 374.762C300.912 375.861 300.912 376.726 300.912 377.357C300.912 377.634 300.912 377.859 300.912 378.023C300.925 378.101 300.925 378.18 300.912 378.257C300.905 378.179 300.905 378.101 300.912 378.023V377.357C300.912 376.743 300.912 375.878 300.912 374.762C300.912 372.496 300.912 369.252 300.86 365.247C300.86 357.175 300.86 346.042 300.808 333.646V333.386L301.051 333.481L302.59 334.122L332.781 346.691L341.778 350.54L344.252 351.605L344.892 351.89L345.108 351.994Z" fill="#455A64"/>
<path d="M309.865 352.063C312.632 352.547 315.157 353.945 317.037 356.034C316.959 356.112 315.601 354.849 313.576 353.75C311.552 352.651 309.831 352.167 309.865 352.063Z" fill="#455A64"/>
<path d="M297.52 326.241C298.342 327.389 299.022 328.632 299.545 329.943C300.169 331.208 300.646 332.54 300.963 333.914C300.868 333.914 300.167 332.184 299.233 330.09C298.299 327.997 297.434 326.319 297.52 326.241Z" fill="#455A64"/>
<path d="M297.607 302.114L290.86 300.851L283.775 308.083L285.081 312.694L293.342 309.649L297.607 302.114Z" fill="#FFBE9D"/>
<path d="M235.262 285.609L242.935 283.879L255.288 285.808L254.813 293.689C254.813 293.689 250.98 294.242 249.622 293.792C248.804 293.524 247.925 293.506 247.096 293.74C247.096 293.74 247.849 295.289 246.551 295.54C245.254 295.791 243.134 296.336 242.736 294.502C242.41 294.522 242.087 294.427 241.824 294.235C241.56 294.042 241.372 293.763 241.292 293.446C241.292 293.446 240.288 293.81 239.838 292.054C239.389 290.298 239.648 287.659 243.117 286.82C243.299 286.777 243.385 286.361 243.039 286.379L237.555 287.408C237.555 287.408 233.869 287.573 235.262 285.609Z" fill="#FFBE9D"/>
<path d="M241.793 291.102C242.217 290.971 242.656 290.893 243.099 290.868C243.581 290.796 244.066 290.753 244.553 290.739C244.717 290.742 244.88 290.779 245.029 290.849C245.178 290.92 245.31 291.02 245.418 291.145C245.525 291.299 245.586 291.479 245.595 291.666C245.605 291.852 245.561 292.038 245.47 292.201C245.289 292.46 245.057 292.679 244.787 292.844C244.518 293.01 244.217 293.117 243.904 293.161C243.438 293.293 242.964 293.397 242.485 293.472C242.045 293.559 241.593 293.559 241.153 293.472C241.577 293.357 242.007 293.268 242.442 293.204C242.84 293.118 243.307 292.997 243.817 292.832C244.077 292.768 244.332 292.684 244.579 292.581C244.827 292.462 245.034 292.273 245.176 292.036C245.24 291.931 245.274 291.81 245.274 291.686C245.274 291.562 245.24 291.441 245.176 291.336C245.013 291.155 244.786 291.046 244.544 291.033C244.051 291.033 243.541 291.085 243.134 291.093C242.689 291.153 242.239 291.155 241.793 291.102Z" fill="#EB996E"/>
<path d="M243.108 289.407C243.108 289.502 242.728 289.701 242.433 290.159C242.139 290.618 242.096 291.067 242.001 291.076C241.906 291.085 241.785 290.522 242.157 289.969C242.529 289.415 243.108 289.32 243.108 289.407Z" fill="#EB996E"/>
<path d="M245.219 292.218C245.219 292.218 245.297 292.218 245.418 292.218C245.539 292.218 245.678 292.469 245.781 292.633C245.863 292.76 245.917 292.903 245.939 293.052C245.962 293.201 245.952 293.353 245.911 293.498C245.85 293.671 245.744 293.824 245.604 293.943C245.464 294.061 245.296 294.141 245.115 294.173C244.564 294.345 244 294.472 243.428 294.554C242.987 294.597 242.71 294.554 242.71 294.51C242.71 294.467 242.979 294.424 243.394 294.32C243.809 294.216 244.38 294.035 245.02 293.862C245.151 293.841 245.275 293.788 245.38 293.708C245.486 293.628 245.57 293.524 245.626 293.403C245.71 293.195 245.71 292.962 245.626 292.754C245.522 292.538 245.487 292.4 245.401 292.33C245.314 292.261 245.202 292.235 245.219 292.218Z" fill="#EB996E"/>
<path d="M245.729 293.559C245.729 293.559 245.816 293.403 246.058 293.368C246.363 293.348 246.667 293.427 246.923 293.593C247.055 293.686 247.163 293.807 247.239 293.948C247.316 294.089 247.359 294.246 247.364 294.407C247.364 294.631 247.364 294.77 247.287 294.77C247.209 294.77 247.2 294.64 247.131 294.45C247.071 294.223 246.937 294.022 246.75 293.879C246.543 293.743 246.31 293.649 246.067 293.602C245.877 293.567 245.755 293.602 245.729 293.559Z" fill="#EB996E"/>
<path d="M249.553 287.434L246.093 288.81L242.849 291.111C242.849 291.111 242.849 291.907 244.692 291.612C245.851 291.418 246.958 290.988 247.944 290.349C247.944 290.349 250.358 291.872 252.495 291.517" fill="#FFBE9D"/>
<path d="M252.459 291.517C252.459 291.517 252.347 291.56 252.122 291.604C251.794 291.64 251.464 291.64 251.136 291.604C249.966 291.46 248.84 291.071 247.831 290.462H247.987C246.778 291.278 245.37 291.751 243.913 291.829C243.666 291.837 243.42 291.802 243.186 291.725C243.046 291.683 242.922 291.602 242.827 291.492C242.731 291.382 242.67 291.246 242.65 291.102V291.024L242.719 290.972L246.006 288.688C247.07 288.282 247.944 287.953 248.558 287.737C248.87 287.604 249.195 287.502 249.527 287.434C249.236 287.612 248.929 287.763 248.61 287.884C248.013 288.144 247.157 288.507 246.101 288.939L242.849 291.266L242.918 291.128C242.918 291.232 243.065 291.379 243.238 291.439C243.436 291.505 243.644 291.534 243.852 291.526C245.245 291.447 246.593 291.006 247.762 290.246L247.849 290.194H247.927C248.895 290.798 249.969 291.212 251.093 291.413C251.545 291.48 252.002 291.515 252.459 291.517Z" fill="#EB996E"/>
<path d="M244.518 287.261C244.518 287.356 244.112 287.348 243.714 287.105C243.316 286.863 243.117 286.509 243.186 286.457C243.255 286.405 243.532 286.612 243.878 286.82C244.224 287.028 244.579 287.175 244.518 287.261Z" fill="#EB996E"/>
<path d="M254.622 295.773L283.913 300.029C286.823 300.949 289.977 300.685 292.693 299.294L318.784 285.912L310.998 268.688C309.991 269.033 309.008 269.446 308.057 269.925L286.595 285.393L255.453 284.303L254.622 295.773Z" fill="#35B6FA"/>
<path d="M359.45 326.855L357.582 323.576L337.616 318.576L339.969 322.642L359.45 326.855Z" fill="#FFBE9D"/>
<path d="M310.972 268.688C310.972 269.38 308.04 291.059 308.04 295.505C308.04 299.952 316.517 304.735 316.517 304.735L325.8 324.45H358.871L347.564 303.222L342.452 286.214C340.514 279.778 340.722 276.448 335.921 271.733L326.673 265.505L310.972 268.688Z" fill="#35B6FA"/>
<path d="M320.574 285.799L326.128 309.104L298.117 301.232L293.342 309.675L329.787 326.267C331.966 327.258 334.424 327.454 336.732 326.822C339.041 326.19 341.056 324.769 342.426 322.807C343.273 321.595 343.848 320.215 344.113 318.761C344.377 317.307 344.324 315.813 343.957 314.381L335.8 282.503C335.535 281.464 335.059 280.49 334.401 279.643C333.743 278.797 332.916 278.095 331.974 277.582C331.032 277.07 329.994 276.758 328.926 276.665C327.857 276.573 326.781 276.702 325.765 277.045C323.993 277.638 322.494 278.849 321.541 280.456C320.588 282.064 320.245 283.96 320.574 285.799Z" fill="#35B6FA"/>
<path d="M317.037 305.817C316.795 305.374 316.505 304.959 316.171 304.58C315.964 304.476 315.67 304.32 315.306 304.104C314.235 303.501 313.209 302.821 312.235 302.071C310.743 300.984 309.508 299.581 308.619 297.962C307.754 296.024 307.754 293.637 308.109 291.301C308.464 288.965 308.974 286.751 309.216 284.718C309.459 282.685 309.744 280.86 309.857 279.32C309.969 277.78 309.995 276.526 309.995 275.661C309.995 274.796 309.995 274.311 309.995 274.311C310.03 274.423 310.051 274.54 310.055 274.657C310.055 274.882 310.107 275.22 310.133 275.652C310.197 276.88 310.197 278.11 310.133 279.337C310.055 280.886 309.865 282.737 309.571 284.77C309.277 286.803 308.827 289.017 308.49 291.353C308.152 293.689 308.109 295.981 308.94 297.824C309.792 299.404 310.972 300.784 312.4 301.872C313.354 302.634 314.351 303.341 315.384 303.992C316.037 304.499 316.596 305.117 317.037 305.817Z" fill="#263238"/>
<path d="M328.178 267.045C328.034 267.256 327.862 267.448 327.668 267.616C327.33 267.962 326.803 268.481 326.189 269.043C324.917 270.228 323.109 271.82 320.998 273.481C318.887 275.142 316.984 276.56 315.548 277.547C314.83 278.04 314.242 278.412 313.818 278.68C313.612 278.83 313.388 278.955 313.152 279.052C313.332 278.871 313.529 278.709 313.74 278.567L315.393 277.339C316.785 276.309 318.706 274.865 320.773 273.204C322.841 271.543 324.666 269.995 325.964 268.879L327.521 267.529C327.72 267.342 327.941 267.18 328.178 267.045Z" fill="#263238"/>
<path d="M320.574 285.799C320.635 285.944 320.681 286.095 320.713 286.249C320.799 286.572 320.912 287.005 321.05 287.547C321.344 288.714 321.751 290.358 322.261 292.408C323.273 296.578 324.683 302.391 326.292 309.061L326.362 309.346L326.085 309.268L318.974 307.287L298.117 301.362L298.264 301.301L294.726 307.443L293.74 309.104L293.481 309.528C293.42 309.632 293.385 309.675 293.377 309.675C293.393 309.618 293.417 309.563 293.446 309.511L293.679 309.069L294.596 307.339L298.057 301.137L298.109 301.05H298.204L319.086 306.881L326.232 308.905L326.016 309.104C324.45 302.426 323.083 296.604 322.097 292.426C321.63 290.367 321.232 288.706 320.989 287.538C320.868 286.984 320.773 286.552 320.704 286.223C320.65 286.085 320.607 285.944 320.574 285.799Z" fill="#263238"/>
<path d="M335.921 284.346C335.984 284.475 336.031 284.611 336.059 284.752C336.146 285.055 336.249 285.436 336.388 285.912L337.512 290.237C338.438 293.905 339.71 298.888 341.102 304.433C341.786 307.209 342.461 309.848 343.031 312.27C343.599 314.412 343.778 316.639 343.559 318.845C343.383 320.337 342.848 321.764 342.002 323.006C341.698 323.462 341.318 323.863 340.877 324.191C341.239 323.792 341.575 323.37 341.881 322.928C342.675 321.686 343.166 320.276 343.317 318.81C343.492 316.634 343.287 314.445 342.711 312.339C342.106 309.934 341.448 307.296 340.756 304.554L337.296 290.332L336.275 286.007L336.016 284.83C335.97 284.672 335.938 284.51 335.921 284.346Z" fill="#263238"/>
<g opacity="0.3">
<path opacity="0.3" d="M341.008 324.433C345.108 324.805 347.487 322.469 347.928 319.243C348.025 317.465 347.711 315.689 347.011 314.052C344.494 306.682 341.951 299.251 337.963 292.555C339.468 299.251 341.423 305.678 342.902 312.374C343.38 314.235 343.593 316.154 343.534 318.075C343.44 320.417 342.549 322.657 341.008 324.424" fill="black"/>
</g>
<path d="M307.383 290.851C306.753 290.317 306.195 289.703 305.722 289.026C304.514 287.448 303.484 285.743 302.651 283.939C301.815 282.133 301.186 280.238 300.774 278.29C300.567 277.491 300.462 276.668 300.462 275.842C300.713 276.621 300.921 277.412 301.085 278.213C301.581 280.112 302.241 281.964 303.057 283.749C303.879 285.528 304.858 287.23 305.981 288.836C306.864 290.107 307.435 290.851 307.383 290.851Z" fill="#FAFAFA"/>
<path d="M299.355 295.635C298.852 295.057 298.411 294.427 298.04 293.758C297.278 292.564 296.31 290.886 295.254 288.991C294.199 287.097 293.351 285.349 292.763 284.069C292.401 283.395 292.111 282.685 291.898 281.95C292.334 282.573 292.711 283.236 293.022 283.931L295.617 288.775C296.612 290.592 297.521 292.235 298.273 293.593C298.693 294.241 299.055 294.924 299.355 295.635Z" fill="#FAFAFA"/>
<path d="M288.307 299.943C287.712 297.667 287.262 295.355 286.958 293.022C286.508 290.711 286.205 288.374 286.05 286.024C286.645 288.3 287.095 290.612 287.399 292.945C287.854 295.255 288.157 297.593 288.307 299.943Z" fill="#FAFAFA"/>
<path d="M278.481 299.277C278.324 298.631 278.248 297.969 278.256 297.305C278.178 296.076 278.135 294.381 278.178 292.503C278.222 290.626 278.351 288.939 278.481 287.72C278.506 287.054 278.614 286.395 278.801 285.756C278.873 286.414 278.873 287.079 278.801 287.737C278.749 288.965 278.68 290.652 278.628 292.512C278.576 294.372 278.576 296.067 278.576 297.296C278.62 297.958 278.588 298.622 278.481 299.277Z" fill="#FAFAFA"/>
<path d="M268.645 284.969C268.799 285.568 268.88 286.184 268.887 286.803C268.973 287.945 269.025 289.528 268.999 291.275C268.973 293.022 268.852 294.606 268.723 295.739C268.701 296.361 268.596 296.978 268.411 297.573C268.281 297.573 268.489 294.744 268.541 291.266C268.593 287.789 268.506 284.977 268.645 284.969Z" fill="#FAFAFA"/>
<path d="M260.565 286.007C260.628 287.77 260.544 289.535 260.314 291.284C260.234 293.045 260 294.797 259.614 296.517C259.63 292.993 259.948 289.477 260.565 286.007Z" fill="#FAFAFA"/>
<path d="M309.26 278.005C309.13 278.005 308.611 276.604 307.728 274.96C306.846 273.316 305.998 272.071 306.067 271.993C307.724 273.621 308.838 275.721 309.26 278.005Z" fill="#FAFAFA"/>
<path d="M324.485 301.543C324.267 301.612 324.038 301.638 323.81 301.621C323.19 301.647 322.569 301.632 321.95 301.578C319.904 301.421 317.892 300.972 315.973 300.246C314.048 299.532 312.234 298.55 310.583 297.33C310.084 296.962 309.607 296.563 309.156 296.137C308.836 295.834 308.672 295.661 308.697 295.635C308.723 295.609 309.485 296.206 310.765 297.071C314.131 299.336 317.984 300.773 322.011 301.267C323.516 301.457 324.485 301.465 324.485 301.543Z" fill="#FAFAFA"/>
<path d="M321.327 290.496C320.72 290.523 320.113 290.456 319.527 290.298C318.092 290.026 316.678 289.651 315.297 289.173C313.914 288.701 312.569 288.123 311.275 287.443C310.716 287.201 310.195 286.88 309.726 286.491C309.796 286.37 312.235 287.642 315.444 288.74C318.654 289.839 321.353 290.367 321.327 290.496Z" fill="#FAFAFA"/>
<path d="M319.493 282.555C317.929 282.654 316.364 282.403 314.909 281.82C313.455 281.238 312.148 280.34 311.084 279.19C313.56 281.001 316.452 282.158 319.493 282.555Z" fill="#FAFAFA"/>
<path d="M332.443 276.898C332.4 276.967 331.725 276.508 330.497 276.162C328.897 275.718 327.198 275.782 325.635 276.344C324.082 276.938 322.756 278.006 321.846 279.398C321.137 280.462 320.929 281.249 320.852 281.223C320.927 280.509 321.173 279.823 321.57 279.225C322.449 277.704 323.831 276.536 325.477 275.922C327.123 275.308 328.931 275.286 330.592 275.86C331.283 276.054 331.917 276.41 332.443 276.898Z" fill="#FAFAFA"/>
<path d="M333.975 287.521C333.535 287.887 333.038 288.179 332.504 288.386C330.005 289.47 327.303 290.007 324.58 289.96C324.017 289.994 323.452 289.929 322.91 289.77C322.91 289.631 325.506 289.77 328.533 289.156C331.561 288.541 333.914 287.391 333.975 287.521Z" fill="#FAFAFA"/>
<path d="M338.403 300.851C336.407 301.272 334.384 301.547 332.348 301.673C330.318 301.944 328.271 302.069 326.223 302.045C328.218 301.62 330.242 301.345 332.279 301.223C334.308 300.951 336.355 300.827 338.403 300.851Z" fill="#FAFAFA"/>
<path d="M342.331 319.32C342.094 319.312 341.86 319.266 341.639 319.182C341.025 319.012 340.421 318.807 339.831 318.568C337.873 317.781 336.003 316.792 334.251 315.618C332.508 314.447 330.827 313.185 329.216 311.838C328.518 311.322 327.869 310.743 327.279 310.107C328.011 310.55 328.706 311.054 329.355 311.613C330.644 312.573 332.417 313.914 334.45 315.263C336.184 316.416 338.007 317.431 339.9 318.3C341.379 318.931 342.331 319.251 342.331 319.32Z" fill="#FAFAFA"/>
<path d="M321.335 322.132C321.191 321.488 321.144 320.826 321.197 320.168C321.265 316.983 322.026 313.851 323.429 310.99C323.681 310.381 324.025 309.815 324.45 309.312C323.581 311.346 322.847 313.435 322.252 315.566C321.807 317.733 321.501 319.926 321.335 322.132Z" fill="#FAFAFA"/>
<path d="M310.791 316.483C310.456 312.854 311.565 309.238 313.879 306.422C313.067 307.997 312.362 309.624 311.768 311.293C311.322 312.998 310.996 314.732 310.791 316.483Z" fill="#FAFAFA"/>
<path d="M304.908 302.677C303.692 304.123 302.614 305.681 301.69 307.331C300.901 309.049 300.278 310.839 299.831 312.677C299.771 312.097 299.815 311.511 299.96 310.947C300.219 309.602 300.665 308.301 301.284 307.08C301.903 305.859 302.693 304.732 303.628 303.732C303.993 303.311 304.426 302.954 304.908 302.677Z" fill="#FAFAFA"/>
<path d="M343.767 290.592C343.119 291.401 342.272 292.027 341.309 292.409C340.346 292.791 339.3 292.916 338.273 292.772C338.273 292.633 339.623 292.599 341.137 291.984C342.651 291.37 343.671 290.496 343.767 290.592Z" fill="#FAFAFA"/>
<path d="M339.805 278.455C339.507 279.324 338.941 280.075 338.187 280.6C337.524 281.24 336.671 281.647 335.757 281.759C335.757 281.638 336.795 281.162 337.902 280.245C339.009 279.329 339.736 278.377 339.805 278.455Z" fill="#FAFAFA"/>
<path d="M325.678 270.375C326.446 270.829 327.051 271.513 327.408 272.33C327.898 273.08 328.148 273.961 328.126 274.856C327.997 274.856 327.685 273.775 327.01 272.546C326.336 271.318 325.592 270.462 325.678 270.375Z" fill="#FAFAFA"/>
<path d="M346.656 302.019C345.903 302.694 344.978 303.149 343.983 303.334C343.027 303.656 342 303.707 341.016 303.481C341.016 303.351 342.331 303.299 343.871 302.893C345.411 302.486 346.604 301.907 346.656 302.019Z" fill="#FAFAFA"/>
<path d="M352.712 312.668C349.592 313.233 346.426 313.499 343.257 313.464C344.802 313.108 346.378 312.899 347.963 312.841C349.536 312.627 351.127 312.569 352.712 312.668Z" fill="#FAFAFA"/>
<path d="M356.916 321.232C352.274 321.417 347.624 321.301 342.997 320.886C347.639 320.702 352.289 320.817 356.916 321.232Z" fill="#FAFAFA"/>
<path d="M326.301 235.383C326.881 238.316 331.094 239.484 331.492 242.442C331.665 243.705 331.059 244.968 331.111 246.249C331.163 247.979 332.365 249.423 332.971 251.032C334.234 254.354 332.815 258.29 330.142 260.635C327.469 262.979 323.818 263.93 320.272 264" fill="#263238"/>
<path d="M302.443 238.411C302.815 239.977 301.993 241.551 301.128 242.909C300.263 244.268 299.285 245.686 299.303 247.287C299.303 250.141 302.469 252.295 302.348 255.141C302.279 256.664 301.258 258.039 301.275 259.57C301.349 260.307 301.579 261.019 301.951 261.659C302.322 262.299 302.826 262.852 303.429 263.282C304.554 264.233 305.644 263.896 306.682 264.951C307.879 266.129 309.307 267.045 310.877 267.642C314.19 268.827 317.478 265.825 318.888 265.159" fill="#263238"/>
<path d="M327.166 236.984C326.976 235.539 325.436 234.639 324.052 234.328C322.668 234.017 321.119 234.051 319.796 233.463C318.697 232.798 317.665 232.028 316.716 231.162C315.438 230.217 313.931 229.63 312.351 229.46C310.77 229.29 309.173 229.545 307.724 230.196C306.274 230.848 305.024 231.874 304.102 233.169C303.18 234.463 302.619 235.98 302.477 237.563C302.287 239.691 303.022 242.053 304.847 243.16C306.967 244.441 309.692 243.653 312.01 242.78C314.329 241.906 316.967 240.998 319.19 242.088C320.462 242.882 321.55 243.937 322.382 245.185C323.317 246.344 324.45 247.503 325.92 247.78C327.391 248.057 329.156 246.915 328.983 245.427" fill="#263238"/>
<path d="M327.668 267.616L324.208 239.596C324.125 238.993 323.818 238.442 323.349 238.053C322.88 237.664 322.282 237.465 321.673 237.494L308.421 236.257C304.268 236.465 302.365 241.915 302.711 246.058C303.135 250.652 303.827 256.257 304.9 259.57C307.045 266.231 312.417 266.283 312.417 266.283C312.417 266.283 313.386 276.145 313.784 278.567" fill="#FFBE9D"/>
<path d="M304.493 251.171C304.507 251.286 304.544 251.396 304.601 251.497C304.658 251.597 304.735 251.685 304.827 251.755C304.919 251.826 305.024 251.877 305.136 251.905C305.248 251.934 305.365 251.94 305.479 251.923C305.706 251.901 305.915 251.791 306.06 251.616C306.206 251.441 306.277 251.216 306.258 250.989C306.244 250.874 306.207 250.763 306.15 250.663C306.093 250.562 306.016 250.475 305.924 250.404C305.832 250.334 305.727 250.283 305.615 250.254C305.503 250.226 305.386 250.219 305.272 250.236C305.045 250.258 304.836 250.369 304.69 250.544C304.545 250.719 304.474 250.944 304.493 251.171Z" fill="#263238"/>
<path d="M304.268 249.441C304.398 249.544 304.986 248.948 305.929 248.8C306.872 248.653 307.659 249.025 307.719 248.887C307.78 248.749 307.616 248.645 307.287 248.472C306.834 248.25 306.323 248.175 305.825 248.256C305.333 248.33 304.878 248.561 304.527 248.913C304.268 249.181 304.181 249.397 304.268 249.441Z" fill="#263238"/>
<path d="M314 249.778C314.014 249.892 314.05 250.002 314.107 250.102C314.164 250.202 314.24 250.289 314.331 250.359C314.422 250.429 314.526 250.48 314.637 250.51C314.748 250.539 314.864 250.546 314.978 250.531C315.202 250.509 315.41 250.399 315.555 250.226C315.701 250.053 315.773 249.83 315.756 249.605C315.742 249.491 315.706 249.381 315.649 249.281C315.592 249.181 315.516 249.094 315.425 249.024C315.334 248.954 315.23 248.903 315.119 248.873C315.008 248.844 314.892 248.837 314.779 248.852C314.554 248.874 314.346 248.984 314.201 249.157C314.055 249.33 313.983 249.553 314 249.778Z" fill="#263238"/>
<path d="M313.542 248.178C313.672 248.273 314.26 247.676 315.203 247.537C316.146 247.399 316.933 247.754 316.993 247.624C317.054 247.494 316.89 247.373 316.552 247.2C316.101 246.981 315.593 246.909 315.099 246.992C314.609 247.068 314.156 247.295 313.801 247.641C313.55 247.909 313.481 248.134 313.542 248.178Z" fill="#263238"/>
<path d="M311.188 255.704C310.665 255.641 310.137 255.641 309.614 255.704C309.372 255.704 309.138 255.704 309.069 255.539C309.007 255.295 309.025 255.037 309.121 254.804C309.251 254.19 309.398 253.541 309.545 252.858C309.966 251.202 310.255 249.516 310.41 247.814C309.856 249.433 309.434 251.093 309.147 252.78C309.008 253.466 308.879 254.115 308.758 254.726C308.645 255.039 308.645 255.382 308.758 255.695C308.805 255.775 308.871 255.843 308.949 255.894C309.026 255.945 309.115 255.977 309.207 255.989C309.348 256.003 309.49 256.003 309.631 255.989C310.161 255.963 310.684 255.867 311.188 255.704Z" fill="#263238"/>
<path d="M312.383 266.283C315.586 265.901 318.609 264.597 321.085 262.529C320.359 264.184 319.168 265.593 317.657 266.585C316.146 267.577 314.38 268.109 312.573 268.117L312.383 266.283Z" fill="#EB996E"/>
<path d="M311.959 257.918C312.104 257.665 312.312 257.453 312.561 257.302C312.811 257.151 313.095 257.065 313.386 257.053C313.597 257.04 313.808 257.07 314.007 257.139C314.206 257.209 314.389 257.318 314.545 257.46C314.696 257.598 314.8 257.779 314.845 257.978C314.89 258.178 314.873 258.386 314.796 258.576C314.672 258.769 314.492 258.92 314.281 259.009C314.07 259.099 313.836 259.123 313.611 259.077C313.139 258.992 312.689 258.813 312.287 258.55C312.173 258.487 312.068 258.408 311.976 258.316C311.935 258.268 311.908 258.209 311.899 258.146C311.89 258.084 311.899 258.02 311.924 257.961" fill="#EB996E"/>
<path d="M314.087 255.929C313.931 255.929 314.087 256.967 313.326 257.823C312.564 258.68 311.457 258.749 311.466 258.887C311.474 259.026 311.742 259.052 312.21 258.991C312.814 258.895 313.366 258.589 313.767 258.126C314.151 257.69 314.355 257.124 314.338 256.543C314.312 256.145 314.156 255.911 314.087 255.929Z" fill="#263238"/>
<path d="M312.694 245.608C312.833 245.851 313.758 245.608 314.883 245.539C316.008 245.47 316.95 245.66 317.063 245.409C317.175 245.159 316.916 245.072 316.518 244.882C315.99 244.651 315.416 244.545 314.84 244.57C314.264 244.596 313.702 244.753 313.196 245.029C312.815 245.254 312.642 245.487 312.694 245.608Z" fill="#263238"/>
<path d="M304.164 246.664C304.363 246.845 304.977 246.525 305.756 246.396C306.534 246.266 307.226 246.309 307.339 246.067C307.451 245.825 307.252 245.747 306.932 245.591C306.509 245.401 306.037 245.35 305.583 245.444C305.124 245.52 304.7 245.738 304.371 246.067C304.129 246.335 304.077 246.569 304.164 246.664Z" fill="#263238"/>
<path d="M328.049 260.574C326.232 261.249 325.912 260.323 324.303 259.233C323.501 258.683 322.839 257.953 322.368 257.101C321.898 256.25 321.634 255.3 321.596 254.328C321.544 252.598 322.175 250.764 321.345 249.268C320.237 247.295 317.192 247.114 316.085 245.141C315.436 243.991 315.618 242.503 314.917 241.396C314.534 240.91 314.057 240.506 313.515 240.209C312.972 239.912 312.375 239.727 311.76 239.665C310.525 239.545 309.317 239.233 308.178 238.74C307.097 238.143 306.275 236.819 306.734 235.669C311.933 235.477 317.137 235.904 322.236 236.94C323.441 237.072 324.575 237.577 325.48 238.385C326.239 239.419 326.653 240.666 326.665 241.949C327.351 248.126 328.032 254.305 328.706 260.487" fill="#263238"/>
<path d="M330.142 245.954C330.074 244.803 330.383 243.66 331.023 242.699C331.662 241.739 332.597 241.012 333.685 240.63C334.774 240.248 335.958 240.231 337.057 240.581C338.157 240.931 339.112 241.63 339.779 242.572C340.347 243.504 340.706 244.548 340.83 245.633C340.954 246.718 340.84 247.816 340.497 248.852C339.814 251.352 337.997 253.818 335.419 254.103C333.005 254.371 330.739 252.572 329.684 250.375C328.628 248.178 328.516 245.669 328.421 243.238" fill="#263238"/>
<path d="M332.962 255.107C333.09 254.975 333.19 254.819 333.256 254.648C333.457 254.193 333.557 253.701 333.55 253.204C333.537 252.468 333.399 251.74 333.144 251.05C332.884 250.271 332.478 249.475 332.14 248.61C331.791 247.819 331.603 246.966 331.587 246.101C331.587 245.323 331.863 244.622 331.933 243.991C332.008 243.495 331.942 242.988 331.742 242.529C331.578 242.209 331.405 242.088 331.396 242.105C331.388 242.122 331.509 242.261 331.63 242.572C331.777 243.021 331.807 243.501 331.716 243.965C331.537 244.665 331.401 245.376 331.31 246.093C331.311 246.986 331.496 247.87 331.855 248.688C332.201 249.553 332.616 250.358 332.884 251.11C333.137 251.77 333.289 252.464 333.334 253.169C333.358 253.835 333.231 254.497 332.962 255.107Z" fill="#455A64"/>
<path d="M331.769 246.88C332.095 247.26 332.507 247.556 332.971 247.745C334.064 248.288 335.296 248.487 336.505 248.317C337.714 248.147 338.843 247.616 339.744 246.794C340.137 246.482 340.453 246.086 340.67 245.634C340.627 245.634 340.307 246.067 339.606 246.629C338.701 247.362 337.617 247.84 336.466 248.013C335.311 248.167 334.136 248.006 333.066 247.546C332.236 247.2 331.795 246.837 331.769 246.88Z" fill="#455A64"/>
<path d="M332.27 247.901C332.456 248.272 332.712 248.603 333.023 248.878C333.731 249.593 334.579 250.152 335.514 250.522C336.441 250.902 337.436 251.091 338.438 251.076C338.853 251.099 339.268 251.037 339.658 250.894C339.254 250.87 338.85 250.87 338.447 250.894C336.495 250.807 334.632 250.053 333.17 248.757C332.888 248.453 332.587 248.167 332.27 247.901Z" fill="#455A64"/>
<path d="M332.036 257.59C332.036 257.59 332.036 257.59 332.105 257.494C332.158 257.396 332.204 257.295 332.244 257.192C332.41 256.791 332.501 256.362 332.512 255.929C332.532 255.237 332.384 254.552 332.08 253.93C331.682 253.09 330.998 252.418 330.15 252.036C329.132 251.706 328.176 251.209 327.322 250.565C327.116 250.364 326.955 250.123 326.848 249.856C326.741 249.59 326.69 249.304 326.699 249.017C326.734 248.384 326.838 247.758 327.01 247.148C327.176 246.457 327.196 245.738 327.069 245.038C326.943 244.338 326.672 243.672 326.275 243.082C325.856 242.453 325.288 241.936 324.623 241.577C323.921 241.244 323.158 241.062 322.382 241.041C321.621 240.989 320.868 241.041 320.15 240.911C319.445 240.843 318.768 240.602 318.178 240.21C317.644 239.791 317.269 239.202 317.114 238.541C316.945 237.881 316.731 237.234 316.474 236.603C315.976 235.424 315.162 234.406 314.121 233.662C313.202 233.023 312.109 232.682 310.989 232.684C310.059 232.669 309.149 232.955 308.394 233.498C307.831 233.901 307.379 234.439 307.079 235.063C306.889 235.454 306.768 235.876 306.725 236.309C306.704 236.458 306.704 236.61 306.725 236.759C306.762 236.186 306.915 235.627 307.174 235.115C307.538 234.43 308.085 233.859 308.754 233.467C309.423 233.074 310.188 232.875 310.963 232.892C312.034 232.906 313.076 233.247 313.948 233.87C314.945 234.594 315.723 235.578 316.197 236.716C316.438 237.341 316.643 237.979 316.811 238.627C316.984 239.347 317.396 239.988 317.979 240.444C318.605 240.872 319.327 241.136 320.081 241.214C320.834 241.318 321.586 241.292 322.339 241.344C323.071 241.363 323.79 241.537 324.45 241.854C325.077 242.181 325.612 242.66 326.007 243.247C326.382 243.806 326.638 244.436 326.758 245.099C326.879 245.761 326.862 246.441 326.707 247.096C326.537 247.724 326.436 248.368 326.405 249.017C326.395 249.339 326.454 249.659 326.576 249.957C326.698 250.255 326.881 250.524 327.114 250.747C327.995 251.411 328.984 251.918 330.038 252.243C330.842 252.583 331.501 253.196 331.898 253.974C332.203 254.571 332.363 255.232 332.365 255.903C332.368 256.481 332.256 257.054 332.036 257.59Z" fill="#455A64"/>
<path d="M328.567 238.593C328.593 238.485 328.593 238.372 328.567 238.264C328.542 237.944 328.415 237.641 328.204 237.399C327.867 237.01 327.411 236.743 326.907 236.638C326.239 236.531 325.556 236.615 324.934 236.88C324.242 237.131 323.541 237.529 322.754 237.814C322.358 237.996 321.927 238.09 321.491 238.09C321.055 238.09 320.624 237.996 320.228 237.814C319.421 237.248 318.78 236.478 318.368 235.582C317.843 234.613 317.162 233.736 316.353 232.987C314.786 231.534 312.781 230.643 310.652 230.453C309.718 230.39 308.783 230.565 307.936 230.963C307.196 231.315 306.573 231.87 306.136 232.563C305.781 233.144 305.618 233.822 305.669 234.501C305.702 235.007 305.86 235.497 306.128 235.928C306.291 236.2 306.506 236.438 306.759 236.629C306.849 236.692 306.945 236.747 307.045 236.793C306.721 236.533 306.443 236.22 306.223 235.868C305.99 235.442 305.857 234.969 305.834 234.484C305.806 233.846 305.975 233.215 306.318 232.676C306.743 232.027 307.343 231.511 308.048 231.188C308.86 230.817 309.754 230.662 310.643 230.738C312.703 230.933 314.64 231.803 316.154 233.212C316.94 233.932 317.605 234.773 318.126 235.703C318.56 236.641 319.242 237.443 320.098 238.022C320.536 238.254 321.032 238.356 321.526 238.316C321.979 238.281 322.425 238.179 322.849 238.013C323.671 237.702 324.355 237.295 325.021 237.036C325.603 236.773 326.247 236.678 326.881 236.759C327.355 236.845 327.789 237.081 328.118 237.434C328.332 237.653 328.472 237.934 328.516 238.238C328.576 238.472 328.55 238.593 328.567 238.593Z" fill="#455A64"/>
</svg>
