<svg width="358" height="325" viewBox="0 0 358 325" fill="none" xmlns="http://www.w3.org/2000/svg">
<path d="M324.076 167.747C323.849 166.972 323.778 166.159 323.867 165.356C323.8 164.554 323.894 163.748 324.143 162.983C324.383 163.753 324.458 164.564 324.362 165.365C324.434 166.17 324.336 166.982 324.076 167.747Z" fill="#35B6FA"/>
<path d="M323.552 177.257C323.334 175.662 323.451 174.039 323.895 172.492C324.114 174.087 323.998 175.71 323.552 177.257Z" fill="#35B6FA"/>
<path d="M322.418 186.718C322.28 185.925 322.302 185.111 322.485 184.327C322.513 183.52 322.701 182.726 323.038 181.992C323.188 182.788 323.165 183.607 322.971 184.393C322.946 185.198 322.758 185.989 322.418 186.718Z" fill="#35B6FA"/>
<path d="M320.751 196.132C320.66 195.329 320.731 194.516 320.961 193.741C321.034 192.939 321.271 192.161 321.656 191.454C321.747 192.254 321.676 193.064 321.446 193.836C321.374 194.641 321.137 195.423 320.751 196.132Z" fill="#35B6FA"/>
<path d="M318.54 205.365C318.603 203.763 319.003 202.192 319.712 200.754C319.649 202.356 319.25 203.927 318.54 205.365Z" fill="#35B6FA"/>
<path d="M315.777 214.484C315.776 213.678 315.941 212.88 316.263 212.14C316.429 211.353 316.753 210.607 317.216 209.949C317.217 210.755 317.052 211.553 316.73 212.293C316.57 213.082 316.246 213.829 315.777 214.484Z" fill="#35B6FA"/>
<path d="M312.48 223.422C312.532 222.619 312.746 221.834 313.109 221.116C313.316 220.336 313.687 219.608 314.195 218.982C314.142 219.788 313.929 220.575 313.566 221.297C313.353 222.072 312.984 222.795 312.48 223.422Z" fill="#35B6FA"/>
<path d="M308.659 232.15C308.758 231.35 309.017 230.579 309.422 229.882C309.686 229.12 310.097 228.418 310.632 227.814C310.538 228.618 310.279 229.394 309.87 230.092C309.61 230.853 309.198 231.553 308.659 232.15Z" fill="#35B6FA"/>
<path d="M304.324 240.64C304.475 239.848 304.779 239.094 305.219 238.42C305.839 237.257 306.43 236.361 306.553 236.428C306.411 237.222 306.106 237.978 305.658 238.648C305.048 239.811 304.495 240.706 304.324 240.64Z" fill="#35B6FA"/>
<path d="M299.502 248.853C299.695 248.07 300.045 247.334 300.532 246.69C301.208 245.566 301.856 244.708 301.98 244.785C301.785 245.567 301.435 246.303 300.951 246.948C300.265 248.072 299.617 248.929 299.502 248.853Z" fill="#35B6FA"/>
<path d="M294.205 256.771C294.45 256.002 294.842 255.287 295.358 254.666C296.101 253.589 296.797 252.76 296.911 252.855C296.675 253.624 296.286 254.337 295.767 254.951C295.015 256.038 294.319 256.848 294.205 256.771Z" fill="#35B6FA"/>
<path d="M288.459 264.366C288.737 263.609 289.169 262.918 289.726 262.336C290.536 261.297 291.279 260.526 291.384 260.611C291.489 260.697 290.927 261.564 290.117 262.641C289.307 263.718 288.564 264.451 288.459 264.366Z" fill="#35B6FA"/>
<path d="M282.275 271.607C282.17 271.512 282.79 270.654 283.657 269.701C284.524 268.749 285.315 267.986 285.419 268.072C285.524 268.158 284.905 269.025 284.028 270.025C283.152 271.026 282.37 271.693 282.275 271.607Z" fill="#35B6FA"/>
<path d="M275.672 278.468C275.577 278.372 276.244 277.515 277.168 276.562C278.092 275.609 278.921 274.952 279.026 275.047C279.131 275.142 278.454 276 277.52 276.953C276.587 277.905 275.767 278.563 275.672 278.468Z" fill="#35B6FA"/>
<path d="M268.688 284.937C268.592 284.833 269.316 284.042 270.288 283.165C271.26 282.289 272.137 281.65 272.194 281.755C272.251 281.86 271.575 282.651 270.593 283.527C269.612 284.404 268.773 285.042 268.688 284.937Z" fill="#35B6FA"/>
<path d="M261.332 290.988C261.246 290.874 262.008 290.13 263.037 289.311C263.615 288.75 264.298 288.309 265.048 288.015C265.143 288.12 264.371 288.873 263.342 289.692C262.768 290.257 262.083 290.698 261.332 290.988Z" fill="#35B6FA"/>
<path d="M253.633 296.591C253.556 296.476 254.366 295.771 255.434 295.019C256.041 294.489 256.752 294.09 257.52 293.847C257.606 293.961 256.796 294.666 255.719 295.419C255.112 295.949 254.401 296.348 253.633 296.591Z" fill="#35B6FA"/>
<path d="M245.629 301.736C245.553 301.622 246.401 300.964 247.534 300.269C248.176 299.781 248.908 299.425 249.688 299.221C249.764 299.344 248.916 299.992 247.782 300.688C247.145 301.183 246.412 301.54 245.629 301.736Z" fill="#35B6FA"/>
<path d="M237.329 306.405C237.263 306.281 238.149 305.681 239.302 305.052C239.963 304.582 240.717 304.258 241.512 304.099C240.951 304.677 240.281 305.137 239.54 305.452C238.877 305.919 238.124 306.243 237.329 306.405Z" fill="#35B6FA"/>
<path d="M228.763 310.569C229.357 310.026 230.054 309.608 230.812 309.34C231.506 308.923 232.278 308.654 233.08 308.549C232.485 309.097 231.785 309.519 231.022 309.788C230.331 310.202 229.562 310.468 228.763 310.569Z" fill="#35B6FA"/>
<path d="M219.969 314.228C220.593 313.714 221.316 313.335 222.094 313.113C222.81 312.743 223.595 312.523 224.399 312.465C223.772 312.973 223.049 313.352 222.275 313.58C221.557 313.949 220.773 314.169 219.969 314.228Z" fill="#35B6FA"/>
<path d="M210.974 317.353C211.63 316.892 212.372 316.568 213.156 316.4C213.892 316.065 214.691 315.89 215.5 315.886C214.111 316.692 212.57 317.201 210.974 317.382V317.353Z" fill="#35B6FA"/>
<path d="M201.817 319.945C202.494 319.51 203.253 319.218 204.047 319.087C204.804 318.805 205.611 318.679 206.419 318.716C205.737 319.148 204.976 319.439 204.18 319.573C203.425 319.854 202.622 319.981 201.817 319.945Z" fill="#35B6FA"/>
<path d="M192.508 321.984C193.214 321.594 193.992 321.351 194.795 321.269C195.564 321.029 196.375 320.948 197.177 321.031C196.472 321.426 195.694 321.672 194.89 321.755C194.119 321.99 193.309 322.068 192.508 321.984Z" fill="#35B6FA"/>
<path d="M183.103 323.47C183.818 323.119 184.595 322.912 185.39 322.861C186.173 322.672 186.986 322.64 187.782 322.765C186.276 323.324 184.667 323.555 183.065 323.442L183.103 323.47Z" fill="#35B6FA"/>
<path d="M173.622 324.404C174.369 324.1 175.169 323.948 175.976 323.956C176.768 323.809 177.583 323.829 178.367 324.014C177.621 324.317 176.82 324.466 176.014 324.452C175.222 324.605 174.407 324.589 173.622 324.404Z" fill="#35B6FA"/>
<path d="M164.103 324.766C164.864 324.499 165.672 324.395 166.476 324.461C167.277 324.361 168.09 324.423 168.867 324.642C168.104 324.91 167.293 325.018 166.485 324.957C165.687 325.053 164.877 324.988 164.103 324.766Z" fill="#35B6FA"/>
<path d="M154.575 324.614C155.351 324.388 156.166 324.33 156.967 324.442C157.771 324.389 158.578 324.5 159.339 324.766C157.758 325.047 156.135 324.995 154.575 324.614Z" fill="#35B6FA"/>
<path d="M145.075 323.88C145.865 323.723 146.677 323.723 147.467 323.88C148.275 323.874 149.076 324.033 149.82 324.347C149.028 324.51 148.211 324.51 147.419 324.347C146.614 324.356 145.816 324.197 145.075 323.88Z" fill="#35B6FA"/>
<path d="M135.632 322.603C137.233 322.506 138.837 322.746 140.339 323.308C139.543 323.439 138.729 323.404 137.948 323.204C137.143 323.162 136.355 322.958 135.632 322.603Z" fill="#35B6FA"/>
<path d="M126.313 320.764C127.116 320.687 127.926 320.771 128.696 321.012C129.499 321.096 130.275 321.35 130.973 321.755C129.371 321.759 127.785 321.434 126.313 320.802V320.764Z" fill="#35B6FA"/>
<path d="M117.061 318.373C118.664 318.468 120.229 318.9 121.654 319.64C120.848 319.67 120.044 319.537 119.291 319.249C118.496 319.112 117.737 318.814 117.061 318.373Z" fill="#35B6FA"/>
<path d="M107.99 315.448C108.797 315.459 109.591 315.637 110.325 315.972C111.11 316.161 111.851 316.501 112.507 316.972C111.701 316.96 110.906 316.782 110.172 316.448C109.387 316.261 108.645 315.921 107.99 315.448Z" fill="#35B6FA"/>
<path d="M99.1191 311.979C99.922 312.043 100.703 312.27 101.415 312.646C102.192 312.873 102.912 313.259 103.531 313.78C101.95 313.496 100.447 312.883 99.1191 311.979Z" fill="#35B6FA"/>
<path d="M90.4675 307.996C92.0259 308.381 93.4886 309.081 94.7649 310.054C93.9662 309.941 93.1983 309.669 92.5066 309.254C91.3156 308.682 90.4008 308.12 90.4675 307.996Z" fill="#35B6FA"/>
<path d="M82.0634 303.509C82.8533 303.676 83.6017 304 84.2644 304.461C85.0048 304.777 85.6728 305.241 86.2273 305.824C85.4358 305.661 84.6864 305.337 84.0262 304.871C82.8733 304.242 81.9967 303.632 82.0634 303.509Z" fill="#35B6FA"/>
<path d="M73.9072 298.535C74.6873 298.74 75.417 299.103 76.0511 299.602C77.166 300.307 78.0045 300.964 77.9568 301.088C77.1744 300.874 76.4446 300.501 75.8129 299.992C74.7076 299.316 73.9072 298.649 73.9072 298.535Z" fill="#35B6FA"/>
<path d="M66.1223 293.094C66.8831 293.347 67.5859 293.748 68.1899 294.275C69.2571 295.038 70.0956 295.752 69.9813 295.867C69.2142 295.617 68.507 295.212 67.9041 294.676C66.8369 293.913 66.0365 293.208 66.1223 293.094Z" fill="#35B6FA"/>
<path d="M58.6617 287.205C59.4153 287.496 60.1001 287.941 60.6722 288.511C61.6918 289.34 62.4445 290.102 62.3683 290.207C61.616 289.914 60.9317 289.469 60.3578 288.901C59.3097 288.072 58.5474 287.31 58.6617 287.205Z" fill="#35B6FA"/>
<path d="M51.5057 280.936C52.2296 281.276 52.8776 281.759 53.4114 282.355C54.3642 283.241 55.0884 284.042 55.0026 284.147C54.9169 284.251 54.0498 283.613 53.0969 282.727C52.1441 281.841 51.4199 280.983 51.5057 280.936Z" fill="#35B6FA"/>
<path d="M44.769 274.161C45.4748 274.55 46.0991 275.07 46.608 275.695C47.5609 276.648 48.1897 277.477 48.0849 277.601C47.9801 277.725 47.1321 277.019 46.2459 276.076C45.3598 275.133 44.6642 274.266 44.769 274.161Z" fill="#35B6FA"/>
<path d="M38.4231 267.062C38.5374 266.967 39.3188 267.701 40.1763 268.692C40.7552 269.252 41.221 269.918 41.5484 270.654C41.4436 270.75 40.6623 270.016 39.7952 269.025C38.9281 268.034 38.3183 267.148 38.4231 267.062Z" fill="#35B6FA"/>
<path d="M32.5155 259.592C32.6299 259.516 33.3636 260.287 34.164 261.336C34.716 261.924 35.1437 262.617 35.4217 263.375C35.3074 263.451 34.5737 262.679 33.7733 261.631C32.9729 260.583 32.4012 259.678 32.5155 259.592Z" fill="#35B6FA"/>
<path d="M27.0557 251.798C27.17 251.721 27.8561 252.541 28.5897 253.627C29.1091 254.243 29.4952 254.96 29.7236 255.733C29.6188 255.819 28.9232 254.999 28.18 253.903C27.6656 253.285 27.283 252.569 27.0557 251.798Z" fill="#35B6FA"/>
<path d="M22.0532 243.689C22.1771 243.622 22.8155 244.48 23.492 245.595C23.9519 246.248 24.2759 246.986 24.4449 247.767C24.3305 247.834 23.6921 246.976 23.0156 245.861C22.5507 245.21 22.2233 244.471 22.0532 243.689Z" fill="#35B6FA"/>
<path d="M17.5464 235.313C17.6703 235.247 18.261 236.142 18.8613 237.305C19.3004 237.982 19.5985 238.74 19.7379 239.534C19.6141 239.601 19.0233 238.705 18.423 237.533C17.9801 236.862 17.6816 236.106 17.5464 235.313Z" fill="#35B6FA"/>
<path d="M13.5349 226.671C14.4638 227.972 15.1127 229.451 15.4406 231.016C15.3167 231.083 14.7736 230.149 14.24 228.948C13.8549 228.244 13.6151 227.47 13.5349 226.671Z" fill="#35B6FA"/>
<path d="M10.0667 217.81C10.554 218.448 10.9102 219.177 11.1148 219.953C11.472 220.676 11.6794 221.464 11.7246 222.269C11.2255 221.635 10.8623 220.905 10.6574 220.125C10.3015 219.403 10.1002 218.614 10.0667 217.81Z" fill="#35B6FA"/>
<path d="M7.08403 208.758C7.54648 209.42 7.87056 210.168 8.03688 210.959C8.3537 211.702 8.51269 212.504 8.50377 213.312C8.04336 212.649 7.71946 211.901 7.55093 211.111C7.2349 210.367 7.07595 209.566 7.08403 208.758Z" fill="#35B6FA"/>
<path d="M4.66409 199.553C5.09284 200.236 5.37211 201.003 5.48354 201.802C5.75342 202.562 5.8637 203.37 5.8075 204.174C5.38542 203.489 5.10967 202.723 4.99759 201.926C4.72812 201.165 4.6147 200.358 4.66409 199.553Z" fill="#35B6FA"/>
<path d="M2.7965 190.206C3.17887 190.919 3.40922 191.704 3.47302 192.512C3.69632 193.285 3.76113 194.095 3.66358 194.894C3.28322 194.183 3.05296 193.401 2.98706 192.597C2.76377 191.821 2.69896 191.008 2.7965 190.206Z" fill="#35B6FA"/>
<path d="M1.49119 180.772C1.83219 181.505 2.01715 182.3 2.03431 183.107C2.19525 183.896 2.19525 184.71 2.03431 185.499C1.50247 183.97 1.30111 182.346 1.44355 180.734L1.49119 180.772Z" fill="#35B6FA"/>
<path d="M0.728582 171.282C1.01795 172.032 1.15404 172.832 1.12878 173.636C1.26379 174.434 1.23134 175.252 1.03349 176.037C0.743362 175.284 0.60728 174.48 0.633299 173.674C0.502342 172.878 0.534761 172.065 0.728582 171.282Z" fill="#35B6FA"/>
<path d="M0.537967 161.754C0.779906 162.523 0.867336 163.333 0.795232 164.136C0.885122 164.937 0.810551 165.747 0.576082 166.518C0.327713 165.75 0.233799 164.94 0.299756 164.136C0.210158 163.334 0.291341 162.522 0.537967 161.754Z" fill="#35B6FA"/>
<path d="M0.87161 152.235C1.0726 153.016 1.11473 153.829 0.995484 154.627C1.03624 155.431 0.9097 156.236 0.623868 156.99C0.423644 156.209 0.381532 155.395 0.500001 154.598C0.455853 153.793 0.582493 152.988 0.87161 152.235Z" fill="#35B6FA"/>
<path d="M1.76744 142.773C1.93605 143.561 1.93605 144.376 1.76744 145.165C1.75664 145.972 1.58496 146.769 1.26243 147.509C1.0981 145.902 1.27341 144.279 1.77697 142.745L1.76744 142.773Z" fill="#35B6FA"/>
<path d="M3.22511 133.33C3.34182 134.129 3.28989 134.944 3.07265 135.722C3.01669 136.518 2.80292 137.296 2.44377 138.009C2.32706 137.21 2.379 136.395 2.59623 135.617C2.65015 134.82 2.86403 134.043 3.22511 133.33Z" fill="#35B6FA"/>
<path d="M5.2452 124.012C5.21456 125.62 4.84779 127.204 4.16848 128.661C4.1053 127.856 4.20578 127.045 4.46387 126.279C4.56624 125.478 4.83218 124.706 5.2452 124.012Z" fill="#35B6FA"/>
<path d="M7.79882 114.836C7.66611 116.436 7.20898 117.992 6.4553 119.409C6.43321 118.604 6.57925 117.802 6.88409 117.056C7.03762 116.262 7.34865 115.507 7.79882 114.836Z" fill="#35B6FA"/>
<path d="M10.8955 105.831C10.8694 106.638 10.6747 107.43 10.3238 108.156C10.1223 108.935 9.76941 109.667 9.28516 110.31C9.3112 109.503 9.50595 108.711 9.85686 107.985C10.0557 107.205 10.4088 106.472 10.8955 105.831Z" fill="#35B6FA"/>
<path d="M14.5258 97.0366C14.4474 97.8386 14.2075 98.6165 13.8207 99.3234C13.5714 100.092 13.1732 100.805 12.6487 101.42C12.7279 100.617 12.9712 99.8382 13.3633 99.1329C13.6012 98.3611 13.9971 97.6472 14.5258 97.0366Z" fill="#35B6FA"/>
<path d="M18.6422 88.4609C18.2303 90.012 17.5038 91.4618 16.5078 92.7202C16.6331 91.9233 16.9218 91.1609 17.3558 90.481C17.9752 89.2804 18.5469 88.3752 18.6422 88.4609Z" fill="#35B6FA"/>
<path d="M23.3111 80.1237C23.1501 80.9098 22.8254 81.6533 22.3582 82.3057C21.7007 83.4396 21.0719 84.3162 20.948 84.2114C21.1192 83.4256 21.4429 82.681 21.9008 82.0199C22.5678 80.9146 23.1967 80.0475 23.3111 80.1237Z" fill="#35B6FA"/>
<path d="M28.4375 72.0913C28.2177 72.8675 27.8416 73.5906 27.3322 74.2161C26.608 75.3119 25.9315 76.1218 25.8171 76.0646C26.041 75.2901 26.4167 74.5678 26.9224 73.9398C27.6466 72.844 28.3231 72.0151 28.4375 72.0913Z" fill="#35B6FA"/>
<path d="M34.021 64.3732C33.7623 65.1367 33.3469 65.8378 32.8013 66.4313C32.0105 67.4794 31.2863 68.2703 31.172 68.1941C31.0576 68.1178 31.6103 67.2412 32.4011 66.1359C33.192 65.0306 33.8876 64.2874 34.021 64.3732Z" fill="#35B6FA"/>
<path d="M40.0527 57.0172C40.1575 57.1125 39.5477 57.97 38.7092 58.9991C37.8707 60.0282 37.0893 60.7523 36.9845 60.6666C36.8797 60.5808 37.48 59.7137 38.3281 58.6847C39.1761 57.6556 39.9479 56.9124 40.0527 57.0172Z" fill="#35B6FA"/>
<path d="M46.4939 49.9947C46.5987 50.09 45.9412 50.9476 45.036 51.9004C44.1308 52.8532 43.3209 53.5488 43.2256 53.4631C43.1303 53.3773 43.7783 52.5102 44.6835 51.5574C45.5887 50.6045 46.3986 49.8994 46.4939 49.9947Z" fill="#35B6FA"/>
<path d="M53.3448 43.3724C53.44 43.4773 52.7349 44.3253 51.7821 45.1829C50.8292 46.0404 49.9717 46.7265 49.8764 46.6312C49.7811 46.5359 50.4767 45.726 51.4391 44.8208C52.4014 43.9156 53.2495 43.2676 53.3448 43.3724Z" fill="#35B6FA"/>
<path d="M60.5673 37.1693C60.653 37.2741 59.9003 38.0459 58.8998 38.8844C58.3322 39.4582 57.655 39.9119 56.9083 40.2184C56.8226 40.1136 57.5658 39.3418 58.5758 38.5033C59.1403 37.9258 59.8184 37.4715 60.5673 37.1693Z" fill="#35B6FA"/>
<path d="M68.1329 31.3951C68.2187 31.5095 67.4278 32.2241 66.3702 33.0055C65.7706 33.5429 65.0713 33.9573 64.312 34.2251C64.2263 34.1203 65.0171 33.3961 66.0748 32.6053C66.67 32.0643 67.3708 31.6522 68.1329 31.3951Z" fill="#35B6FA"/>
<path d="M76.0319 26.0782C76.1082 26.1926 75.2697 26.8691 74.1739 27.5837C73.5464 28.088 72.8237 28.4607 72.0491 28.6795C71.9728 28.5652 72.8018 27.8887 73.9071 27.1645C74.5311 26.657 75.2551 26.2868 76.0319 26.0782Z" fill="#35B6FA"/>
<path d="M84.2266 21.2283C84.2933 21.3521 83.4262 21.9715 82.3209 22.629C81.6623 23.0914 80.9168 23.4155 80.1294 23.5818C80.6663 22.9941 81.3139 22.5181 82.0351 22.1811C82.6929 21.7173 83.4387 21.393 84.2266 21.2283Z" fill="#35B6FA"/>
<path d="M92.6972 16.8738C92.1167 17.4311 91.4296 17.8654 90.6772 18.1506C89.9942 18.5837 89.2283 18.8693 88.4285 18.9891C89.0089 18.4318 89.696 17.9975 90.4485 17.7123C91.1322 17.2806 91.8978 16.9952 92.6972 16.8738Z" fill="#35B6FA"/>
<path d="M101.406 13.0243C100.795 13.5516 100.081 13.9473 99.31 14.1868C98.6053 14.5772 97.826 14.8142 97.0232 14.8823C97.6357 14.3586 98.3492 13.9662 99.1195 13.7294C99.8269 13.3437 100.605 13.104 101.406 13.0243Z" fill="#35B6FA"/>
<path d="M110.325 9.69885C109.687 10.1915 108.954 10.5453 108.171 10.7374C107.442 11.0777 106.651 11.2688 105.846 11.2996C106.485 10.8113 107.219 10.4609 108 10.2706C108.729 9.92582 109.519 9.73137 110.325 9.69885Z" fill="#35B6FA"/>
<path d="M119.434 6.9165C118.762 7.36274 118.007 7.66749 117.214 7.81218C116.468 8.11702 115.666 8.26305 114.86 8.24096C116.274 7.48181 117.833 7.03044 119.434 6.9165Z" fill="#35B6FA"/>
<path d="M128.686 4.66789C127.23 5.3396 125.649 5.69984 124.046 5.72554C124.739 5.31102 125.512 5.04798 126.314 4.95374C127.076 4.69596 127.884 4.59864 128.686 4.66789Z" fill="#35B6FA"/>
<path d="M138.062 2.97186C136.568 3.5591 134.968 3.82532 133.365 3.7532C134.082 3.38635 134.866 3.16913 135.67 3.11478C136.45 2.9087 137.263 2.86012 138.062 2.97186Z" fill="#35B6FA"/>
<path d="M147.524 1.83803C145.988 2.33462 144.365 2.50342 142.76 2.33352C143.499 2.01153 144.297 1.84297 145.104 1.83803C145.901 1.66532 146.726 1.66532 147.524 1.83803Z" fill="#35B6FA"/>
<path d="M157.033 1.24723C156.277 1.53444 155.468 1.65785 154.661 1.60931C153.862 1.72214 153.05 1.67681 152.269 1.47592C153.025 1.18871 153.834 1.06529 154.642 1.11383C155.44 1.001 156.253 1.04633 157.033 1.24723Z" fill="#35B6FA"/>
<path d="M166.552 1.21857C165.781 1.45303 164.971 1.52761 164.17 1.43772C163.365 1.50367 162.556 1.40977 161.788 1.1614C163.363 0.849926 164.985 0.869392 166.552 1.21857Z" fill="#35B6FA"/>
<path d="M176.071 1.75213C174.477 1.96723 172.856 1.85373 171.307 1.41862C172.091 1.2316 172.904 1.20245 173.699 1.33287C174.51 1.30622 175.318 1.44901 176.071 1.75213Z" fill="#35B6FA"/>
<path d="M185.542 2.81937C184.746 2.95792 183.93 2.9385 183.141 2.76221C182.337 2.73671 181.546 2.54872 180.816 2.20955C182.429 2.07554 184.053 2.28334 185.58 2.81937H185.542Z" fill="#35B6FA"/>
<path d="M194.918 4.4486C193.311 4.48079 191.715 4.17904 190.23 3.56244C191.033 3.46534 191.847 3.53344 192.622 3.76255C193.426 3.83429 194.207 4.06764 194.918 4.4486Z" fill="#35B6FA"/>
<path d="M204.199 6.63061C202.593 6.57775 201.017 6.18136 199.578 5.46814C201.182 5.53317 202.755 5.92894 204.199 6.63061Z" fill="#35B6FA"/>
<path d="M213.327 9.37495C211.728 9.22257 210.178 8.73216 208.782 7.93616C209.585 7.94219 210.378 8.10736 211.117 8.4221C211.912 8.58252 212.665 8.90704 213.327 9.37495Z" fill="#35B6FA"/>
<path d="M222.274 12.6336C221.469 12.5823 220.682 12.3718 219.959 12.0142C219.18 11.8032 218.454 11.4334 217.825 10.928C218.63 10.9792 219.417 11.1897 220.14 11.5473C220.919 11.7573 221.646 12.1272 222.274 12.6336Z" fill="#35B6FA"/>
<path d="M231.012 16.426C230.214 16.3271 229.443 16.0713 228.744 15.6733C227.98 15.4151 227.276 15.0033 226.677 14.4631C227.476 14.558 228.247 14.8141 228.945 15.2159C230.174 15.759 231.127 16.3021 231.012 16.426Z" fill="#35B6FA"/>
<path d="M239.521 20.7233C238.725 20.5846 237.966 20.2829 237.291 19.8371C236.129 19.2273 235.233 18.6366 235.3 18.5127C236.093 18.654 236.848 18.9555 237.52 19.3988C238.268 19.7039 238.948 20.154 239.521 20.7233Z" fill="#35B6FA"/>
<path d="M247.744 25.516C246.961 25.3336 246.224 24.9896 245.581 24.5059C244.457 23.8294 243.599 23.1815 243.676 23.0576C244.46 23.2519 245.198 23.5983 245.848 24.0772C246.963 24.7537 247.82 25.4016 247.744 25.516Z" fill="#35B6FA"/>
<path d="M255.681 30.7948C254.911 30.5555 254.196 30.167 253.576 29.6514C252.499 28.9082 251.67 28.2126 251.756 28.0983C252.528 28.3328 253.244 28.7218 253.861 29.2417C254.948 29.9849 255.758 30.6805 255.681 30.7948Z" fill="#35B6FA"/>
<path d="M263.295 36.5214C262.538 36.2376 261.845 35.8069 261.255 35.2541C260.226 34.4442 259.445 33.7105 259.531 33.5962C260.286 33.877 260.977 34.3081 261.56 34.8635C262.57 35.6734 263.38 36.4071 263.295 36.5214Z" fill="#35B6FA"/>
<path d="M270.555 42.7244C270.46 42.8292 269.602 42.2099 268.602 41.3428C267.601 40.4757 266.877 39.6944 266.973 39.5896C267.068 39.4848 267.925 40.1041 268.926 40.9712C269.926 41.8383 270.651 42.5815 270.555 42.7244Z" fill="#35B6FA"/>
<path d="M277.444 49.2515C277.349 49.3468 276.491 48.6798 275.538 47.765C274.916 47.2529 274.398 46.6253 274.014 45.9165C274.109 45.8212 274.967 46.4882 275.92 47.4125C276.872 48.3367 277.539 49.1562 277.444 49.2515Z" fill="#35B6FA"/>
<path d="M283.933 56.2167C283.828 56.312 283.037 55.5974 282.151 54.6255C281.265 53.6536 280.636 52.7865 280.741 52.7198C280.846 52.6531 281.637 53.3391 282.523 54.3206C283.409 55.302 284.038 56.131 283.933 56.2167Z" fill="#35B6FA"/>
<path d="M290.012 63.5537C289.898 63.6395 289.145 62.8772 288.326 61.8577C287.76 61.2821 287.316 60.5983 287.02 59.8472C287.135 59.7519 287.887 60.5141 288.707 61.5432C289.273 62.1188 289.717 62.8026 290.012 63.5537Z" fill="#35B6FA"/>
<path d="M295.643 71.2336C295.529 71.3098 294.814 70.4999 294.062 69.4327C293.531 68.8279 293.129 68.1211 292.88 67.3555C292.994 67.2698 293.7 68.0702 294.462 69.1469C294.988 69.7587 295.389 70.4676 295.643 71.2336Z" fill="#35B6FA"/>
<path d="M300.808 79.2279C300.694 79.2946 300.036 78.4466 299.341 77.3222C298.848 76.6824 298.488 75.9501 298.283 75.1688C298.397 75.0926 299.064 75.9406 299.76 77.0745C300.257 77.7103 300.615 78.4442 300.808 79.2279Z" fill="#35B6FA"/>
<path d="M305.506 87.5081C305.382 87.5748 304.772 86.6886 304.143 85.5357C303.681 84.8736 303.357 84.1249 303.19 83.3346C303.314 83.2679 303.924 84.1445 304.553 85.2975C305.018 85.9617 305.342 86.714 305.506 87.5081Z" fill="#35B6FA"/>
<path d="M309.698 96.0837C309.151 95.4916 308.73 94.7947 308.459 94.0351C308.042 93.3454 307.773 92.5763 307.668 91.7769C308.216 92.369 308.637 93.0659 308.907 93.8255C309.327 94.514 309.597 95.2836 309.698 96.0837Z" fill="#35B6FA"/>
<path d="M313.386 104.831C312.872 104.21 312.493 103.49 312.271 102.716C311.891 102.006 311.667 101.223 311.613 100.419C312.123 101.043 312.502 101.762 312.728 102.535C313.107 103.245 313.331 104.028 313.386 104.831Z" fill="#35B6FA"/>
<path d="M316.539 113.816C316.082 113.162 315.758 112.423 315.587 111.644C315.258 110.905 315.083 110.108 315.072 109.3C315.529 109.958 315.852 110.699 316.025 111.482C316.359 112.215 316.534 113.01 316.539 113.816Z" fill="#35B6FA"/>
<path d="M319.16 122.973C318.433 121.545 318.011 119.981 317.921 118.38C318.648 119.809 319.07 121.373 319.16 122.973Z" fill="#35B6FA"/>
<path d="M321.237 132.292C320.606 130.816 320.282 129.228 320.284 127.623C320.684 128.326 320.934 129.105 321.018 129.91C321.252 130.681 321.327 131.491 321.237 132.292Z" fill="#35B6FA"/>
<path d="M322.762 141.677C322.402 140.953 322.201 140.161 322.171 139.352C321.977 138.57 321.941 137.757 322.066 136.961C322.625 138.484 322.862 140.106 322.762 141.725V141.677Z" fill="#35B6FA"/>
<path d="M323.724 151.149C323.408 150.408 323.252 149.61 323.267 148.805C323.107 148.012 323.107 147.196 323.267 146.404C323.582 147.148 323.738 147.949 323.724 148.757C323.885 149.546 323.885 150.36 323.724 151.149Z" fill="#35B6FA"/>
<path d="M324.134 160.668C323.861 159.908 323.754 159.099 323.819 158.295C323.717 157.497 323.776 156.688 323.991 155.913C324.265 156.672 324.375 157.481 324.315 158.285C324.416 159.084 324.355 159.894 324.134 160.668Z" fill="#35B6FA"/>
<path d="M311.289 169.596C311.375 167.89 311.423 166.204 311.432 164.508C311.442 162.812 311.432 160.944 311.432 159.172C311.432 160.944 311.48 162.726 311.432 164.508C311.385 166.289 311.375 167.89 311.289 169.596Z" fill="#263238"/>
<path d="M294.891 188.376C293.938 184.889 294.109 181.23 293.652 177.657C293.404 175.751 292.823 173.645 291.213 172.578C290.146 171.873 288.783 171.749 287.621 171.206C283.438 169.3 283.133 162.992 279.274 160.506C278.012 159.815 276.653 159.321 275.243 159.038C269.802 157.58 264.352 154.846 261.503 149.996C260.55 148.423 259.94 146.642 258.702 145.298C257.463 143.955 255.319 143.135 253.766 144.107C254.605 146.613 255.405 149.11 256.215 151.587C256.968 153.845 257.72 156.17 259.254 157.961C260.788 159.753 263.294 160.982 265.562 160.305C266.279 159.95 267.08 159.795 267.878 159.858C268.428 160.06 268.886 160.456 269.164 160.972C271.699 164.784 269.917 170.139 266.477 173.131C263.037 176.123 258.464 177.238 254.09 178.295C252.536 178.807 250.873 178.886 249.278 178.524C246.467 177.571 245.381 174.198 244.943 171.244C243.99 164.717 243.99 157.79 240.922 151.949C239.921 150.11 238.597 148.366 238.13 146.318C237.644 144.107 238.187 141.677 237.177 139.648C236.167 137.618 233.537 135.998 233.69 133.635C233.804 131.987 235.367 130.777 236.967 130.253C238.568 129.729 240.274 129.776 241.913 129.367C242.551 129.195 243.294 128.852 243.418 128.204C243.552 127.251 242.256 126.632 242.037 125.67C241.817 124.707 242.989 123.764 243.59 122.811C244.885 120.658 242.837 117.999 240.655 116.732C238.473 115.465 235.824 114.388 235.071 111.968C234.834 110.834 234.744 109.675 234.804 108.518C234.681 105.612 232.994 102.582 230.212 101.696C227.429 100.81 223.866 102.906 223.923 105.822C223.923 107.423 224.962 108.814 225.39 110.348C225.819 111.882 225.333 114.016 223.77 114.264C221.207 114.655 219.502 109.833 217.224 111.072C217.644 114.073 218.053 117.065 218.473 120.076C215.014 121.248 211.584 117.723 210.697 114.159C209.811 110.596 210.307 106.784 209.135 103.325C207.963 99.8666 203.904 96.7984 200.769 98.685C200.035 102.82 205.276 105.298 207.22 109.004C208.62 111.691 207.791 115.598 204.98 116.77C202.17 117.942 198.482 114.664 199.873 112.006C200.369 111.053 201.302 110.376 201.55 109.338C201.836 108.042 200.883 106.832 200.007 105.85C198.634 104.288 197.253 102.754 195.881 101.22C195.051 100.163 194.018 99.285 192.841 98.6374C189.754 97.2367 186.171 99.3806 184.037 102.01C181.902 104.64 180.464 107.909 177.758 109.976C173.861 112.987 167.41 112.273 164.761 108.137C162.112 104.002 164.761 97.3796 169.611 96.7031C171.459 96.4649 173.689 96.8365 174.851 95.4072C176.891 92.8632 172.727 88.6421 174.747 86.0694C176.3 84.097 179.425 85.5549 181.912 85.1737C184.399 84.7926 186.047 82.601 187.753 80.7525C189.459 78.904 191.888 77.1793 194.242 78.0655C194.121 76.6075 194.422 75.1455 195.109 73.8539C195.928 72.6343 197.834 72.053 198.873 73.0631C197.405 74.8544 198.434 77.8273 200.369 79.066C202.303 80.3047 204.771 80.4667 207.096 80.5429C209.421 80.6191 212.413 80.1713 212.937 77.9035C213.108 77.1698 212.937 76.3313 213.327 75.6739C214.728 73.0916 219.225 77.5795 221.484 75.6739C222.77 74.721 221.827 72.4818 220.321 71.8625C218.816 71.2431 217.139 71.5862 215.557 71.4051C213.975 71.2241 212.146 70.1283 212.308 68.5466C212.47 66.9649 214.375 66.1073 214.785 64.5923C215.471 62.0196 211.126 60.6951 209.259 62.6008C207.391 64.5065 207.525 67.4984 207.61 70.1569C207.696 72.8153 207.524 75.8739 205.342 77.4557C204.342 78.58 202.312 77.6177 201.807 76.2074C201.302 74.7972 201.664 73.2346 201.76 71.7386C201.855 70.2426 201.445 68.4513 200.054 67.851C199.101 67.4222 197.948 67.7557 196.9 67.7462C192.765 67.6509 190.697 62.0291 192.546 58.294C194.394 54.5588 198.415 52.5769 202.284 51.1476C205.142 50.0805 208.544 49.242 210.926 51.0333C212.041 51.8909 212.717 53.1772 213.785 54.0538C215.69 55.5688 218.273 55.4926 220.626 55.8738C224.344 56.5421 227.716 58.4742 230.174 61.3431C231.126 62.4484 231.832 64.2016 230.85 65.2116C229.869 66.2216 227.201 66.1645 227.439 67.67C228.098 67.9601 228.812 68.1077 229.532 68.1031C230.253 68.0984 230.964 67.9416 231.62 67.643C232.276 67.3444 232.861 66.9106 233.338 66.3701C233.814 65.8296 234.171 65.1945 234.385 64.5065C235.016 64.9149 235.529 65.4819 235.872 66.1509C236.215 66.8198 236.376 67.5671 236.339 68.3179C237.21 67.7129 238.198 67.2964 239.24 67.0951C240.281 66.8938 241.353 66.9121 242.387 67.1489C243.421 67.3857 244.395 67.8357 245.245 68.4701C246.095 69.1046 246.803 69.9095 247.325 70.8334C247.705 71.9016 248.269 72.8949 248.992 73.7682C249.84 74.5114 251.517 74.4447 251.794 73.3584C251.874 73.0105 251.874 72.6487 251.794 72.3008C251.46 70.6333 251.108 68.9849 250.774 67.3365C253.109 66.4884 255.414 68.68 256.605 70.8525C261.017 78.9516 265.553 75.1307 273.08 77.4366C278.178 78.9802 279.988 82.6582 282.342 87.1175C289.564 100.848 299.998 112.759 306.315 126.927C306.951 128.407 307.554 129.9 308.126 131.406C308.04 131.034 307.973 130.672 307.878 130.3C305.899 121.407 303.086 112.719 299.474 104.354C298.705 102.582 297.911 100.823 297.092 99.0757C296.577 97.999 296.044 96.9032 295.51 95.8456C294.824 94.4544 294.09 93.1109 293.357 91.7674C292.775 90.6812 292.185 89.614 291.575 88.5754C291.156 87.8417 290.717 87.1175 290.27 86.3838C289.822 85.6501 289.317 84.7449 288.764 83.9255L287.135 81.3719C286.971 81.0989 286.793 80.8349 286.601 80.581C286.039 79.6949 285.429 78.8182 284.819 77.9416C284.781 77.8397 284.719 77.7483 284.638 77.6748C284.486 77.4366 284.305 77.1984 284.124 76.9602C283.638 76.217 283.095 75.4928 282.58 74.7782C281.722 73.6062 280.846 72.4342 279.931 71.3003C279.197 70.3475 278.426 69.3946 277.635 68.4418C276.844 67.4889 276.253 66.7648 275.539 65.9453C274.824 65.1259 274.147 64.335 273.433 63.5442C272.566 62.5913 271.689 61.6385 270.774 60.6284C268.268 57.9509 265.667 55.3783 262.961 52.939C262.294 52.3196 261.637 51.7194 260.96 51.1286C260.283 50.5378 259.588 49.928 258.902 49.3468C258.216 48.7655 257.53 48.1748 256.815 47.6126C256.1 47.0504 255.414 46.4596 254.709 45.907C254.004 45.3543 253.575 45.0018 252.994 44.5825C252.711 44.3421 252.415 44.1163 252.108 43.906C250.888 42.9532 249.64 42.0003 248.382 41.1714C247.754 40.7235 247.125 40.2757 246.477 39.8469C245.676 39.2752 244.847 38.7321 244.018 38.208C243.904 38.1125 243.779 38.0295 243.647 37.9603C242.904 37.4743 242.17 37.0074 241.398 36.5119C240.331 35.864 239.254 35.2066 238.177 34.6063C236.948 33.8821 235.719 33.1579 234.452 32.4719C233.185 31.7859 231.67 30.9473 230.25 30.2422C228.83 29.5371 227.391 28.8034 225.933 28.1174C224.476 27.4313 223.018 26.7929 221.541 26.145C218.625 24.8873 215.643 23.7153 212.632 22.6385L212.47 22.5718C211.317 22.1621 210.154 21.7619 208.992 21.3998C208.92 21.3604 208.843 21.3315 208.763 21.3141C208.268 21.1521 207.744 20.9806 207.22 20.8281C205.047 20.1326 202.856 19.5132 200.626 18.9225C200.36 18.8391 200.089 18.7691 199.816 18.7128C199.178 18.5223 198.53 18.3793 197.863 18.2173C196.395 17.8553 194.909 17.5218 193.413 17.2169C191.917 16.9119 190.278 16.5689 188.706 16.264C187.134 15.9591 185.399 15.6923 183.741 15.4541C179.352 14.8189 174.979 14.3837 170.621 14.1487C169.582 14.0725 168.572 14.0248 167.543 13.9963C166.514 13.9677 165.409 13.92 164.342 13.9105C163.274 13.901 162.198 13.9105 161.15 13.9105C160.101 13.9105 159.015 13.9105 157.938 13.9677C157.033 13.9677 156.099 13.9677 155.185 14.0725C152.923 14.1805 150.684 14.3329 148.467 14.5298C147.429 14.6156 146.39 14.7299 145.342 14.8633C144.294 14.9967 143.255 15.1111 142.236 15.254C140.511 15.4827 138.824 15.759 137.138 16.0449L133.022 16.8071H132.926C131.526 17.0835 130.173 17.3884 128.791 17.7123H128.572C127.305 18.0077 126.047 18.3222 124.808 18.6652C123.245 19.0558 121.702 19.5037 120.187 19.9515C118.891 20.3327 117.614 20.7233 116.375 21.1426C115.137 21.5618 113.669 22.0382 112.335 22.5147L112.192 22.5623C110.906 23.0197 109.62 23.5152 108.381 24.0106C107.142 24.5061 105.78 25.0397 104.474 25.6114C103.255 26.1259 102.064 26.6405 100.863 27.1836C100.406 27.3837 99.9674 27.6029 99.5005 27.822C98.2333 28.4033 96.9946 29.0131 95.6892 29.642C94.1456 30.3947 92.6496 31.2046 91.1536 32.0145C89.8292 32.7292 88.5333 33.4724 87.2565 34.2156C79.8555 38.5179 72.8389 43.4496 66.2844 48.9561C63.9785 50.8618 61.787 52.8437 59.6145 54.8637C57.7946 56.6074 56.0127 58.3702 54.2881 60.2187C52.7445 61.8195 51.239 63.4679 49.7811 65.1449C51.239 63.4679 52.7445 61.8195 54.2881 60.2187C54.6692 60.2187 55.0504 60.2187 55.422 60.2187C57.5468 60.3616 59.7574 60.7523 61.787 60.1139C63.6927 59.5041 65.1219 58.1129 66.8752 57.2554C71.3535 54.9495 78.0901 55.3497 79.891 50.6712C80.5008 49.0895 80.3198 47.2505 81.1488 45.7736C82.7114 43.0199 86.6753 43.1628 89.8006 43.6678C91.1346 43.8584 92.6591 44.2681 93.107 45.5735C93.2127 46.0337 93.2199 46.511 93.1279 46.9741C93.0359 47.4373 92.8469 47.8757 92.5734 48.2605C89.8295 53.4647 85.3782 57.5661 79.9672 59.8757C75.546 61.7814 69.9719 62.9153 68.1806 67.3746C68.5141 69.023 71.3821 69.2803 71.3726 70.9859C71.3726 72.3198 69.5717 72.7486 68.7904 73.8444C67.6565 75.4166 69.3907 77.7892 71.344 77.9797C73.2973 78.1703 75.1077 77.0269 76.7276 75.893C81.549 72.5581 86.6181 68.9563 88.9716 63.5727C89.9245 61.3526 90.5914 58.6751 92.6782 57.4078C93.3136 57.0852 94.0152 56.9142 94.7278 56.9083C95.4404 56.9023 96.1447 57.0616 96.7854 57.3737C97.4261 57.6857 97.9858 58.142 98.4205 58.7067C98.8552 59.2715 99.1532 59.9292 99.2909 60.6284C101.292 59.8662 104.274 59.5136 104.951 61.5813C105.061 62.3256 105.089 63.0795 105.037 63.83C105.208 66.9077 109.096 68.8515 109.086 71.9292C109.086 75.4737 104.322 76.6267 100.787 76.6934C97.5663 76.6934 94.3457 76.7601 91.1155 76.8173C89.7106 76.7166 88.3021 76.9551 87.0088 77.5128C86.3693 77.8145 85.8524 78.326 85.5438 78.9621C85.2353 79.5983 85.1537 80.3208 85.3127 81.0098C85.6938 81.7014 86.1613 82.3417 86.7038 82.9155C88.943 85.9074 86.0083 90.9861 82.3017 90.5382C81.0344 90.3953 79.8624 89.7569 78.6142 89.5282C74.8981 88.8231 71.4583 91.6816 69.2001 94.7212C66.9419 97.7608 65.0743 101.324 61.7679 103.135C56.432 106.06 48.2566 104.021 45.1217 109.243C43.864 111.348 43.9878 113.94 44.0164 116.398C44.045 118.857 43.8163 121.525 42.1107 123.307C40.4051 125.088 36.7939 124.964 36.0792 122.62C35.8739 121.57 35.9833 120.483 36.3937 119.495C37.4482 116.122 38.4931 112.746 39.5285 109.366C40.3003 106.851 41.0626 104.031 39.8525 101.744C38.1469 98.4945 33.3446 98.0848 30.2478 100.048C27.1511 102.01 25.4836 105.536 24.2163 108.947C23.2635 111.482 22.082 115.083 20.2049 117.856C19.252 120.715 18.4707 123.573 17.737 126.489C17.0033 129.405 16.3554 132.473 15.8313 135.532C16.3011 135.241 16.7529 134.923 17.1843 134.579C18.8709 133.273 22.768 127.28 24.9786 130.815C25.2448 131.277 25.3516 131.813 25.2828 132.342C25.2139 132.871 24.9731 133.362 24.5975 133.74C23.6446 134.693 21.9581 134.693 21.1672 135.722C20.2144 136.97 21.0243 138.809 22.1201 139.876C23.2158 140.944 24.7118 141.782 25.4169 143.164C26.7604 145.86 24.5975 149.338 25.8933 152.082C27.0082 154.436 30.0191 155.017 32.5632 155.665L33.4303 155.941C34.8977 150.901 37.9087 147.07 45.1408 146.499C55.1266 145.698 66.6751 155.551 71.0677 163.65C75.9558 172.683 77.1659 184.613 85.8653 190.063C92.0969 193.95 101.711 194.265 103.969 201.249C106.018 207.509 100.025 213.341 98.319 219.696C97.2137 223.908 97.995 228.358 97.7092 232.674C97.4233 236.99 95.4033 241.84 91.2394 243.07C88.9335 243.737 86.2179 243.222 84.2265 244.604C80.6914 247.1 82.3208 253.541 78.8334 256.038C77.5851 256.905 75.9748 257.057 74.5837 257.543C67.0848 260.059 65.7889 270.359 67.9995 277.953C68.0853 278.229 68.171 278.477 68.2473 278.754C89.1487 295.743 114.263 306.751 140.921 310.607C165.064 314.135 189.705 311.654 212.66 303.385C217.49 301.64 222.225 299.646 226.848 297.41C233.975 293.991 240.813 290.002 247.296 285.481C251.783 282.37 256.091 279.007 260.198 275.409C263.056 272.913 265.848 270.283 268.535 267.577C269.898 266.176 271.251 264.775 272.537 263.308C282.133 252.817 290.157 240.99 296.358 228.196C300.151 220.422 303.244 212.326 305.601 204.003C306.554 200.744 307.363 197.438 308.088 194.084C307.203 194.781 306.19 195.297 305.106 195.603C304.022 195.909 302.889 195.998 301.77 195.866C298.331 195.237 295.844 191.845 294.891 188.376Z" fill="#35B6FA"/>
<path d="M216.31 245.023C211.803 250.063 210.126 256.943 208.144 263.403C206.162 269.863 203.379 276.648 197.662 280.268C191.945 283.889 182.655 282.279 180.74 275.79C179.692 272.274 181.035 268.491 180.74 264.832C180.33 260.068 177.176 255.98 176.071 251.331C175.118 247.357 175.728 243.212 176.185 239.153C178.72 217.009 176.671 193.207 163.989 174.874C162.436 172.616 160.616 170.377 158.1 169.31C156.586 168.692 154.925 168.526 153.319 168.832C151.712 169.138 150.229 169.903 149.048 171.034C147.619 172.454 146.695 174.398 145.027 175.532C141.397 178 136.099 175.094 134.498 171.006C132.898 166.918 133.87 162.325 134.851 158.047C136.083 152.737 137.306 147.429 138.519 142.125C139.158 139.352 139.911 136.408 142.064 134.502C145.123 131.844 149.839 132.387 153.393 130.443C158.053 127.909 159.482 121.982 162.788 117.828C166.095 113.673 174.68 112.959 175.175 118.237C186.667 100.724 202.026 131.444 213.87 131.015C217.31 130.882 220.807 129.748 224.113 130.71C229.945 132.406 232.07 139.41 233.28 145.365C235.281 155.249 237.285 165.13 239.292 175.008C240.054 178.771 241.131 182.993 244.485 184.879C247.048 186.328 250.317 185.975 252.908 187.366C259.769 191.054 255.767 202.097 249.211 206.299C242.656 210.501 233.985 212.512 230.173 219.296C227.315 224.413 228.049 230.997 225.028 236.028C222.884 239.62 219.111 241.869 216.31 245.023Z" fill="#263238"/>
<path d="M242.904 255.123C240.474 255.123 237.834 253.532 235.805 254.856C234.614 255.628 234.156 257.105 233.547 258.382C232.749 260.198 231.316 261.662 229.516 262.498C228.613 262.895 227.613 263.022 226.639 262.863C225.665 262.704 224.758 262.266 224.028 261.602C223.339 260.9 222.953 259.956 222.953 258.972C222.953 257.989 223.339 257.044 224.028 256.343C224.768 255.842 225.535 255.381 226.324 254.961C229.907 252.436 228.544 246.585 231.46 243.384C233.185 241.478 235.719 239.696 237.577 237.81C239.006 236.352 239.635 235.123 241.893 235.008C251.774 234.503 253.232 255.209 242.904 255.123Z" fill="#263238"/>
<path d="M28.4374 183.212C28.5803 178.915 30.5908 174.894 31.2959 170.634C31.7723 167.69 32.0105 164.555 32.3917 161.582C29.8807 161.106 27.4208 160.391 25.0452 159.448C24.5289 159.306 24.0776 158.989 23.7684 158.552C23.5858 158.035 23.5593 157.475 23.6922 156.942C23.9876 153.597 21.1005 150.939 18.4706 148.862C17.1631 147.765 15.7453 146.807 14.24 146.003C14.24 146.356 14.1447 146.68 14.1161 147.032C12.3654 163.117 13.2504 179.38 16.7364 195.18C18.2915 202.208 20.3714 209.11 22.9585 215.828C24.0162 218.686 25.2263 221.592 26.5126 224.403C28.1039 227.9 29.7999 231.34 31.677 234.684C33.4017 237.896 35.2788 241.049 37.2988 244.108C40.0463 248.343 43.0104 252.433 46.1793 256.362C48.987 259.868 51.9567 263.238 55.0884 266.471C50.1622 243.679 45.7696 220.506 34.6499 200.115C31.6961 194.798 28.2468 189.291 28.4374 183.212Z" fill="#35B6FA"/>
<path d="M15.2119 138.962C15.069 139.848 14.907 140.724 14.7736 141.611C14.6688 142.335 14.5926 143.059 14.4973 143.783C14.5926 143.059 14.6688 142.335 14.7736 141.611C14.907 140.743 15.069 139.915 15.2119 138.962Z" fill="#263238"/>
<g opacity="0.6">
<path opacity="0.6" d="M62.4729 273.665C63.5973 274.685 64.7311 275.685 65.8936 276.667C66.694 277.353 67.5039 278.02 68.3424 278.687C67.5039 278.02 66.694 277.353 65.8936 276.667C64.7121 275.685 63.5782 274.685 62.4729 273.665Z" fill="#263238"/>
</g>
<path d="M249.231 206.318C255.786 202.116 259.788 191.073 252.928 187.385C250.336 185.994 247.068 186.347 244.504 184.898C241.15 182.993 240.074 178.791 239.311 175.027C237.31 165.143 235.306 155.262 233.299 145.384C232.089 139.429 229.964 132.425 224.133 130.729C220.826 129.776 217.329 130.901 213.89 131.034C202.046 131.463 186.686 100.743 175.195 118.256C174.709 112.978 166.133 113.692 162.808 117.847C159.482 122.001 158.043 127.928 153.413 130.462C149.858 132.368 145.142 131.863 142.083 134.521C139.93 136.427 139.225 139.352 138.539 142.144C137.319 147.448 136.096 152.756 134.87 158.066C133.917 162.344 132.964 166.928 134.518 171.025C136.071 175.122 141.416 178.019 145.047 175.551C146.714 174.417 147.638 172.473 149.068 171.053C150.248 169.922 151.732 169.157 153.338 168.851C154.945 168.545 156.605 168.711 158.12 169.329C160.635 170.396 162.455 172.635 164.008 174.893C176.69 193.226 178.739 217.028 176.205 239.172C175.747 243.231 175.147 247.376 176.09 251.35C177.195 256 180.349 260.087 180.759 264.851C181.074 268.51 179.73 272.293 180.759 275.809C182.665 282.298 191.974 283.908 197.682 280.288C203.389 276.667 206.171 269.892 208.163 263.422C210.154 256.952 211.822 250.082 216.329 245.042C219.13 241.916 222.903 239.639 225.066 236.047C228.087 231.016 227.334 224.432 230.212 219.315C233.985 212.512 242.627 210.511 249.231 206.318Z" fill="#35B6FA"/>
<g opacity="0.6">
<path opacity="0.6" d="M15.7836 135.512C15.7265 135.789 15.6598 136.036 15.6217 136.322C15.4597 137.189 15.3358 138.085 15.1929 138.981C15.3358 138.085 15.4597 137.189 15.6217 136.322C15.6788 136.036 15.7836 135.789 15.7836 135.512Z" fill="#263238"/>
</g>
<g opacity="0.6">
<path opacity="0.6" d="M14.4973 143.802C14.402 144.517 14.2972 145.251 14.2209 145.965C14.2972 145.251 14.402 144.517 14.4973 143.802Z" fill="#263238"/>
</g>
<path d="M33.4588 155.903L32.5917 155.627C30.0381 154.979 27.0271 154.398 25.9218 152.044C24.626 149.3 26.7889 145.822 25.4454 143.126C24.7403 141.716 23.2825 140.934 22.1486 139.838C21.0147 138.743 20.1857 136.932 21.1957 135.684C21.9866 134.636 23.6541 134.636 24.626 133.702C25.0029 133.324 25.2439 132.832 25.3112 132.303C25.3784 131.774 25.2681 131.237 24.9976 130.777C22.7965 127.242 18.8994 133.235 17.2128 134.541C16.7814 134.885 16.3296 135.203 15.8598 135.493C15.8026 135.77 15.7359 136.018 15.6978 136.303C15.5358 137.17 15.412 138.066 15.269 138.962C15.1261 139.857 14.9641 140.725 14.8307 141.611C14.7259 142.335 14.6497 143.059 14.5544 143.783C14.4591 144.507 14.3543 145.232 14.2781 145.946C15.7834 146.75 17.2012 147.708 18.5087 148.805C21.1386 150.882 24.0257 153.569 23.7303 156.885C23.5974 157.417 23.6239 157.977 23.8065 158.495C24.1157 158.932 24.567 159.249 25.0833 159.391C27.4589 160.334 29.9188 161.048 32.4298 161.525" fill="#35B6FA"/>
<path d="M32.3725 161.582C31.9914 164.555 31.7532 167.69 31.2767 170.634C30.5907 174.894 28.5802 178.915 28.4182 183.212C28.2276 189.291 31.6769 194.798 34.6022 200.134C45.7219 220.525 50.1145 243.698 55.0407 266.49C56.3651 267.901 57.7182 269.244 59.0998 270.559C60.186 271.62 61.2881 272.655 62.4061 273.665C63.5305 274.685 64.6644 275.685 65.8269 276.667C66.6273 277.353 67.4372 278.02 68.2757 278.687C68.1994 278.411 68.1137 278.163 68.0279 277.886C65.8173 270.264 67.0751 259.992 74.6121 257.477C76.0414 256.991 77.6135 256.838 78.8618 255.971C82.3873 253.475 80.7198 247.033 84.2549 244.537C86.2463 243.155 88.9619 243.67 91.2678 243.003C95.4317 241.774 97.4136 236.952 97.7376 232.607C98.0616 228.262 97.2421 223.841 98.3474 219.63C100.053 213.274 106.046 207.443 103.998 201.182C101.692 194.198 92.0777 193.884 85.8938 189.996C77.1943 184.565 75.9842 172.616 71.0961 163.583C66.7035 155.513 55.155 145.66 45.1692 146.432C37.9371 147.004 34.9261 150.834 33.4588 155.875" fill="#35B6FA"/>
<path d="M30.2666 99.9999C33.3633 98.0371 38.1657 98.4468 39.8713 101.696C41.0814 104.021 40.3191 106.841 39.5473 109.319C38.5055 112.692 37.4606 116.068 36.4124 119.447C36.0021 120.436 35.8927 121.523 36.098 122.573C36.8126 124.917 40.4716 125.022 42.1295 123.259C43.7875 121.496 44.0352 118.79 44.0352 116.351C44.0352 113.911 43.8827 111.301 45.1405 109.195C48.2753 103.973 56.4508 106.012 61.7867 103.087C65.0931 101.277 66.9702 97.7131 69.2189 94.6735C71.4676 91.6339 74.9359 88.7754 78.633 89.4805C79.8812 89.7092 81.0532 90.3476 82.3205 90.4905C86.027 90.9003 88.9904 85.8216 86.7226 82.8678C86.18 82.2941 85.7126 81.6537 85.3315 80.9621C85.1725 80.2732 85.2541 79.5506 85.5626 78.9144C85.8711 78.2783 86.3881 77.7668 87.0275 77.4652C88.3209 76.9074 89.7294 76.6689 91.1343 76.7696C94.3644 76.7124 97.585 76.6838 100.806 76.6457C104.369 76.6457 109.086 75.4547 109.105 71.8815C109.105 68.8038 105.227 66.86 105.055 63.7823C105.108 63.0318 105.079 62.2779 104.97 61.5336C104.293 59.4755 101.311 59.828 99.3097 60.5808C99.1719 59.8815 98.874 59.2238 98.4393 58.659C98.0046 58.0943 97.4449 57.638 96.8042 57.326C96.1635 57.014 95.4592 56.8546 94.7466 56.8606C94.034 56.8665 93.3324 57.0375 92.697 57.3601C90.6102 58.6274 89.9813 61.3049 88.9904 63.525C86.6369 68.9086 81.5677 72.5104 76.7463 75.8453C75.1265 76.9506 73.3161 78.1131 71.3628 77.932C69.4094 77.751 67.6753 75.3689 68.8091 73.7967C69.5905 72.7105 71.3723 72.2817 71.3914 70.9382C71.3914 69.2707 68.5328 68.9753 68.1993 67.3269C69.9907 62.8676 75.5648 61.7146 79.986 59.828C85.4056 57.5196 89.8642 53.4143 92.6112 48.2033C92.8848 47.8185 93.0738 47.3801 93.1657 46.9169C93.2577 46.4538 93.2506 45.9764 93.1448 45.5163C92.7065 44.2585 91.1724 43.8488 89.8384 43.6106C86.7131 43.1056 82.7493 42.9627 81.1866 45.7164C80.3576 47.1933 80.5387 49.0323 79.9288 50.614C78.128 55.3115 71.3532 54.8923 66.913 57.1982C65.1598 58.0843 63.7019 59.4755 61.8248 60.0567C59.7952 60.6951 57.5846 60.3044 55.4598 60.1615C55.0882 60.1615 54.707 60.1615 54.3259 60.1615C52.7823 61.7623 51.2768 63.4107 49.819 65.0877C48.3611 66.7647 46.9604 68.4798 45.5502 70.2235C38.9682 78.4837 33.2947 87.4284 28.6277 96.9032C26.9698 100.229 25.4547 103.63 24.0541 107.108C22.6534 110.586 21.3861 114.131 20.2427 117.742C22.1484 114.969 23.3108 111.367 24.2541 108.833C25.5119 105.488 27.2175 101.963 30.2666 99.9999Z" fill="#35B6FA"/>
<g opacity="0.6">
<path opacity="0.6" d="M310.146 182.278C310.441 180.153 310.689 178.038 310.87 175.922C310.689 178.038 310.441 180.153 310.146 182.278C310.098 182.964 310.003 183.641 309.898 184.317C309.431 187.585 308.85 190.796 308.192 193.988C308.85 190.796 309.431 187.585 309.898 184.317C310.003 183.641 310.098 182.964 310.146 182.278Z" fill="#263238"/>
</g>
<g opacity="0.6">
<path opacity="0.6" d="M308.088 131.434C308.52 133.41 308.907 135.385 309.25 137.361C308.907 135.379 308.52 133.404 308.088 131.434Z" fill="#263238"/>
</g>
<path d="M310.146 182.278C310.441 180.153 310.689 178.038 310.87 175.923C311.051 173.807 311.203 171.701 311.289 169.596C311.375 167.89 311.422 166.204 311.432 164.508C311.441 162.811 311.432 160.944 311.432 159.172C311.314 153.878 310.907 148.594 310.212 143.345C309.945 141.344 309.641 139.343 309.259 137.361C308.878 135.379 308.526 133.407 308.097 131.434C307.551 129.929 306.947 128.436 306.287 126.956C299.969 112.787 289.536 100.877 282.313 87.1461C279.959 82.6868 278.149 79.0088 273.051 77.4652C265.524 75.1593 260.988 78.9802 256.577 70.881C255.386 68.7085 253.08 66.517 250.745 67.365C251.079 69.0135 251.431 70.6619 251.765 72.3294C251.845 72.6773 251.845 73.0391 251.765 73.387C251.488 74.4732 249.811 74.54 248.963 73.7967C248.248 72.9127 247.693 71.9096 247.325 70.8334C246.803 69.9122 246.095 69.1098 245.247 68.4772C244.398 67.8446 243.427 67.3957 242.395 67.159C241.364 66.9224 240.294 66.9032 239.254 67.1027C238.215 67.3022 237.228 67.7161 236.357 68.3179C236.394 67.5671 236.233 66.8198 235.891 66.1508C235.548 65.4819 235.035 64.9148 234.404 64.5065C234.19 65.1945 233.833 65.8296 233.356 66.3701C232.88 66.9106 232.295 67.3443 231.639 67.643C230.983 67.9416 230.272 68.0984 229.551 68.103C228.831 68.1077 228.117 67.9601 227.458 67.6699C227.22 66.1835 229.811 66.2979 230.869 65.2116C231.927 64.1254 231.098 62.4484 230.192 61.3431C227.728 58.4918 224.356 56.5771 220.645 55.9214C218.291 55.5402 215.681 55.6165 213.804 54.1014C212.717 53.2248 212.041 51.9385 210.945 51.0809C208.563 49.2419 205.123 50.1281 202.303 51.1953C198.434 52.6626 194.385 54.6255 192.565 58.3416C190.745 62.0577 192.784 67.6985 196.919 67.7938C197.967 67.7938 199.111 67.4698 200.073 67.8986C201.464 68.4989 201.874 70.2807 201.779 71.7862C201.683 73.2917 201.283 74.8449 201.826 76.2551C202.369 77.6653 204.361 78.6277 205.361 77.5033C207.543 75.9597 207.743 72.8725 207.629 70.2045C207.515 67.5365 207.429 64.5446 209.278 62.6485C211.126 60.7523 215.49 62.0672 214.804 64.6399C214.394 66.1549 212.479 67.022 212.327 68.5942C212.174 70.1664 213.985 71.3098 215.576 71.4527C217.167 71.5957 218.873 71.2908 220.34 71.9101C221.807 72.5295 222.789 74.721 221.502 75.7215C219.244 77.6272 214.747 73.1488 213.346 75.7215C212.965 76.3789 213.127 77.2174 212.955 77.9511C212.431 80.2189 209.439 80.6382 207.115 80.5905C204.79 80.5429 202.35 80.3999 200.387 79.1136C198.425 77.8273 197.424 74.902 198.892 73.1107C197.853 72.1007 195.947 72.6819 195.128 73.9015C194.441 75.1931 194.14 76.6551 194.261 78.1131C191.907 77.227 189.439 78.9612 187.772 80.8001C186.104 82.6391 184.389 84.8402 181.931 85.2213C179.473 85.6025 176.319 84.1446 174.765 86.117C172.745 88.6897 176.909 92.9108 174.87 95.4549C173.708 96.8841 171.478 96.5125 169.63 96.7507C164.742 97.3987 162.112 104.03 164.78 108.185C167.448 112.339 173.879 113.035 177.776 110.024C180.483 107.956 181.931 104.707 184.056 102.058C186.181 99.4092 189.773 97.2939 192.86 98.685C194.037 99.3326 195.07 100.211 195.9 101.267C197.272 102.801 198.653 104.335 200.025 105.898C200.902 106.851 201.855 108.09 201.569 109.385C201.321 110.424 200.387 111.12 199.892 112.053C198.501 114.74 202.207 118.009 204.999 116.818C207.791 115.627 208.639 111.739 207.238 109.052C205.333 105.345 200.054 102.868 200.788 98.7327C203.923 96.827 207.991 99.8856 209.154 103.373C210.316 106.86 209.821 110.672 210.716 114.207C211.612 117.742 215.033 121.296 218.491 120.124C218.072 117.113 217.663 114.121 217.243 111.12C219.521 109.881 221.226 114.702 223.789 114.312C225.352 114.064 225.847 111.939 225.409 110.395C224.971 108.852 223.989 107.47 223.942 105.869C223.885 102.954 227.429 100.867 230.231 101.744C233.032 102.62 234.699 105.66 234.823 108.566C234.763 109.722 234.853 110.882 235.09 112.015C235.843 114.407 238.52 115.493 240.674 116.78C242.827 118.066 244.904 120.705 243.608 122.859C243.027 123.812 241.836 124.602 242.055 125.717C242.274 126.832 243.57 127.27 243.437 128.252C243.313 128.9 242.57 129.205 241.931 129.414C240.293 129.824 238.587 129.786 236.986 130.3C235.385 130.815 233.823 132.035 233.708 133.683C233.556 136.046 236.167 137.571 237.196 139.695C238.225 141.82 237.653 144.155 238.149 146.365C238.616 148.414 239.94 150.177 240.94 151.997C244.047 157.838 243.98 164.765 244.962 171.292C245.4 174.246 246.486 177.619 249.297 178.571C250.892 178.933 252.555 178.854 254.109 178.343C258.52 177.285 263.123 176.142 266.496 173.178C269.869 170.215 271.717 164.793 269.183 161.02C268.905 160.504 268.447 160.107 267.896 159.905C267.098 159.843 266.298 159.997 265.581 160.353C263.313 161.03 260.817 159.839 259.273 158.009C257.73 156.18 256.986 153.893 256.234 151.635C255.424 149.157 254.623 146.661 253.785 144.155C255.338 143.202 257.463 143.993 258.721 145.346C259.978 146.699 260.579 148.471 261.522 150.043C264.38 154.893 269.821 157.666 275.262 159.086C276.672 159.368 278.031 159.863 279.292 160.553C283.151 163.04 283.456 169.31 287.639 171.254C288.802 171.797 290.164 171.921 291.232 172.626C292.842 173.693 293.423 175.78 293.671 177.704C294.128 181.278 293.938 184.936 294.91 188.424C295.882 191.911 298.349 195.284 301.894 195.847C303.012 195.979 304.146 195.89 305.23 195.584C306.314 195.278 307.327 194.762 308.211 194.065C308.869 190.873 309.45 187.662 309.917 184.393C310.003 183.641 310.098 182.964 310.146 182.278Z" fill="#35B6FA"/>
<path d="M241.884 235.008C239.626 235.123 239.025 236.352 237.568 237.81C235.71 239.715 233.175 241.497 231.45 243.384C228.535 246.585 229.897 252.436 226.315 254.961C225.525 255.381 224.759 255.842 224.018 256.343C223.329 257.044 222.943 257.989 222.943 258.972C222.943 259.956 223.329 260.9 224.018 261.602C224.749 262.266 225.656 262.704 226.63 262.863C227.604 263.022 228.603 262.895 229.507 262.498C231.306 261.662 232.739 260.198 233.537 258.382C234.147 257.105 234.604 255.628 235.795 254.856C237.825 253.532 240.464 255.113 242.894 255.123C253.232 255.209 251.774 234.503 241.884 235.008Z" fill="#35B6FA"/>
<g opacity="0.3">
<path opacity="0.3" d="M249.231 206.318C255.786 202.116 259.788 191.073 252.928 187.385C250.336 185.994 247.068 186.347 244.504 184.898C241.15 182.993 240.074 178.791 239.311 175.027C237.31 165.143 235.306 155.262 233.299 145.384C232.089 139.429 229.964 132.425 224.133 130.729C220.826 129.776 217.329 130.901 213.89 131.034C202.046 131.463 186.686 100.743 175.195 118.256C174.709 112.978 166.133 113.692 162.808 117.847C159.482 122.001 158.043 127.928 153.413 130.462C149.858 132.368 145.142 131.863 142.083 134.521C139.93 136.427 139.225 139.352 138.539 142.144C137.319 147.448 136.096 152.756 134.87 158.066C133.917 162.344 132.964 166.928 134.518 171.025C136.071 175.122 141.416 178.019 145.047 175.551C146.714 174.417 147.638 172.473 149.068 171.053C150.248 169.922 151.732 169.157 153.338 168.851C154.945 168.545 156.605 168.711 158.12 169.329C160.635 170.396 162.455 172.635 164.008 174.893C176.69 193.226 178.739 217.028 176.205 239.172C175.747 243.231 175.147 247.376 176.09 251.35C177.195 256 180.349 260.087 180.759 264.851C181.074 268.51 179.73 272.293 180.759 275.809C182.665 282.298 191.974 283.908 197.682 280.288C203.389 276.667 206.171 269.892 208.163 263.422C210.154 256.952 211.822 250.082 216.329 245.042C219.13 241.916 222.903 239.639 225.066 236.047C228.087 231.016 227.334 224.432 230.212 219.315C233.985 212.512 242.627 210.511 249.231 206.318Z" fill="black"/>
</g>
<path opacity="0.3" d="M55.0602 266.49C56.3846 267.901 57.7377 269.244 59.1193 270.559C60.2055 271.62 61.3077 272.655 62.4257 273.665C63.55 274.685 64.6839 275.685 65.8464 276.667C66.6468 277.353 67.4567 278.02 68.2952 278.687C68.219 278.411 68.1332 278.163 68.0475 277.887C65.8369 270.264 67.0946 259.992 74.6316 257.477C76.0609 256.991 77.6331 256.838 78.8813 255.971C82.4068 253.475 80.7393 247.033 84.2744 244.537C86.2658 243.155 88.9814 243.67 91.2873 243.003C95.4512 241.774 97.4332 236.952 97.7571 232.607C98.0811 228.262 97.2616 223.841 98.3669 219.63C100.073 213.274 106.066 207.443 104.017 201.183C101.711 194.198 92.0972 193.884 85.9133 189.996C77.2138 184.565 76.0037 172.616 71.1156 163.583C66.723 155.513 55.1745 145.66 45.1887 146.432C37.9566 147.004 34.9456 150.834 33.4783 155.875L32.6112 155.598C30.0575 154.951 27.0466 154.369 25.9413 152.016C24.6454 149.272 26.8083 145.794 25.4648 143.097C24.7597 141.687 23.3019 140.906 22.168 139.81C21.0341 138.714 20.2051 136.904 21.2151 135.655C22.006 134.607 23.6735 134.607 24.6454 133.674C25.0224 133.296 25.2634 132.804 25.3306 132.274C25.3979 131.745 25.2876 131.208 25.017 130.748C22.8159 127.213 18.9188 133.207 17.2323 134.512C16.8008 134.857 16.349 135.175 15.8792 135.465C15.822 135.741 15.7554 135.989 15.7172 136.275C15.5553 137.142 15.4314 138.038 15.2885 138.933C15.1455 139.829 14.9835 140.696 14.8501 141.582C14.7453 142.306 14.6691 143.03 14.5738 143.755C14.4785 144.479 14.3737 145.203 14.2975 145.918C14.2975 146.27 14.2022 146.594 14.1736 146.947C12.3947 163.057 13.2605 179.349 16.7368 195.18C18.2919 202.208 20.3717 209.11 22.9589 215.828C24.0165 218.686 25.2266 221.592 26.513 224.403C28.1042 227.9 29.8003 231.34 31.6774 234.685C33.402 237.896 35.2791 241.05 37.2992 244.108C40.0466 248.343 43.0107 252.433 46.1797 256.362C48.9874 259.868 51.9571 263.238 55.0888 266.471" fill="black"/>
<g opacity="0.3">
<path opacity="0.3" d="M30.2668 99.9998C33.3636 98.0369 38.1659 98.4467 39.8715 101.696C41.0816 104.021 40.3193 106.841 39.5475 109.319C38.5058 112.692 37.4608 116.068 36.4127 119.447C36.0023 120.435 35.8929 121.523 36.0982 122.573C36.8129 124.917 40.4718 125.021 42.1298 123.259C43.7877 121.496 44.0354 118.79 44.0354 116.351C44.0354 113.911 43.883 111.301 45.1407 109.195C48.2756 103.973 56.451 106.012 61.7869 103.087C65.0933 101.277 66.9704 97.713 69.2191 94.6734C71.4678 91.6338 74.9362 88.7753 78.6332 89.4804C79.8814 89.7091 81.0534 90.3475 82.3207 90.4904C86.0273 90.9001 88.9906 85.8215 86.7229 82.8677C86.1803 82.2939 85.7128 81.6536 85.3317 80.962C85.1727 80.273 85.2543 79.5504 85.5628 78.9143C85.8714 78.2781 86.3883 77.7667 87.0278 77.465C88.3211 76.9073 89.7296 76.6687 91.1345 76.7694C94.3647 76.7123 97.5853 76.6837 100.806 76.6456C104.37 76.6456 109.086 75.4545 109.105 71.8814C109.105 68.8037 105.227 66.8599 105.056 63.7822C105.108 63.0317 105.08 62.2778 104.97 61.5335C104.293 59.4753 101.311 59.8279 99.3099 60.5806C99.1722 59.8814 98.8743 59.2236 98.4395 58.6589C98.0048 58.0942 97.4452 57.6379 96.8045 57.3259C96.1637 57.0138 95.4594 56.8545 94.7468 56.8604C94.0342 56.8664 93.3326 57.0374 92.6972 57.36C90.6105 58.6273 89.9816 61.3048 88.9906 63.5249C86.6371 68.9085 81.568 72.5102 76.7466 75.8452C75.1267 76.9505 73.3163 78.113 71.363 77.9319C69.4097 77.7509 67.6755 75.3688 68.8094 73.7966C69.5907 72.7103 71.3725 72.2816 71.3916 70.938C71.3916 69.2706 68.5331 68.9752 68.1996 67.3268C69.9909 62.8675 75.5651 61.7145 79.9863 59.8279C85.4058 57.5195 89.8645 53.4142 92.6114 48.2032C92.885 47.8183 93.074 47.3799 93.166 46.9168C93.2579 46.4537 93.2508 45.9763 93.145 45.5162C92.7067 44.2584 91.1726 43.8487 89.8387 43.6105C86.7133 43.1055 82.7495 42.9625 81.1868 45.7163C80.3579 47.1932 80.5389 49.0322 79.9291 50.6139C78.1282 55.3114 71.3535 54.8921 66.9132 57.198C65.16 58.0842 63.7022 59.4753 61.825 60.0566C59.7955 60.695 57.5849 60.3043 55.46 60.1614C55.0884 60.1614 54.7073 60.1614 54.3262 60.1614C52.7825 61.7622 51.2771 63.4106 49.8192 65.0876C48.3614 66.7646 46.9607 68.4797 45.5505 70.2234C38.9685 78.4835 33.295 87.4283 28.628 96.903C26.97 100.228 25.455 103.63 24.0543 107.108C22.6536 110.586 21.3863 114.13 20.2429 117.742C22.1486 114.969 23.3111 111.367 24.2544 108.833C25.5121 105.488 27.2177 101.963 30.2668 99.9998Z" fill="black"/>
</g>
<g opacity="0.3">
<path opacity="0.3" d="M310.146 182.278C310.441 180.153 310.689 178.038 310.87 175.922C311.051 173.807 311.203 171.701 311.289 169.596C311.375 167.89 311.423 166.203 311.432 164.507C311.442 162.811 311.432 160.944 311.432 159.171C311.314 153.878 310.907 148.594 310.213 143.345C309.946 141.344 309.641 139.343 309.26 137.361C308.879 135.379 308.526 133.407 308.097 131.434C307.551 129.929 306.947 128.436 306.287 126.956C299.969 112.787 289.536 100.876 282.313 87.146C279.96 82.6867 278.149 79.0087 273.052 77.4651C265.524 75.1592 260.989 78.9801 256.577 70.8809C255.386 68.7085 253.08 66.5169 250.746 67.365C251.079 69.0134 251.432 70.6618 251.765 72.3293C251.846 72.6772 251.846 73.039 251.765 73.3869C251.489 74.4732 249.812 74.5399 248.964 73.7966C248.248 72.9126 247.693 71.9095 247.325 70.8333C246.803 69.9122 246.096 69.1097 245.247 68.4771C244.398 67.8445 243.427 67.3956 242.395 67.1589C241.364 66.9223 240.294 66.9031 239.255 67.1026C238.215 67.3022 237.228 67.716 236.358 68.3178C236.395 67.567 236.234 66.8197 235.891 66.1508C235.548 65.4818 235.035 64.9148 234.404 64.5064C234.19 65.1944 233.833 65.8295 233.357 66.37C232.88 66.9105 232.295 67.3443 231.639 67.6429C230.983 67.9415 230.272 68.0983 229.551 68.103C228.831 68.1076 228.118 67.96 227.458 67.6699C227.22 66.1834 229.812 66.2978 230.869 65.2115C231.927 64.1253 231.098 62.4483 230.193 61.343C227.728 58.4918 224.356 56.577 220.645 55.9213C218.292 55.5402 215.681 55.6164 213.804 54.1014C212.718 53.2247 212.041 51.9384 210.945 51.0808C208.563 49.2419 209.478 53.139 206.657 54.2157C202.789 55.6831 200.693 56.1214 198.863 59.8375C198.498 60.5822 198.179 61.3492 197.91 62.1338C197.537 63.146 197.522 64.2559 197.869 65.2776C198.216 66.2992 198.903 67.1707 199.816 67.7461L200.102 67.8985C201.493 68.4988 201.903 70.2807 201.807 71.7861C201.712 73.2916 201.312 74.8448 201.855 76.255C202.398 77.6652 204.39 78.6276 205.39 77.5032C207.572 75.9596 207.772 72.8724 207.658 70.2044C207.544 67.5365 207.458 64.5445 209.306 62.6484C211.155 60.7522 215.519 62.0671 214.833 64.6398C214.423 66.1548 212.508 67.0219 212.355 68.5941C212.203 70.1663 214.013 71.3097 215.605 71.4526C217.196 71.5956 218.901 71.2907 220.369 71.91C221.836 72.5294 222.818 74.7209 221.531 75.7214C219.273 77.6271 214.776 73.1487 213.375 75.7214C212.994 76.3789 213.156 77.2174 212.984 77.951C212.46 80.2188 209.468 80.6381 207.143 80.5904C204.818 80.5428 202.379 80.3999 200.416 79.1135C198.453 77.8272 197.453 74.9019 198.92 73.1106C197.882 72.1006 195.976 72.6818 195.157 73.9015C194.469 75.193 194.168 76.6551 194.289 78.113C191.936 77.2269 189.468 78.9611 187.801 80.8001C186.133 82.639 184.418 84.8401 181.96 85.2213C179.501 85.6024 176.347 84.1445 174.794 86.1169C172.774 88.6896 176.938 92.9107 174.899 95.4548C173.737 96.8841 171.507 96.5124 169.658 96.7507C164.77 97.3986 162.141 104.03 164.808 108.185C167.476 112.339 173.908 113.035 177.805 110.024C180.511 107.956 181.96 104.707 184.085 102.058C186.209 99.4091 189.802 97.2938 192.889 98.6849C194.065 99.3325 195.099 100.211 195.928 101.267C197.3 102.801 198.682 104.335 200.054 105.898C200.931 106.851 201.884 108.09 201.598 109.385C201.35 110.424 200.416 111.12 199.921 112.053C198.53 114.74 202.236 118.009 205.028 116.818C207.82 115.627 208.668 111.739 207.267 109.052C205.362 105.345 200.083 102.868 200.816 98.7326C203.951 96.8269 208.02 99.8855 209.182 103.373C210.345 106.86 209.849 110.672 210.745 114.207C211.641 117.742 215.061 121.296 218.52 120.124C218.101 117.113 217.691 114.121 217.272 111.12C219.549 109.881 221.255 114.702 223.818 114.312C225.381 114.064 225.876 111.939 225.438 110.395C225 108.852 224.018 107.47 223.971 105.869C223.913 102.954 227.458 100.867 230.259 101.744C233.061 102.62 234.728 105.66 234.852 108.566C234.792 109.722 234.882 110.882 235.119 112.015C235.872 114.407 238.549 115.493 240.703 116.779C242.856 118.066 244.933 120.705 243.637 122.859C243.056 123.811 241.865 124.602 242.084 125.717C242.303 126.832 243.599 127.27 243.466 128.252C243.342 128.9 242.599 129.205 241.96 129.414C240.321 129.824 238.616 129.786 237.015 130.3C235.414 130.815 233.852 132.034 233.737 133.683C233.585 136.046 236.196 137.57 237.225 139.695C238.254 141.82 237.682 144.155 238.177 146.365C238.644 148.414 239.969 150.177 240.969 151.997C244.076 157.837 244.009 164.765 244.99 171.292C245.429 174.245 246.515 177.619 249.326 178.571C250.921 178.933 252.584 178.854 254.138 178.343C258.549 177.285 263.152 176.142 266.525 173.178C269.898 170.215 271.746 164.793 269.212 161.02C268.933 160.504 268.476 160.107 267.925 159.905C267.127 159.843 266.327 159.997 265.61 160.353C263.342 161.03 260.846 159.838 259.302 158.009C257.758 156.18 257.015 153.893 256.262 151.634C255.453 149.157 254.652 146.661 253.814 144.155C255.367 143.202 257.492 143.993 258.749 145.346C260.007 146.699 260.607 148.471 261.551 150.043C264.409 154.893 269.85 157.666 275.291 159.086C276.701 159.368 278.06 159.863 279.321 160.553C283.18 163.04 283.485 169.31 287.668 171.254C288.831 171.797 290.193 171.921 291.26 172.626C292.871 173.693 293.452 175.78 293.7 177.704C294.157 181.277 293.967 184.936 294.938 188.424C295.91 191.911 298.378 195.284 301.923 195.846C303.041 195.979 304.175 195.89 305.259 195.584C306.343 195.278 307.356 194.762 308.24 194.065C308.898 190.873 309.479 187.662 309.946 184.393C310.003 183.641 310.098 182.964 310.146 182.278Z" fill="black"/>
</g>
<g opacity="0.3">
<path opacity="0.3" d="M241.884 235.008C239.626 235.123 239.025 236.352 237.568 237.81C235.71 239.715 233.175 241.497 231.45 243.384C228.535 246.585 229.897 252.436 226.315 254.961C225.525 255.381 224.759 255.842 224.018 256.343C223.329 257.044 222.943 257.989 222.943 258.972C222.943 259.956 223.329 260.9 224.018 261.602C224.749 262.266 225.656 262.704 226.63 262.863C227.604 263.022 228.603 262.895 229.507 262.498C231.306 261.662 232.739 260.198 233.537 258.382C234.147 257.105 234.604 255.628 235.795 254.856C237.825 253.532 240.464 255.113 242.894 255.123C253.232 255.209 251.774 234.503 241.884 235.008Z" fill="black"/>
</g>
<path d="M35.2025 20.0752C33.2335 19.468 31.1467 19.3467 29.1207 19.7218C27.0946 20.0968 25.1895 20.9569 23.5683 22.2286C23.5683 22.2286 15.7263 28.222 18.804 37.0168C19.9667 40.2426 22.2445 42.9463 25.2262 44.6395C26.35 45.2926 27.5378 45.829 28.7708 46.2403C33.0395 47.6219 45.4456 50.7854 45.4456 50.7854L46.8081 49.7373C46.7033 45.9259 44.9024 34.4918 44.264 30.8328C43.416 26.3068 40.1763 21.5521 35.2025 20.0752ZM38.061 38.4651C36.7367 39.4795 35.1412 40.0783 33.4765 40.1857C31.8117 40.2932 30.1525 39.9044 28.7088 39.0687C27.265 38.233 26.1016 36.9878 25.3656 35.4907C24.6297 33.9936 24.3543 32.3119 24.5744 30.6583C24.7944 29.0047 25.5 27.4534 26.6018 26.2009C27.7036 24.9484 29.1522 24.0507 30.7642 23.6216C32.3763 23.1925 34.0794 23.2512 35.6581 23.7902C37.2368 24.3293 38.6202 25.3244 39.6332 26.6498C40.3064 27.5286 40.7998 28.5315 41.0852 29.6011C41.3706 30.6707 41.4423 31.786 41.2963 32.8834C41.1502 33.9807 40.7893 35.0385 40.2342 35.9963C39.6791 36.954 38.9406 37.793 38.061 38.4651Z" fill="#35B6FA"/>
<path opacity="0.4" d="M35.2025 20.0752C33.2335 19.468 31.1467 19.3467 29.1207 19.7218C27.0946 20.0968 25.1895 20.9569 23.5683 22.2286C23.5683 22.2286 15.7263 28.222 18.804 37.0168C19.9667 40.2426 22.2445 42.9463 25.2262 44.6395C26.35 45.2926 27.5378 45.829 28.7708 46.2403C33.0395 47.6219 45.4456 50.7854 45.4456 50.7854L46.8081 49.7373C46.7033 45.9259 44.9024 34.4918 44.264 30.8328C43.416 26.3068 40.1763 21.5521 35.2025 20.0752ZM38.061 38.4651C36.7367 39.4795 35.1412 40.0783 33.4765 40.1857C31.8117 40.2932 30.1525 39.9044 28.7088 39.0687C27.265 38.233 26.1016 36.9878 25.3656 35.4907C24.6297 33.9936 24.3543 32.3119 24.5744 30.6583C24.7944 29.0047 25.5 27.4534 26.6018 26.2009C27.7036 24.9484 29.1522 24.0507 30.7642 23.6216C32.3763 23.1925 34.0794 23.2512 35.6581 23.7902C37.2368 24.3293 38.6202 25.3244 39.6332 26.6498C40.3064 27.5286 40.7998 28.5315 41.0852 29.6011C41.3706 30.6707 41.4423 31.786 41.2963 32.8834C41.1502 33.9807 40.7893 35.0385 40.2342 35.9963C39.6791 36.954 38.9406 37.793 38.061 38.4651Z" fill="black"/>
<path d="M36.6222 19.0748C34.6547 18.4676 32.5694 18.3464 30.5449 18.7214C28.5203 19.0965 26.6168 19.9566 24.9975 21.2283C24.9975 21.2283 17.1555 27.2217 20.2332 36.0164C21.3959 39.2422 23.6737 41.9459 26.6554 43.6392C27.7796 44.298 28.9711 44.8346 30.2095 45.2399C34.4687 46.6216 46.8748 49.785 46.8748 49.785C46.8748 49.785 46.4936 34.206 45.6932 29.8324C44.8261 25.3064 41.596 20.5613 36.6222 19.0748ZM38.1086 38.5129C37.2319 39.1979 36.2275 39.7012 35.1539 39.9933C34.0804 40.2854 32.9594 40.3605 31.8565 40.2141C30.7536 40.0677 29.691 39.7028 28.7308 39.1407C27.7707 38.5786 26.9323 37.8307 26.2647 36.9407C25.2504 35.6163 24.6516 34.0208 24.5441 32.3561C24.4367 30.6914 24.8254 29.0322 25.6611 27.5884C26.4969 26.1447 27.742 24.9812 29.2391 24.2453C30.7362 23.5093 32.4179 23.234 34.0716 23.454C35.7252 23.674 37.2764 24.3796 38.5289 25.4814C39.7815 26.5832 40.6791 28.0318 41.1082 29.6439C41.5373 31.2559 41.4786 32.9591 40.9396 34.5378C40.4006 36.1165 39.4054 37.4998 38.08 38.5129H38.1086Z" fill="#35B6FA"/>
<path d="M27.8178 25.0682C26.4432 26.1343 25.431 27.5986 24.9194 29.2613C24.4078 30.9239 24.4217 32.704 24.9593 34.3584C24.6025 32.8218 24.7586 31.2106 25.4037 29.7711C26.0488 28.3315 27.1475 27.1428 28.5319 26.3865C29.9163 25.6301 31.5102 25.3479 33.0701 25.5827C34.63 25.8176 36.0701 26.5568 37.1704 27.6872C38.2707 28.8177 38.9706 30.2772 39.1632 31.8429C39.3558 33.4086 39.0305 34.9943 38.237 36.3577C37.4435 37.7211 36.2255 38.7873 34.769 39.3932C33.3126 39.9992 31.6977 40.1116 30.1713 39.7134C31.5485 40.2017 33.0289 40.3238 34.4675 40.0677C35.906 39.8116 37.2533 39.1861 38.3773 38.2525C39.5014 37.3189 40.3635 36.1093 40.8793 34.7422C41.3951 33.3751 41.5468 31.8974 41.3195 30.454C41.0922 29.0106 40.4938 27.6511 39.5829 26.5086C38.672 25.3661 37.4799 24.4799 36.1234 23.9369C34.7668 23.3938 33.2925 23.2126 31.8449 23.4109C30.3972 23.6093 29.0259 24.1803 27.8655 25.0682H27.8178Z" fill="#35B6FA"/>
<path opacity="0.4" d="M27.8178 25.0682C26.4432 26.1343 25.431 27.5986 24.9194 29.2613C24.4078 30.9239 24.4217 32.704 24.9593 34.3584C24.6025 32.8218 24.7586 31.2106 25.4037 29.7711C26.0488 28.3315 27.1475 27.1428 28.5319 26.3865C29.9163 25.6301 31.5102 25.3479 33.0701 25.5827C34.63 25.8176 36.0701 26.5568 37.1704 27.6872C38.2707 28.8177 38.9706 30.2772 39.1632 31.8429C39.3558 33.4086 39.0305 34.9943 38.237 36.3577C37.4435 37.7211 36.2255 38.7873 34.769 39.3932C33.3126 39.9992 31.6977 40.1116 30.1713 39.7134C31.5485 40.2017 33.0289 40.3238 34.4675 40.0677C35.906 39.8116 37.2533 39.1861 38.3773 38.2525C39.5014 37.3189 40.3635 36.1093 40.8793 34.7422C41.3951 33.3751 41.5468 31.8974 41.3195 30.454C41.0922 29.0106 40.4938 27.6511 39.5829 26.5086C38.672 25.3661 37.4799 24.4799 36.1234 23.9369C34.7668 23.3938 33.2925 23.2126 31.8449 23.4109C30.3972 23.6093 29.0259 24.1803 27.8655 25.0682H27.8178Z" fill="black"/>
<path d="M353.195 135.694C354.642 134.226 355.712 132.43 356.313 130.458C356.914 128.487 357.027 126.399 356.645 124.374C356.645 124.374 354.939 114.655 345.725 113.302C342.324 112.84 338.871 113.618 335.996 115.493C334.894 116.183 333.869 116.988 332.938 117.894C329.755 121.048 321.227 130.596 321.227 130.596L321.523 132.301C324.934 133.95 335.968 137.666 339.474 138.743C343.895 140.096 349.593 139.419 353.195 135.694ZM335.558 129.748C335.27 128.105 335.476 126.414 336.15 124.889C336.823 123.363 337.933 122.071 339.341 121.177C340.748 120.282 342.389 119.825 344.056 119.863C345.723 119.901 347.342 120.432 348.707 121.39C350.072 122.348 351.123 123.688 351.726 125.243C352.329 126.798 352.458 128.496 352.096 130.124C351.734 131.752 350.897 133.236 349.692 134.388C348.487 135.541 346.967 136.31 345.325 136.599C344.233 136.792 343.115 136.768 342.033 136.528C340.951 136.288 339.927 135.837 339.02 135.2C338.112 134.564 337.339 133.755 336.745 132.819C336.151 131.883 335.748 130.84 335.558 129.748Z" fill="#35B6FA"/>
<path opacity="0.4" d="M353.195 135.694C354.642 134.226 355.712 132.43 356.313 130.458C356.914 128.487 357.027 126.399 356.645 124.374C356.645 124.374 354.939 114.655 345.725 113.302C342.324 112.84 338.871 113.618 335.996 115.493C334.894 116.183 333.869 116.988 332.938 117.894C329.755 121.048 321.227 130.596 321.227 130.596L321.523 132.301C324.934 133.95 335.968 137.666 339.474 138.743C343.895 140.096 349.593 139.419 353.195 135.694ZM335.558 129.748C335.27 128.105 335.476 126.414 336.15 124.889C336.823 123.363 337.933 122.071 339.341 121.177C340.748 120.282 342.389 119.825 344.056 119.863C345.723 119.901 347.342 120.432 348.707 121.39C350.072 122.348 351.123 123.688 351.726 125.243C352.329 126.798 352.458 128.496 352.096 130.124C351.734 131.752 350.897 133.236 349.692 134.388C348.487 135.541 346.967 136.31 345.325 136.599C344.233 136.792 343.115 136.768 342.033 136.528C340.951 136.288 339.927 135.837 339.02 135.2C338.112 134.564 337.339 133.755 336.745 132.819C336.151 131.883 335.748 130.84 335.558 129.748Z" fill="black"/>
<path d="M353.434 137.409C354.882 135.943 355.954 134.149 356.558 132.18C357.162 130.21 357.28 128.124 356.902 126.098C356.902 126.098 355.187 116.37 345.982 115.026C342.58 114.57 339.127 115.344 336.244 117.208C335.146 117.902 334.124 118.71 333.195 119.619C329.984 122.763 321.456 132.292 321.456 132.292C321.456 132.292 335.463 139.133 339.713 140.439C344.124 141.82 349.822 141.144 353.434 137.409ZM335.491 129.786C335.202 128.143 335.406 126.452 336.078 124.925C336.75 123.399 337.859 122.106 339.266 121.21C340.673 120.314 342.314 119.855 343.982 119.892C345.649 119.928 347.268 120.459 348.634 121.416C350 122.372 351.052 123.713 351.656 125.268C352.26 126.822 352.39 128.521 352.029 130.149C351.667 131.778 350.831 133.262 349.626 134.415C348.421 135.568 346.901 136.338 345.258 136.627C344.166 136.827 343.045 136.808 341.961 136.57C340.877 136.333 339.85 135.883 338.941 135.245C338.033 134.608 337.26 133.796 336.667 132.857C336.075 131.918 335.675 130.871 335.491 129.776V129.786Z" fill="#35B6FA"/>
<path d="M352.138 126.832C351.835 125.116 351.008 123.537 349.771 122.31C348.534 121.083 346.948 120.27 345.229 119.981C346.758 120.374 348.116 121.256 349.096 122.493C350.075 123.73 350.623 125.254 350.655 126.832C350.686 128.41 350.2 129.954 349.271 131.23C348.342 132.505 347.02 133.441 345.509 133.895C343.997 134.348 342.379 134.294 340.901 133.741C339.423 133.187 338.167 132.165 337.325 130.831C336.483 129.496 336.101 127.922 336.238 126.35C336.375 124.778 337.023 123.294 338.083 122.125C337.014 123.121 336.222 124.379 335.785 125.773C335.349 127.168 335.282 128.652 335.591 130.081C335.901 131.509 336.577 132.832 337.552 133.921C338.527 135.009 339.769 135.826 341.155 136.29C342.54 136.754 344.023 136.85 345.457 136.568C346.891 136.287 348.228 135.637 349.335 134.684C350.443 133.73 351.283 132.505 351.775 131.128C352.266 129.752 352.391 128.271 352.138 126.832Z" fill="#35B6FA"/>
<path opacity="0.4" d="M352.138 126.832C351.835 125.116 351.008 123.537 349.771 122.31C348.534 121.083 346.948 120.27 345.229 119.981C346.758 120.374 348.116 121.256 349.096 122.493C350.075 123.73 350.623 125.254 350.655 126.832C350.686 128.41 350.2 129.954 349.271 131.23C348.342 132.505 347.02 133.441 345.509 133.895C343.997 134.348 342.379 134.294 340.901 133.741C339.423 133.187 338.167 132.165 337.325 130.831C336.483 129.496 336.101 127.922 336.238 126.35C336.375 124.778 337.023 123.294 338.083 122.125C337.014 123.121 336.222 124.379 335.785 125.773C335.349 127.168 335.282 128.652 335.591 130.081C335.901 131.509 336.577 132.832 337.552 133.921C338.527 135.009 339.769 135.826 341.155 136.29C342.54 136.754 344.023 136.85 345.457 136.568C346.891 136.287 348.228 135.637 349.335 134.684C350.443 133.73 351.283 132.505 351.775 131.128C352.266 129.752 352.391 128.271 352.138 126.832Z" fill="black"/>
<path d="M8.99947 282.841C8.7226 284.885 8.94556 286.965 9.64922 288.903C10.3529 290.842 11.5163 292.58 13.0395 293.97C13.0395 293.97 20.243 300.717 28.4089 296.257C31.4101 294.575 33.7064 291.869 34.8787 288.635C35.3295 287.417 35.6489 286.156 35.8316 284.871C36.489 280.44 37.5657 267.72 37.5657 267.72L36.308 266.538C32.5919 267.272 21.5389 270.921 18.0896 272.169C13.7923 273.761 9.63787 277.724 8.99947 282.841ZM26.6652 277C27.8838 278.14 28.7369 279.615 29.1168 281.24C29.4966 282.864 29.386 284.565 28.799 286.127C28.212 287.688 27.1749 289.041 25.8191 290.013C24.4632 290.985 22.8494 291.533 21.182 291.588C19.5145 291.642 17.8683 291.201 16.4517 290.32C15.035 289.439 13.9116 288.157 13.2235 286.637C12.5354 285.118 12.3136 283.428 12.5862 281.782C12.8587 280.136 13.6134 278.608 14.7546 277.391C16.287 275.765 18.4019 274.814 20.635 274.746C22.8681 274.678 25.0369 275.499 26.6652 277.029V277Z" fill="#263238"/>
<path d="M7.77976 281.641C7.50285 283.683 7.72583 285.761 8.42954 287.698C9.13326 289.635 10.2967 291.372 11.8198 292.76C11.8198 292.76 19.0233 299.506 27.1892 295.057C30.1932 293.377 32.4905 290.671 33.659 287.434C34.1131 286.201 34.4326 284.924 34.6119 283.623C35.2693 279.192 36.346 266.471 36.346 266.471C36.346 266.471 21.0434 269.406 16.8699 270.921C12.5726 272.522 8.41817 276.486 7.77976 281.641ZM26.7032 276.972C27.9218 278.111 28.775 279.587 29.1548 281.211C29.5346 282.836 29.424 284.536 28.837 286.098C28.25 287.66 27.213 289.012 25.8571 289.984C24.5012 290.956 22.8875 291.504 21.22 291.559C19.5526 291.614 17.9064 291.173 16.4897 290.291C15.0731 289.41 13.9496 288.129 13.2615 286.609C12.5734 285.089 12.3517 283.399 12.6242 281.753C12.8968 280.107 13.6514 278.579 14.7927 277.362C15.5455 276.549 16.4522 275.892 17.4605 275.432C18.4688 274.971 19.5585 274.715 20.6664 274.679C21.7743 274.643 22.8784 274.826 23.9147 275.22C24.9509 275.614 25.8988 276.209 26.7032 276.972Z" fill="#455A64"/>
<path d="M15.1453 289.34C16.4168 290.529 18.0254 291.296 19.7503 291.535C21.4751 291.774 23.2316 291.473 24.7786 290.674C23.3208 291.277 21.7055 291.386 20.1797 290.985C18.6539 290.583 17.3015 289.693 16.3292 288.451C15.3569 287.209 14.8181 285.682 14.7953 284.104C14.7725 282.527 15.2668 280.985 16.2028 279.715C17.1387 278.445 18.4648 277.516 19.9783 277.071C21.4919 276.626 23.1096 276.688 24.5843 277.249C26.059 277.81 27.3095 278.838 28.1447 280.176C28.9798 281.515 29.3538 283.09 29.2093 284.661C29.4656 283.222 29.3435 281.742 28.855 280.364C28.3665 278.987 27.5284 277.76 26.4229 276.804C25.3173 275.848 23.9823 275.196 22.5488 274.911C21.1152 274.627 19.6323 274.72 18.2455 275.181C16.8587 275.642 15.6156 276.456 14.6382 277.543C13.6607 278.629 12.9824 279.951 12.6698 281.379C12.3572 282.807 12.421 284.291 12.855 285.687C13.289 287.082 14.0782 288.341 15.1453 289.34Z" fill="#263238"/>
<path d="M300.274 42.1528C300.473 40.7046 300.316 39.2299 299.818 37.8556C299.32 36.4812 298.496 35.2485 297.416 34.2633C297.416 34.2633 292.299 29.4991 286.496 32.6339C284.372 33.8232 282.743 35.7326 281.904 38.0175C281.574 38.8825 281.338 39.78 281.198 40.695C280.732 43.8394 279.96 52.8914 279.96 52.8914L280.855 53.7299C283.495 53.2058 291.337 50.6236 293.795 49.7375C296.873 48.6227 299.827 45.8118 300.274 42.1528ZM287.735 46.3072C286.871 45.4989 286.266 44.4525 285.996 43.3003C285.727 42.1482 285.805 40.9419 286.221 39.8342C286.637 38.7264 287.372 37.7668 288.333 37.0766C289.294 36.3865 290.438 35.9968 291.621 35.9569C292.803 35.9169 293.971 36.2285 294.977 36.8522C295.982 37.4759 296.78 38.3837 297.27 39.4609C297.76 40.5381 297.919 41.7362 297.728 42.904C297.537 44.0717 297.004 45.1566 296.196 46.0214C295.111 47.1797 293.611 47.8602 292.025 47.9138C290.438 47.9674 288.896 47.3896 287.735 46.3072Z" fill="#263238"/>
<path d="M301.141 43.0293C301.339 41.5811 301.183 40.1064 300.685 38.732C300.187 37.3577 299.363 36.1249 298.283 35.1398C298.283 35.1398 293.166 30.3755 287.363 33.5104C285.233 34.7017 283.603 36.6193 282.77 38.913C282.441 39.778 282.205 40.6755 282.065 41.5905C281.598 44.7349 280.827 53.7869 280.827 53.7869C280.827 53.7869 291.699 51.7002 294.662 50.633C297.625 49.5658 300.684 46.6882 301.141 43.0293ZM287.706 46.3452C287.127 45.8114 286.659 45.1675 286.331 44.4511C286.003 43.7347 285.82 42.9601 285.795 42.1725C285.769 41.3849 285.9 40.6001 286.181 39.8638C286.462 39.1275 286.886 38.4545 287.43 37.884C288.239 37.0207 289.286 36.4167 290.439 36.1485C291.591 35.8802 292.797 35.9596 293.905 36.3768C295.012 36.7939 295.971 37.53 296.66 38.4919C297.349 39.4539 297.737 40.5985 297.776 41.7812C297.815 42.9639 297.502 44.1314 296.877 45.1363C296.252 46.1412 295.343 46.9382 294.266 47.4267C293.188 47.9152 291.989 48.0732 290.822 47.8807C289.654 47.6882 288.57 47.1538 287.706 46.3452Z" fill="#455A64"/>
<path d="M295.92 37.5696C295.018 36.7231 293.876 36.1769 292.65 36.0063C291.425 35.8357 290.177 36.0489 289.078 36.6167C290.113 36.1885 291.259 36.1108 292.342 36.3955C293.425 36.6802 294.385 37.3117 295.076 38.1934C295.766 39.0751 296.148 40.1586 296.165 41.2782C296.181 42.3978 295.83 43.492 295.166 44.3936C294.502 45.2952 293.561 45.9545 292.487 46.2708C291.413 46.5871 290.265 46.5431 289.218 46.1453C288.171 45.7476 287.284 45.018 286.691 44.0682C286.098 43.1184 285.832 42.0005 285.934 40.8855C285.752 41.9062 285.839 42.9565 286.186 43.9336C286.532 44.9106 287.127 45.7809 287.911 46.4591C288.695 47.1373 289.642 47.6002 290.659 47.8023C291.675 48.0045 292.727 47.939 293.711 47.6123C294.695 47.2856 295.577 46.7088 296.271 45.9386C296.965 45.1684 297.447 44.2311 297.67 43.2186C297.892 42.2061 297.848 41.1531 297.541 40.1628C297.235 39.1725 296.676 38.2789 295.92 37.5696Z" fill="#263238"/>
<path d="M119.996 227.662H155.337C155.337 227.662 152.212 221.945 143.112 222.803C134.422 223.593 133.984 220.001 129.563 219.563C125.142 219.125 121.473 222.507 119.996 227.662Z" fill="white"/>
<path d="M144.294 196.999H196.595C196.595 196.999 191.974 188.586 178.491 189.805C165.628 190.977 164.98 185.67 158.482 185.041C151.983 184.412 146.476 189.377 144.294 196.999Z" fill="white"/>
<path d="M76.4609 118.819H110.678C110.678 118.819 107.648 113.321 98.8433 114.121C90.4296 114.883 90.0009 111.406 85.7321 110.986C81.4634 110.567 77.8902 113.835 76.4609 118.819Z" fill="white"/>
</svg>
